<?xml version="1.0" standalone="no"?>
<!DOCTYPE svg PUBLIC "-//W3C//DTD SVG 1.1//EN" "http://www.w3.org/Graphics/SVG/1.1/DTD/svg11.dtd" >
<svg xmlns="http://www.w3.org/2000/svg">
<metadata></metadata>
<defs>
<font id="rideliferegular" horiz-adv-x="1347" >
<font-face units-per-em="2048" ascent="1536" descent="-512" />
<missing-glyph horiz-adv-x="460" />
<glyph unicode="FI" horiz-adv-x="1558" d="M61 0v1434h973v-324h-588v-221h451l-74 -324h-377v-565h-385zM1116 0v1352l381 82v-1434h-381z" />
<glyph unicode="FL" horiz-adv-x="2086" d="M61 0v1434h973v-324h-588v-221h451l-74 -324h-377v-565h-385zM1116 0v1352l385 82v-1110h576v-324h-961z" />
<glyph horiz-adv-x="0" />
<glyph horiz-adv-x="682" />
<glyph unicode=" "  horiz-adv-x="460" />
<glyph unicode="&#x09;" horiz-adv-x="460" />
<glyph unicode="&#xa0;" horiz-adv-x="460" />
<glyph unicode="!" horiz-adv-x="544" d="M82 0v391h381v-391h-381zM82 932v420l381 82v-502l-62 -414h-258z" />
<glyph unicode="&#x22;" horiz-adv-x="892" d="M61 899v535h361l-82 -535h-279zM492 899v535h360l-82 -535h-278z" />
<glyph unicode="#" horiz-adv-x="1071" d="M10 606l31 217h184l25 168h-184l28 217h185l32 226h217l-32 -226h168l32 226h215l-32 -226h182l-29 -217h-182l-25 -168h183l-31 -217h-182l-31 -223h-215l31 223h-168l-31 -223h-217l31 223h-185zM442 823h168l25 168h-168z" />
<glyph unicode="$" horiz-adv-x="1183" d="M-31 156l187 290q7 -6 21 -16.5t60 -37.5t94.5 -47t121.5 -37t145 -17q33 0 62.5 4.5t59 15t47 31.5t17.5 51q0 28 -26 54.5t-74.5 48.5t-85 36t-91 30t-58.5 18q-114 36 -190.5 73.5t-131 88t-79.5 115t-25 149.5q0 180 110 292.5t307 143.5v184h295v-186 q65 -12 130.5 -34t113 -44.5t85.5 -43.5t58 -34l19 -14l-176 -279q-105 72 -194.5 110t-184.5 38q-174 0 -174 -97q0 -17 8.5 -32t27.5 -28.5t37 -24t51 -23t55 -20t62.5 -20.5t61.5 -20q64 -21 108.5 -38.5t96.5 -41.5t86.5 -48.5t68.5 -58.5t54 -72.5t32.5 -89 t12.5 -109.5q0 -188 -118 -294t-321 -132v-180h-295v178q-82 10 -160.5 31t-132.5 43.5t-96 44t-62 35.5z" />
<glyph unicode="%" horiz-adv-x="1908" d="M20 1010q0 211 107 327.5t287 116.5q179 0 286 -116.5t107 -327.5q0 -210 -107.5 -326.5t-285.5 -116.5q-179 0 -286.5 116.5t-107.5 326.5zM270 1010q0 -226 144 -226q141 0 141 226q0 112 -36.5 170.5t-104.5 58.5q-69 0 -106.5 -58.5t-37.5 -170.5zM385 0l840 1434 h301l-840 -1434h-301zM1102 422q0 212 106.5 328t286.5 116q179 0 286 -116.5t107 -327.5q0 -210 -107 -326t-286 -116t-286 116t-107 326zM1352 422q0 -225 143 -225q141 0 141 225q0 112 -36.5 170.5t-104.5 58.5q-69 0 -106 -58.5t-37 -170.5z" />
<glyph unicode="&#x26;" horiz-adv-x="1421" d="M31 362q0 261 305 412l-21 25q-129 143 -129 278q0 186 135 281.5t359 95.5q83 0 162.5 -13.5t134 -33t97 -38.5t62.5 -33l21 -13l-158 -279q-5 4 -14.5 10.5t-40 23t-63 29.5t-81.5 23.5t-98 10.5q-137 0 -137 -80q0 -7 1.5 -14t3 -12t6 -12.5t6.5 -11.5t8.5 -11.5 t8.5 -10.5t9.5 -11.5t9.5 -10.5l326 -383q38 56 74 117.5t52 94.5l17 33l287 -151q-8 -19 -24 -52t-73 -123.5t-122 -166.5l287 -336h-447l-94 111q-207 -131 -438 -131q-196 0 -314 94t-118 288zM397 412q0 -62 37 -94.5t127 -32.5q75 0 148 51l-203 239 q-109 -73 -109 -163z" />
<glyph unicode="'" horiz-adv-x="462" d="M61 899v535h361l-82 -535h-279z" />
<glyph unicode="(" horiz-adv-x="632" d="M41 717q0 103 18.5 206.5t48 185.5t65.5 157.5t72 130.5t65.5 96t47.5 61l19 21l256 -154q-8 -12 -21 -34.5t-46.5 -95.5t-59.5 -150.5t-47 -193.5t-21 -230t20 -231t49 -202t57.5 -153.5t48.5 -103.5l20 -35l-256 -154q-14 15 -36.5 43.5t-80.5 120t-102 188t-80.5 241 t-36.5 286.5z" />
<glyph unicode=")" horiz-adv-x="632" d="M0 -8q8 13 21 37t46.5 100.5t59.5 156.5t47 198.5t21 232.5t-20 228.5t-48.5 196.5t-57.5 147.5t-49 98.5l-20 33l256 154q7 -7 19 -21t47 -60.5t66.5 -97t70.5 -129t67 -159t47 -184.5t19 -207q0 -142 -34.5 -284.5t-84 -245t-99 -184.5t-84.5 -123l-34 -42z" />
<glyph unicode="*" horiz-adv-x="710" d="M41 1079l178 56l-178 55l111 188l135 -116l-41 172h219l-41 -172l135 116l111 -188l-178 -55l178 -56l-111 -188l-135 115l41 -170h-219l41 170l-135 -115z" />
<glyph unicode="+" horiz-adv-x="1142" d="M51 557v303h369v369h303v-369h369v-303h-369v-369h-303v369h-369z" />
<glyph unicode="," horiz-adv-x="483" d="M51 0v354l381 80v-420q0 -67 -17 -124.5t-44.5 -95.5t-60 -68.5t-65.5 -47.5t-60.5 -28t-44.5 -15l-17 -4l-70 127q54 15 91.5 37.5t57 43.5t31 53t13.5 52.5t4 55.5h-199z" />
<glyph unicode="-" horiz-adv-x="710" d="M31 504v344h649v-344h-649z" />
<glyph unicode="." horiz-adv-x="483" d="M51 0v352l381 82v-434h-381z" />
<glyph unicode="/" horiz-adv-x="870" d="M0 -41l510 1516h360l-510 -1516h-360z" />
<glyph unicode="0" horiz-adv-x="1343" d="M20 715q0 350 178 544.5t474 194.5t473.5 -194.5t177.5 -544.5t-177.5 -542.5t-473.5 -192.5q-145 0 -264.5 48.5t-206 140t-134 231t-47.5 315.5zM414 715q0 -198 66.5 -300t191.5 -102t191.5 102t66.5 300q0 199 -66.5 302t-191.5 103t-191.5 -103t-66.5 -302z" />
<glyph unicode="1" horiz-adv-x="688" d="M0 995v242q136 0 207 47.5t96 149.5h324v-1434h-381v995h-246z" />
<glyph unicode="2" horiz-adv-x="1204" d="M10 0v133q0 112 27 205.5t72.5 158t104 116.5t123.5 88t130.5 66t124 56t104 52.5t72.5 61.5t27 77q0 62 -55 94.5t-138 32.5q-194 0 -194 -131l-355 -76q0 241 149.5 380.5t409.5 139.5q83 0 159.5 -13t151.5 -45t129.5 -81.5t88 -128.5t33.5 -180q0 -97 -41 -173.5 t-106.5 -124t-144.5 -86t-158 -69t-144.5 -62t-106.5 -76.5t-41 -102h752v-313h-1174z" />
<glyph unicode="3" horiz-adv-x="1236" d="M-20 195l192 241q7 -6 20 -17t55.5 -38t88.5 -47.5t116 -37.5t140 -17q124 0 184 46t60 128q0 73 -49 108t-162 35h-193v299h170q94 0 134 26.5t40 94.5q0 64 -51 104.5t-156 40.5q-58 0 -117 -14t-101.5 -33.5t-76.5 -39.5t-52 -34l-17 -14l-178 242q8 8 24 20.5 t70 44.5t113.5 56.5t153.5 44.5t192 20q132 0 235 -23.5t180 -72t117.5 -128.5t40.5 -188q0 -56 -21 -105t-51.5 -79.5t-60.5 -52.5t-51 -31l-21 -10q6 -1 15.5 -4.5t37 -15.5t52.5 -28t56 -44.5t53 -62t37 -82.5t15 -105q0 -95 -36.5 -171.5t-97 -126t-143 -83 t-170.5 -47.5t-183 -14q-108 0 -210.5 22t-170.5 54t-121 63.5t-78 53.5z" />
<glyph unicode="4" horiz-adv-x="1261" d="M0 262v264l688 908h410v-859h153v-313h-153v-262h-381v262h-717zM373 575h344v443z" />
<glyph unicode="5" horiz-adv-x="1239" d="M-31 154l152 276q9 -6 25 -16t67 -36t103.5 -45.5t128.5 -35.5t147 -16q262 0 262 208q0 83 -53 128t-150 45q-49 0 -94.5 -8.5t-75.5 -21t-52.5 -25t-32.5 -21.5l-11 -8l-338 114l49 742h1045v-314h-731l-13 -219q137 70 320 70q237 0 374.5 -124t137.5 -358 q0 -250 -168 -379.5t-479 -129.5q-99 0 -198.5 18t-171 43.5t-128.5 51t-86 43.5z" />
<glyph unicode="6" horiz-adv-x="1275" d="M20 690q0 382 175 573t516 191q87 0 162.5 -19t127 -50t93.5 -68t67 -74t42 -68t23 -50l7 -19l-320 -68q-2 6 -6 15t-22 33t-41 42t-64.5 33t-91.5 15q-143 0 -221.5 -99t-89.5 -254q6 4 16.5 10.5t46 22.5t74.5 28.5t100 23t123 10.5q83 0 157 -15.5t141 -51t115 -88 t76.5 -131t28.5 -175.5q0 -152 -80.5 -261.5t-214.5 -162.5t-305 -53q-319 0 -477 184t-158 526zM387 469q0 -91 66 -142t192 -51q118 0 188 48.5t70 136.5q0 86 -66 135t-184 49q-129 0 -197.5 -46t-68.5 -130z" />
<glyph unicode="7" horiz-adv-x="1187" d="M10 1120v314h1168v-281q-279 -266 -392.5 -534.5t-113.5 -618.5h-381q4 367 107.5 632.5t322.5 487.5h-711z" />
<glyph unicode="8" horiz-adv-x="1306" d="M10 446q0 70 24.5 128.5t59.5 92t70 57t60 32.5l24 8q-7 3 -19 10t-42 31t-52.5 53t-41.5 77t-19 101q0 201 156.5 309.5t422.5 108.5t423 -108.5t157 -309.5q0 -53 -18 -100.5t-43.5 -77.5t-51 -52.5t-43.5 -31.5l-18 -10q5 -1 13.5 -4t33 -15t47 -27t50 -42t47 -58 t33 -76t13.5 -96q0 -217 -171.5 -341.5t-471.5 -124.5t-471.5 124.5t-171.5 341.5zM383 451q0 -82 68 -132.5t202 -50.5t202.5 50.5t68.5 132.5q0 81 -68 129.5t-203 48.5t-202.5 -48.5t-67.5 -129.5zM446 1030q0 -145 207 -145t207 145q0 64 -48.5 108t-158.5 44 t-158.5 -44t-48.5 -108z" />
<glyph unicode="9" horiz-adv-x="1275" d="M20 944q0 164 78.5 280.5t212.5 173t310 56.5q319 0 476.5 -184.5t157.5 -526.5q0 -378 -171 -570.5t-502 -192.5q-193 0 -334 90t-205 258l319 67q2 -6 6.5 -15t22 -32.5t40.5 -41.5t65 -33t92 -15q143 0 221.5 98.5t89.5 253.5q-6 -4 -16.5 -10t-46 -22.5t-75 -29 t-100.5 -22.5t-124 -10q-80 0 -151 12.5t-139.5 44t-117.5 79t-79 122.5t-30 170zM373 973q0 -87 66 -136t184 -49q129 0 197.5 46.5t68.5 130.5q0 91 -66 141.5t-192 50.5q-118 0 -188 -48t-70 -136z" />
<glyph unicode=":" horiz-adv-x="483" d="M51 0v391h381v-391h-381zM51 539v352l381 82v-434h-381z" />
<glyph unicode=";" horiz-adv-x="483" d="M51 0v391h381v-377q0 -67 -17 -124.5t-44.5 -95.5t-60 -68.5t-65.5 -47.5t-60.5 -28t-44.5 -15l-17 -4l-70 127q54 15 91.5 37.5t57 43.5t31 53t13.5 52.5t4 55.5h-199zM51 539v352l381 82v-434h-381z" />
<glyph unicode="&#x3c;" horiz-adv-x="913" d="M61 604v230l791 622v-457l-393 -284l393 -283v-450z" />
<glyph unicode="=" horiz-adv-x="1163" d="M61 336v303h1041v-303h-1041zM61 778v303h1041v-303h-1041z" />
<glyph unicode="&#x3e;" horiz-adv-x="913" d="M61 -18v450l394 283l-394 284v457l791 -622v-230z" />
<glyph unicode="?" horiz-adv-x="1136" d="M10 1280q8 7 23.5 19t69 42t112 52.5t150.5 41.5t188 19q246 0 394.5 -109t148.5 -276q0 -195 -252 -336q-84 -47 -124.5 -96t-41.5 -119h-361q1 88 23 150t80.5 119.5t161.5 107.5q133 67 133 135q0 113 -180 113q-67 0 -128.5 -12.5t-102.5 -30.5t-72 -36.5t-46 -31.5 l-14 -12zM307 0v391h381v-391h-381z" />
<glyph unicode="@" horiz-adv-x="1648" d="M82 719q0 153 56 288.5t153.5 234t236.5 155.5t297 57q160 0 299.5 -57t236 -154t151.5 -227.5t55 -274.5q0 -84 -19 -158.5t-55.5 -134.5t-98.5 -95.5t-141 -35.5q-57 0 -106 10t-78 24.5t-49.5 28.5t-28.5 24l-8 10q-4 -4 -12.5 -10.5t-36.5 -23t-60 -29.5t-83 -23.5 t-105 -10.5q-120 0 -186 68t-66 174q0 92 47.5 158.5t118.5 96.5t154 30q50 0 100.5 -10t75.5 -20l26 -9l9 57q7 49 -26.5 69.5t-104.5 20.5q-56 0 -116 -13t-92 -25l-32 -13l-43 166q18 8 50 19t123.5 30t174.5 19q137 0 207 -60t70 -174q0 -7 -5 -57l-36 -256 q-9 -62 23 -97.5t102 -35.5q38 0 66 23t42.5 55t23.5 75t11 73t2 60q0 157 -75.5 287t-209 204.5t-295.5 74.5q-171 0 -305 -80t-205 -213.5t-71 -294.5q0 -135 51 -250t137 -193t199 -121.5t237 -43.5q60 0 122.5 14.5t95.5 29.5l32 15l53 -107q-6 -3 -16.5 -9t-45 -20 t-72.5 -25t-95.5 -20t-116.5 -9q-155 0 -292 56t-236.5 153t-157 234.5t-57.5 295.5zM639 573q0 -42 28.5 -66t86.5 -24q33 0 73 11t64 22l24 10l21 140q-74 32 -156 32q-63 0 -102 -33.5t-39 -91.5z" />
<glyph unicode="A" d="M-31 0l422 1352l486 82l501 -1434h-407l-76 250h-453l-65 -250h-408zM524 553h279l-148 485z" />
<glyph unicode="B" horiz-adv-x="1269" d="M61 0v1434h656q510 0 510 -371q0 -60 -17 -111t-41 -81.5t-51 -52t-45.5 -30t-25.5 -8.5q17 -6 34 -13.5t52.5 -33t60.5 -57.5t45.5 -89t20.5 -126q0 -223 -135 -342t-402 -119h-662zM446 303h277q73 0 112 38.5t39 109.5q0 70 -39.5 108.5t-111.5 38.5h-277v-295z M446 889h256q71 0 105.5 33t34.5 88q0 54 -34.5 87t-105.5 33h-256v-241z" />
<glyph unicode="C" horiz-adv-x="1273" d="M20 717q0 161 41.5 294.5t121 232.5t205 154.5t284.5 55.5q456 0 590 -414l-351 -137q-2 9 -6 23.5t-22 52t-42.5 66t-69 52t-99.5 23.5q-135 0 -196.5 -108t-61.5 -295q0 -63 5 -113t22.5 -107t47 -95t82.5 -63.5t125 -25.5q52 0 96.5 21t71.5 50.5t46 59.5t26 51l8 21 l320 -166q-3 -8 -8.5 -21t-28 -51.5t-50.5 -73.5t-77.5 -78t-107.5 -73.5t-142 -51.5t-178 -21q-205 0 -353.5 94t-223.5 259.5t-75 383.5z" />
<glyph unicode="D" horiz-adv-x="1306" d="M61 0v1434h492q127 0 234 -23t200.5 -76t159 -134.5t102.5 -203t37 -276.5q0 -721 -733 -721h-492zM446 324h95q193 0 272.5 87.5t79.5 309.5q0 196 -78.5 292.5t-261.5 96.5h-107v-786z" />
<glyph unicode="E" horiz-adv-x="1044" d="M61 0v1434h932v-324h-547v-221h422l-73 -324h-349v-241h568v-324h-953z" />
<glyph unicode="F" horiz-adv-x="1054" d="M61 0v1434h973v-324h-588v-221h451l-74 -324h-377v-565h-385z" />
<glyph unicode="G" horiz-adv-x="1325" d="M20 715q0 128 26 239.5t79 203.5t129.5 158t183 102t234.5 36q86 0 162 -15.5t131.5 -41.5t103 -60t79.5 -71.5t57.5 -75.5t40 -72t24 -60t12.5 -42l4 -15l-368 -77q-2 8 -6 21t-22.5 47t-43 60t-71 47t-103.5 21q-92 0 -151 -54t-83 -141.5t-24 -209.5q0 -63 5 -113 t22.5 -106.5t47 -94.5t82.5 -63t125 -25q64 0 111.5 18t70.5 43.5t37 51t17 43.5l2 18h-246v304h617v-146q0 -332 -163 -498.5t-470 -166.5q-205 0 -353.5 93.5t-223.5 258.5t-75 383z" />
<glyph unicode="H" horiz-adv-x="1355" d="M61 0v1352l385 82v-545h463v545h385v-1434h-385v565h-463v-565h-385z" />
<glyph unicode="I" horiz-adv-x="503" d="M61 0v1352l381 82v-1434h-381z" />
<glyph unicode="J" horiz-adv-x="1198" d="M-10 483l350 76q0 -5 0.5 -13.5t4.5 -33t11 -46.5t23.5 -49t39 -46.5t59.5 -33t83 -13.5q97 0 146 58t49 165v805l381 82v-856q0 -136 -35 -244.5t-105.5 -188.5t-183.5 -122.5t-262 -42.5q-83 0 -155.5 17t-124.5 46.5t-95.5 67t-72 79.5t-50 83.5t-33 79t-19 67 t-9.5 46.5z" />
<glyph unicode="K" horiz-adv-x="1306" d="M61 0v1352l385 82v-533l410 533h461l-440 -516l460 -918h-440l-285 606l-166 -194v-412h-385z" />
<glyph unicode="L" horiz-adv-x="1032" d="M61 0v1352l385 82v-1110h576v-324h-961z" />
<glyph unicode="M" horiz-adv-x="1546" d="M61 0v1352l347 82l376 -740l349 740h352v-1434h-357v707l-346 -748l-364 748v-707h-357z" />
<glyph unicode="N" horiz-adv-x="1349" d="M61 0v1352l330 82l541 -762v762h356v-1434h-315l-555 815v-815h-357z" />
<glyph unicode="O" horiz-adv-x="1343" d="M20 715q0 350 178 544.5t474 194.5t473.5 -194.5t177.5 -544.5t-177.5 -542.5t-473.5 -192.5q-145 0 -264.5 48.5t-206 140t-134 231t-47.5 315.5zM414 715q0 -198 66.5 -300t191.5 -102t191.5 102t66.5 300q0 199 -66.5 302t-191.5 103t-191.5 -103t-66.5 -302z" />
<glyph unicode="P" horiz-adv-x="1226" d="M61 0v1434h586q101 0 186 -16.5t157 -53t121.5 -91t77.5 -133.5t28 -177q0 -104 -31.5 -187.5t-84.5 -139t-127 -93t-155 -54t-172 -16.5h-205v-473h-381zM442 786h193q188 0 188 166q0 76 -46 122t-142 46h-193v-334z" />
<glyph unicode="Q" horiz-adv-x="1343" d="M20 715q0 350 178 544.5t474 194.5t473.5 -194.5t177.5 -544.5q0 -349 -180 -545l100 -137l-239 -170l-109 149q-109 -32 -223 -32q-145 0 -264.5 48.5t-206 140t-134 231t-47.5 315.5zM414 715q0 -198 66.5 -300t191.5 -102h8l-107 148l240 170l90 -127q27 96 27 211 q0 199 -66.5 302t-191.5 103t-191.5 -103t-66.5 -302z" />
<glyph unicode="R" horiz-adv-x="1257" d="M61 0v1434h607q127 0 229 -27t179 -82.5t119 -147.5t42 -214q0 -299 -248 -422l289 -541h-430l-221 473h-185v-473h-381zM442 786h213q189 0 189 166q0 76 -46.5 122t-142.5 46h-213v-334z" />
<glyph unicode="S" horiz-adv-x="1183" d="M-31 156l187 290q7 -6 21 -16.5t60 -37.5t94.5 -47t121.5 -37t145 -17q33 0 62.5 4.5t59 15t47 31.5t17.5 51q0 28 -26 54.5t-74.5 48.5t-85 36t-91 30t-58.5 18q-114 36 -190.5 73.5t-131 88t-79.5 115t-25 149.5q0 213 151.5 330.5t411.5 117.5q84 0 172.5 -19t154 -46 t119 -54t81.5 -46l28 -19l-176 -279q-105 72 -194.5 110t-184.5 38q-174 0 -174 -97q0 -17 8.5 -32t27.5 -28.5t37 -24t51 -23t55 -20t62.5 -20.5t61.5 -20q64 -21 108.5 -38.5t96.5 -41.5t86.5 -48.5t68.5 -58.5t54 -72.5t32.5 -89t12.5 -109.5q0 -114 -44.5 -199 t-126 -136t-187 -76t-234.5 -25q-106 0 -208 18t-172 44t-125 52t-81 44z" />
<glyph unicode="T" horiz-adv-x="1183" d="M10 1110v324h1164v-324h-390v-1110h-385v1110h-389z" />
<glyph unicode="U" horiz-adv-x="1327" d="M51 604v748l381 82v-830q0 -291 232 -291q231 0 231 291v830h381v-830q0 -167 -45 -289.5t-129 -194.5t-192.5 -106t-245.5 -34t-246 34t-192.5 106t-129 194.5t-45.5 289.5z" />
<glyph unicode="V" horiz-adv-x="1320" d="M-31 1434h418l277 -983l276 983h412l-494 -1434h-395z" />
<glyph unicode="W" horiz-adv-x="1640" d="M-31 1434h398l143 -830l324 871l305 -871l143 830h389l-340 -1434h-336l-164 575l-188 -575h-326z" />
<glyph unicode="X" horiz-adv-x="1304" d="M-20 0l452 729l-436 705h448l220 -396l208 396h437l-432 -707l448 -727h-446l-230 424l-231 -424h-438z" />
<glyph unicode="Y" d="M-31 1434h445l262 -568l264 568h438l-514 -910v-524h-385v524z" />
<glyph unicode="Z" horiz-adv-x="1183" d="M20 0v279l650 831h-609v324h1088v-279l-649 -831h653v-324h-1133z" />
<glyph unicode="[" horiz-adv-x="659" d="M82 -166v1706h577v-250h-210v-1206h210v-250h-577z" />
<glyph unicode="\" horiz-adv-x="870" d="M0 1475h360l510 -1516h-360z" />
<glyph unicode="]" horiz-adv-x="659" d="M0 84h211v1206h-211v250h578v-1706h-578v250z" />
<glyph unicode="_" horiz-adv-x="1024" d="M0 -143h1024v-267h-1024v267z" />
<glyph unicode="`" horiz-adv-x="819" d="M133 1886h416l135 -315h-250z" />
<glyph unicode="a" d="M-31 0l422 1352l486 82l501 -1434h-407l-76 250h-453l-65 -250h-408zM524 553h279l-148 485z" />
<glyph unicode="b" horiz-adv-x="1269" d="M61 0v1434h656q510 0 510 -371q0 -60 -17 -111t-41 -81.5t-51 -52t-45.5 -30t-25.5 -8.5q17 -6 34 -13.5t52.5 -33t60.5 -57.5t45.5 -89t20.5 -126q0 -223 -135 -342t-402 -119h-662zM446 303h277q73 0 112 38.5t39 109.5q0 70 -39.5 108.5t-111.5 38.5h-277v-295z M446 889h256q71 0 105.5 33t34.5 88q0 54 -34.5 87t-105.5 33h-256v-241z" />
<glyph unicode="c" horiz-adv-x="1273" d="M20 717q0 161 41.5 294.5t121 232.5t205 154.5t284.5 55.5q456 0 590 -414l-351 -137q-2 9 -6 23.5t-22 52t-42.5 66t-69 52t-99.5 23.5q-135 0 -196.5 -108t-61.5 -295q0 -63 5 -113t22.5 -107t47 -95t82.5 -63.5t125 -25.5q52 0 96.5 21t71.5 50.5t46 59.5t26 51l8 21 l320 -166q-3 -8 -8.5 -21t-28 -51.5t-50.5 -73.5t-77.5 -78t-107.5 -73.5t-142 -51.5t-178 -21q-205 0 -353.5 94t-223.5 259.5t-75 383.5z" />
<glyph unicode="d" horiz-adv-x="1306" d="M61 0v1434h492q127 0 234 -23t200.5 -76t159 -134.5t102.5 -203t37 -276.5q0 -721 -733 -721h-492zM446 324h95q193 0 272.5 87.5t79.5 309.5q0 196 -78.5 292.5t-261.5 96.5h-107v-786z" />
<glyph unicode="e" horiz-adv-x="1044" d="M61 0v1434h932v-324h-547v-221h422l-73 -324h-349v-241h568v-324h-953z" />
<glyph unicode="f" horiz-adv-x="1054" d="M61 0v1434h973v-324h-588v-221h451l-74 -324h-377v-565h-385z" />
<glyph unicode="g" horiz-adv-x="1325" d="M20 715q0 128 26 239.5t79 203.5t129.5 158t183 102t234.5 36q86 0 162 -15.5t131.5 -41.5t103 -60t79.5 -71.5t57.5 -75.5t40 -72t24 -60t12.5 -42l4 -15l-368 -77q-2 8 -6 21t-22.5 47t-43 60t-71 47t-103.5 21q-92 0 -151 -54t-83 -141.5t-24 -209.5q0 -63 5 -113 t22.5 -106.5t47 -94.5t82.5 -63t125 -25q64 0 111.5 18t70.5 43.5t37 51t17 43.5l2 18h-246v304h617v-146q0 -332 -163 -498.5t-470 -166.5q-205 0 -353.5 93.5t-223.5 258.5t-75 383z" />
<glyph unicode="h" horiz-adv-x="1355" d="M61 0v1352l385 82v-545h463v545h385v-1434h-385v565h-463v-565h-385z" />
<glyph unicode="i" horiz-adv-x="503" d="M61 0v1352l381 82v-1434h-381z" />
<glyph unicode="j" horiz-adv-x="1198" d="M-10 483l350 76q0 -5 0.5 -13.5t4.5 -33t11 -46.5t23.5 -49t39 -46.5t59.5 -33t83 -13.5q97 0 146 58t49 165v805l381 82v-856q0 -136 -35 -244.5t-105.5 -188.5t-183.5 -122.5t-262 -42.5q-83 0 -155.5 17t-124.5 46.5t-95.5 67t-72 79.5t-50 83.5t-33 79t-19 67 t-9.5 46.5z" />
<glyph unicode="k" horiz-adv-x="1306" d="M61 0v1352l385 82v-533l410 533h461l-440 -516l460 -918h-440l-285 606l-166 -194v-412h-385z" />
<glyph unicode="l" horiz-adv-x="1032" d="M61 0v1352l385 82v-1110h576v-324h-961z" />
<glyph unicode="m" horiz-adv-x="1546" d="M61 0v1352l347 82l376 -740l349 740h352v-1434h-357v707l-346 -748l-364 748v-707h-357z" />
<glyph unicode="n" horiz-adv-x="1349" d="M61 0v1352l330 82l541 -762v762h356v-1434h-315l-555 815v-815h-357z" />
<glyph unicode="o" horiz-adv-x="1343" d="M20 715q0 350 178 544.5t474 194.5t473.5 -194.5t177.5 -544.5t-177.5 -542.5t-473.5 -192.5q-145 0 -264.5 48.5t-206 140t-134 231t-47.5 315.5zM414 715q0 -198 66.5 -300t191.5 -102t191.5 102t66.5 300q0 199 -66.5 302t-191.5 103t-191.5 -103t-66.5 -302z" />
<glyph unicode="p" horiz-adv-x="1226" d="M61 0v1434h586q101 0 186 -16.5t157 -53t121.5 -91t77.5 -133.5t28 -177q0 -104 -31.5 -187.5t-84.5 -139t-127 -93t-155 -54t-172 -16.5h-205v-473h-381zM442 786h193q188 0 188 166q0 76 -46 122t-142 46h-193v-334z" />
<glyph unicode="q" horiz-adv-x="1343" d="M20 715q0 350 178 544.5t474 194.5t473.5 -194.5t177.5 -544.5q0 -349 -180 -545l100 -137l-239 -170l-109 149q-109 -32 -223 -32q-145 0 -264.5 48.5t-206 140t-134 231t-47.5 315.5zM414 715q0 -198 66.5 -300t191.5 -102h8l-107 148l240 170l90 -127q27 96 27 211 q0 199 -66.5 302t-191.5 103t-191.5 -103t-66.5 -302z" />
<glyph unicode="r" horiz-adv-x="1257" d="M61 0v1434h607q127 0 229 -27t179 -82.5t119 -147.5t42 -214q0 -299 -248 -422l289 -541h-430l-221 473h-185v-473h-381zM442 786h213q189 0 189 166q0 76 -46.5 122t-142.5 46h-213v-334z" />
<glyph unicode="s" horiz-adv-x="1183" d="M-31 156l187 290q7 -6 21 -16.5t60 -37.5t94.5 -47t121.5 -37t145 -17q33 0 62.5 4.5t59 15t47 31.5t17.5 51q0 28 -26 54.5t-74.5 48.5t-85 36t-91 30t-58.5 18q-114 36 -190.5 73.5t-131 88t-79.5 115t-25 149.5q0 213 151.5 330.5t411.5 117.5q84 0 172.5 -19t154 -46 t119 -54t81.5 -46l28 -19l-176 -279q-105 72 -194.5 110t-184.5 38q-174 0 -174 -97q0 -17 8.5 -32t27.5 -28.5t37 -24t51 -23t55 -20t62.5 -20.5t61.5 -20q64 -21 108.5 -38.5t96.5 -41.5t86.5 -48.5t68.5 -58.5t54 -72.5t32.5 -89t12.5 -109.5q0 -114 -44.5 -199 t-126 -136t-187 -76t-234.5 -25q-106 0 -208 18t-172 44t-125 52t-81 44z" />
<glyph unicode="t" horiz-adv-x="1183" d="M10 1110v324h1164v-324h-390v-1110h-385v1110h-389z" />
<glyph unicode="u" horiz-adv-x="1327" d="M51 604v748l381 82v-830q0 -291 232 -291q231 0 231 291v830h381v-830q0 -167 -45 -289.5t-129 -194.5t-192.5 -106t-245.5 -34t-246 34t-192.5 106t-129 194.5t-45.5 289.5z" />
<glyph unicode="v" horiz-adv-x="1320" d="M-31 1434h418l277 -983l276 983h412l-494 -1434h-395z" />
<glyph unicode="w" horiz-adv-x="1640" d="M-31 1434h398l143 -830l324 871l305 -871l143 830h389l-340 -1434h-336l-164 575l-188 -575h-326z" />
<glyph unicode="x" horiz-adv-x="1304" d="M-20 0l452 729l-436 705h448l220 -396l208 396h437l-432 -707l448 -727h-446l-230 424l-231 -424h-438z" />
<glyph unicode="y" d="M-31 1434h445l262 -568l264 568h438l-514 -910v-524h-385v524z" />
<glyph unicode="z" horiz-adv-x="1183" d="M20 0v279l650 831h-609v324h1088v-279l-649 -831h653v-324h-1133z" />
<glyph unicode="{" horiz-adv-x="710" d="M0 598v254q52 0 80.5 53.5t28.5 184.5v45q0 120 23.5 194t88 123.5t171 68.5t278.5 19v-207q-97 -18 -128.5 -73.5t-31.5 -180.5v-71q0 -64 -25 -116t-57.5 -81t-73.5 -50t-64 -27.5t-38 -8.5q17 -3 39.5 -10t64 -28.5t73.5 -50t56.5 -80t24.5 -114.5v-71 q0 -125 31.5 -180.5t128.5 -73.5v-207q-172 0 -278.5 19t-171 68.5t-88 123.5t-23.5 194v45q0 131 -28.5 184.5t-80.5 53.5z" />
<glyph unicode="|" horiz-adv-x="561" d="M102 -164v1761h357v-1761h-357z" />
<glyph unicode="}" horiz-adv-x="710" d="M41 -90v207q97 18 128.5 73.5t31.5 180.5v71q0 63 24 114.5t56 80t72.5 50t64.5 28.5t41 10q-15 2 -38 8.5t-64 27.5t-73.5 50t-57.5 81t-25 116v71q0 125 -31.5 180.5t-128.5 73.5v207q172 0 278.5 -19t171 -68.5t88 -123.5t23.5 -194v-45q0 -131 28.5 -184.5 t80.5 -53.5v-254q-52 0 -80.5 -53.5t-28.5 -184.5v-45q0 -120 -23.5 -194t-88 -123.5t-171 -68.5t-278.5 -19z" />
<glyph unicode="&#xa1;" horiz-adv-x="544" d="M82 0v502l61 413h258l62 -413v-420zM82 1042v392h381v-392h-381z" />
<glyph unicode="&#xa2;" horiz-adv-x="972" d="M20 891q0 205 87 346t253 186v160h295v-158q220 -55 306 -307l-283 -106q-1 7 -4 17.5t-16 38.5t-30 49.5t-48.5 39t-69.5 17.5q-176 0 -176 -283q0 -56 6.5 -99.5t25.5 -89t60 -71t102 -25.5q35 0 66 16.5t49.5 40t32.5 47t20 40.5l6 16l261 -139q-3 -8 -9.5 -22.5 t-32.5 -54t-57.5 -72.5t-87.5 -68.5t-121 -53.5v-170h-295v170q-162 45 -251 187.5t-89 347.5z" />
<glyph unicode="&#xa3;" horiz-adv-x="1136" d="M0 530v277h111q-4 8 -19.5 37t-21 40.5t-16.5 37.5t-16 43t-9 41.5t-4 48.5q0 93 33 165t86 115t127.5 71t148.5 38t158 10q91 0 170.5 -19t133.5 -50t98.5 -68t70.5 -74t44 -68t25 -50l6 -19l-323 -68q-2 6 -6 15t-22 33t-41 42t-64.5 33t-91.5 15q-93 0 -129.5 -39.5 t-36.5 -92.5q0 -31 9 -64t19.5 -55.5t29.5 -60t28 -57.5h329v-277h-297q-20 -111 -100 -217h672v-313h-1077v246q4 4 11.5 12.5t27 36.5t35.5 58.5t33.5 78.5t25.5 98h-158z" />
<glyph unicode="&#xa5;" horiz-adv-x="1368" d="M-20 1434h444l227 -492h70l229 492h439l-279 -492h201v-184h-305l-50 -88h355v-185h-437v-485h-385v485h-444v185h363l-50 88h-313v184h209z" />
<glyph unicode="&#xa8;" horiz-adv-x="819" d="M63 1571v262l285 65v-327h-285zM471 1571v262l285 65v-327h-285z" />
<glyph unicode="&#xa9;" horiz-adv-x="1638" d="M82 717q0 150 58 286.5t157 235.5t235.5 157t286.5 58t286.5 -58t235.5 -157t157 -235.5t58 -286.5t-58 -286.5t-157 -235.5t-235.5 -157t-286.5 -58t-286.5 58t-235.5 157t-157 235.5t-58 286.5zM219 717q0 -122 47.5 -233.5t127.5 -191.5t191.5 -127.5t233.5 -47.5 t233.5 47.5t191.5 127.5t127.5 191.5t47.5 233.5t-47.5 233.5t-127.5 191.5t-191.5 127.5t-233.5 47.5t-233.5 -47.5t-191.5 -127.5t-127.5 -191.5t-47.5 -233.5zM471 717q0 181 93 293t267 112q254 0 330 -235l-203 -78q-1 5 -3.5 13t-12 28.5t-22.5 36t-36.5 28.5 t-52.5 13q-133 0 -133 -211q0 -215 148 -215q42 0 74.5 28.5t44.5 57.5l12 28l184 -98q-3 -9 -9.5 -23t-32.5 -50.5t-60 -64t-95 -50.5t-133 -23q-170 0 -265 112.5t-95 297.5z" />
<glyph unicode="&#xab;" horiz-adv-x="1193" d="M10 516l197 424l428 92l-225 -516l225 -516h-385zM549 516l196 424l429 92l-226 -516l226 -516h-386z" />
<glyph unicode="&#xad;" horiz-adv-x="710" d="M31 504v344h649v-344h-649z" />
<glyph unicode="&#xae;" horiz-adv-x="663" d="M31 1153q0 128 86 214.5t215 86.5q128 0 214.5 -87t86.5 -214t-86.5 -214t-214.5 -87q-129 0 -215 86.5t-86 214.5zM88 1153q0 -109 70 -177.5t174 -68.5q105 0 174 68.5t69 177.5t-69 177.5t-174 68.5q-104 0 -174 -68.5t-70 -177.5zM205 991v328h141q58 0 93.5 -27.5 t35.5 -83.5q0 -69 -53 -96l67 -121h-108l-51 105h-27v-105h-98zM303 1178h39q35 0 35 26q0 31 -35 31h-39v-57z" />
<glyph unicode="&#xaf;" horiz-adv-x="819" d="M70 1606v243h678v-243h-678z" />
<glyph unicode="&#xb0;" horiz-adv-x="534" d="M31 1217q0 98 68.5 167.5t166.5 69.5t168 -69.5t70 -167.5t-70 -167t-168 -69t-166.5 69t-68.5 167zM172 1217q0 -40 27 -67.5t67 -27.5t68 27.5t28 67.5t-28 68t-68 28t-67 -28t-27 -68z" />
<glyph unicode="&#xb4;" horiz-adv-x="819" d="M133 1571l135 315h416l-301 -315h-250z" />
<glyph unicode="&#xb6;" horiz-adv-x="1376" d="M53 1026q0 131 41 227.5t116.5 153.5t174.5 84t223 27h678v-250h-115v-1641h-241v1641h-158v-1641h-237v928q-217 3 -349.5 127t-132.5 344zM309 1026q0 -107 57 -169.5t169 -68.5v480q-109 -6 -167.5 -68t-58.5 -174z" />
<glyph unicode="&#xb7;" horiz-adv-x="483" d="M51 553v352l381 82v-434h-381z" />
<glyph unicode="&#xb8;" horiz-adv-x="819" d="M104 -524l52 141q55 -20 125 -20q30 0 56.5 5.5t48.5 23t22 44.5q0 68 -127 68l-70 -6l127 268h188l-67 -147q87 -3 142.5 -47t55.5 -119q0 -64 -35.5 -114t-90.5 -78t-113.5 -42t-112.5 -14q-62 0 -112 9.5t-69 18.5z" />
<glyph unicode="&#xbb;" horiz-adv-x="1193" d="M20 0l226 516l-193 440l353 76l239 -516l-239 -516h-386zM559 0l225 516l-192 440l352 76l240 -516l-240 -516h-385z" />
<glyph unicode="&#xbf;" horiz-adv-x="1136" d="M10 365q0 194 252 335q84 47 124.5 96t41.5 119h360q-1 -88 -23 -150t-80 -119t-161 -107q-133 -67 -133 -136q0 -112 180 -112q67 0 128.5 12.5t102.5 30.5t72 36.5t46 31.5l14 12l162 -260q-8 -7 -23.5 -19t-69 -42t-112 -52.5t-150.5 -41.5t-188 -19 q-246 0 -394.5 109t-148.5 276zM418 1042v392h381v-392h-381z" />
<glyph unicode="&#xc0;" d="M-31 0l422 1352l486 82l501 -1434h-407l-76 250h-453l-65 -250h-408zM274 1886h416l135 -315h-250zM524 553h279l-148 485z" />
<glyph unicode="&#xc1;" d="M-31 0l422 1352l486 82l501 -1434h-407l-76 250h-453l-65 -250h-408zM459 1571l135 315h416l-301 -315h-250zM524 553h279l-148 485z" />
<glyph unicode="&#xc2;" d="M-31 0l422 1352l486 82l501 -1434h-407l-76 250h-453l-65 -250h-408zM279 1571l176 315h436l176 -315h-260l-135 119l-133 -119h-260zM524 553h279l-148 485z" />
<glyph unicode="&#xc3;" d="M-31 0l422 1352l486 82l501 -1434h-407l-76 250h-453l-65 -250h-408zM270 1571q2 143 64.5 230t175.5 87q53 0 150 -40t137 -40q68 0 71 78h207q-2 -143 -64.5 -230t-174.5 -87q-63 0 -165.5 39t-127.5 39q-63 0 -66 -76h-207zM524 553h279l-148 485z" />
<glyph unicode="&#xc4;" d="M-31 0l422 1352l486 82l501 -1434h-407l-76 250h-453l-65 -250h-408zM328 1571v262l284 65v-327h-284zM524 553h279l-148 485zM735 1571v262l285 65v-327h-285z" />
<glyph unicode="&#xc5;" d="M-31 0l422 1352l486 82l501 -1434h-407l-76 250h-453l-65 -250h-408zM383 1792q0 121 84.5 203t206.5 82t206.5 -82t84.5 -203t-84.5 -202t-206.5 -81t-206.5 81t-84.5 202zM524 553h279l-148 485zM557 1792q0 -50 33.5 -83.5t83.5 -33.5t83.5 33.5t33.5 83.5t-34 84.5 t-83 34.5t-83 -34.5t-34 -84.5z" />
<glyph unicode="&#xc6;" horiz-adv-x="1910" d="M-31 0l826 1434h1065v-324h-547v-221h422l-74 -324h-348v-241h567v-324h-952v172h-441l-96 -172h-422zM659 475h269v475z" />
<glyph unicode="&#xc7;" horiz-adv-x="1273" d="M20 717q0 161 41.5 294.5t121 232.5t205 154.5t284.5 55.5q456 0 590 -414l-351 -137q-2 9 -6 23.5t-22 52t-42.5 66t-69 52t-99.5 23.5q-135 0 -196.5 -108t-61.5 -295q0 -63 5 -113t22.5 -107t47 -95t82.5 -63.5t125 -25.5q52 0 96.5 21t71.5 50.5t46 59.5t26 51l8 21 l320 -166q-2 -7 -7 -19t-25 -46.5t-44.5 -66.5t-68 -73t-93 -72t-122.5 -56t-154 -33l-41 -90q87 -3 142.5 -47t55.5 -119q0 -64 -35.5 -114t-90.5 -78t-113.5 -42t-112.5 -14q-62 0 -112 9t-69 19l-20 9l52 141q54 -20 124 -20q30 0 56.5 5.5t48.5 23t22 44.5q0 68 -127 68 l-69 -6l100 215q-257 36 -399 232t-142 497z" />
<glyph unicode="&#xc8;" horiz-adv-x="1044" d="M61 0v1434h932v-324h-547v-221h422l-73 -324h-349v-241h568v-324h-953zM164 1886h416l135 -315h-250z" />
<glyph unicode="&#xc9;" horiz-adv-x="1044" d="M61 0v1434h932v-324h-547v-221h422l-73 -324h-349v-241h568v-324h-953zM307 1571l135 315h416l-301 -315h-250z" />
<glyph unicode="&#xca;" horiz-adv-x="1044" d="M61 0v1434h932v-324h-547v-221h422l-73 -324h-349v-241h568v-324h-953zM127 1571l176 315h436l176 -315h-260l-135 119l-133 -119h-260z" />
<glyph unicode="&#xcb;" horiz-adv-x="1044" d="M61 0v1434h932v-324h-547v-221h422l-73 -324h-349v-241h568v-324h-953zM176 1571v262l285 65v-327h-285zM584 1571v262l284 65v-327h-284z" />
<glyph unicode="&#xcc;" horiz-adv-x="503" d="M-104 1886h415l135 -315h-249zM61 0v1352l381 82v-1434h-381z" />
<glyph unicode="&#xcd;" horiz-adv-x="503" d="M59 1571l136 315h415l-301 -315h-250zM61 0v1352l381 82v-1434h-381z" />
<glyph unicode="&#xce;" horiz-adv-x="503" d="M-141 1571l176 315h436l176 -315h-260l-135 119l-133 -119h-260zM61 0v1352l381 82v-1434h-381z" />
<glyph unicode="&#xcf;" horiz-adv-x="503" d="M-94 1571v262l284 65v-327h-284zM61 0v1352l381 82v-1434h-381zM313 1571v262l285 65v-327h-285z" />
<glyph unicode="&#xd0;" horiz-adv-x="1351" d="M0 571v320h106v543h492q127 0 234 -23t200.5 -76t159 -134.5t102.5 -203t37 -276.5q0 -721 -733 -721h-492v571h-106zM492 324h94q193 0 272.5 87.5t79.5 309.5q0 196 -78.5 292.5t-261.5 96.5h-106v-219h186v-320h-186v-247z" />
<glyph unicode="&#xd1;" horiz-adv-x="1349" d="M61 0v1352l330 82l541 -762v762h356v-1434h-315l-555 815v-815h-357zM272 1571q2 143 64.5 230t175.5 87q53 0 150 -40t137 -40q68 0 71 78h207q-2 -143 -64.5 -230t-174.5 -87q-63 0 -165.5 39t-127.5 39q-63 0 -66 -76h-207z" />
<glyph unicode="&#xd2;" horiz-adv-x="1343" d="M20 715q0 350 178 544.5t474 194.5t473.5 -194.5t177.5 -544.5t-177.5 -542.5t-473.5 -192.5q-145 0 -264.5 48.5t-206 140t-134 231t-47.5 315.5zM293 1886h416l135 -315h-250zM414 715q0 -198 66.5 -300t191.5 -102t191.5 102t66.5 300q0 199 -66.5 302t-191.5 103 t-191.5 -103t-66.5 -302z" />
<glyph unicode="&#xd3;" horiz-adv-x="1343" d="M20 715q0 350 178 544.5t474 194.5t473.5 -194.5t177.5 -544.5t-177.5 -542.5t-473.5 -192.5q-145 0 -264.5 48.5t-206 140t-134 231t-47.5 315.5zM414 715q0 -198 66.5 -300t191.5 -102t191.5 102t66.5 300q0 199 -66.5 302t-191.5 103t-191.5 -103t-66.5 -302z M477 1571l135 315h416l-301 -315h-250z" />
<glyph unicode="&#xd4;" horiz-adv-x="1343" d="M20 715q0 350 178 544.5t474 194.5t473.5 -194.5t177.5 -544.5t-177.5 -542.5t-473.5 -192.5q-145 0 -264.5 48.5t-206 140t-134 231t-47.5 315.5zM276 1571l177 315h436l176 -315h-260l-135 119l-133 -119h-261zM414 715q0 -198 66.5 -300t191.5 -102t191.5 102 t66.5 300q0 199 -66.5 302t-191.5 103t-191.5 -103t-66.5 -302z" />
<glyph unicode="&#xd5;" horiz-adv-x="1343" d="M20 715q0 350 178 544.5t474 194.5t473.5 -194.5t177.5 -544.5t-177.5 -542.5t-473.5 -192.5q-145 0 -264.5 48.5t-206 140t-134 231t-47.5 315.5zM268 1571q2 143 64.5 230t175.5 87q53 0 150 -40t137 -40q68 0 71 78h207q-2 -143 -64.5 -230t-174.5 -87 q-63 0 -165.5 39t-127.5 39q-63 0 -66 -76h-207zM414 715q0 -198 66.5 -300t191.5 -102t191.5 102t66.5 300q0 199 -66.5 302t-191.5 103t-191.5 -103t-66.5 -302z" />
<glyph unicode="&#xd6;" horiz-adv-x="1343" d="M20 715q0 350 178 544.5t474 194.5t473.5 -194.5t177.5 -544.5t-177.5 -542.5t-473.5 -192.5q-145 0 -264.5 48.5t-206 140t-134 231t-47.5 315.5zM326 1571v262l284 65v-327h-284zM414 715q0 -198 66.5 -300t191.5 -102t191.5 102t66.5 300q0 199 -66.5 302t-191.5 103 t-191.5 -103t-66.5 -302zM733 1571v262l285 65v-327h-285z" />
<glyph unicode="&#xd8;" horiz-adv-x="1343" d="M20 715q0 350 178 544.5t474 194.5q84 0 176 -20l70 129l321 -172l-80 -150q164 -197 164 -526q0 -350 -177.5 -542.5t-473.5 -192.5q-88 0 -180 20l-70 -129l-322 176l80 146q-160 193 -160 522zM414 715q0 -198 66.5 -300t191.5 -102t191.5 102t66.5 300 q0 199 -66.5 302t-191.5 103t-191.5 -103t-66.5 -302z" />
<glyph unicode="&#xd9;" horiz-adv-x="1327" d="M51 604v748l381 82v-830q0 -291 232 -291q231 0 231 291v830h381v-830q0 -167 -45 -289.5t-129 -194.5t-192.5 -106t-245.5 -34t-246 34t-192.5 106t-129 194.5t-45.5 289.5zM326 1886h415l136 -315h-250z" />
<glyph unicode="&#xda;" horiz-adv-x="1327" d="M51 604v748l381 82v-830q0 -291 232 -291q231 0 231 291v830h381v-830q0 -167 -45 -289.5t-129 -194.5t-192.5 -106t-245.5 -34t-246 34t-192.5 106t-129 194.5t-45.5 289.5zM449 1571l135 315h415l-301 -315h-249z" />
<glyph unicode="&#xdb;" horiz-adv-x="1327" d="M51 604v748l381 82v-830q0 -291 232 -291q231 0 231 291v830h381v-830q0 -167 -45 -289.5t-129 -194.5t-192.5 -106t-245.5 -34t-246 34t-192.5 106t-129 194.5t-45.5 289.5zM268 1571l176 315h437l176 -315h-260l-135 119l-134 -119h-260z" />
<glyph unicode="&#xdc;" horiz-adv-x="1327" d="M51 604v748l381 82v-830q0 -291 232 -291q231 0 231 291v830h381v-830q0 -167 -45 -289.5t-129 -194.5t-192.5 -106t-245.5 -34t-246 34t-192.5 106t-129 194.5t-45.5 289.5zM317 1571v262l285 65v-327h-285zM725 1571v262l285 65v-327h-285z" />
<glyph unicode="&#xdd;" d="M-31 1434h445l262 -568l264 568h438l-514 -910v-524h-385v524zM459 1571l135 315h416l-301 -315h-250z" />
<glyph unicode="&#xde;" horiz-adv-x="1226" d="M61 0v1352l381 82v-226h205q101 0 186 -16.5t157 -53t121.5 -91t77.5 -133.5t28 -177q0 -104 -31.5 -187.5t-84.5 -139t-127 -92.5t-155 -53.5t-172 -16.5h-205v-248h-381zM442 561h193q188 0 188 166q0 76 -46 122t-142 46h-193v-334z" />
<glyph unicode="&#xdf;" horiz-adv-x="2367" d="M-31 156l187 290q7 -6 21 -16.5t60 -37.5t94.5 -47t121.5 -37t145 -17q33 0 62.5 4.5t59 15t47 31.5t17.5 51q0 28 -26 54.5t-74.5 48.5t-85 36t-91 30t-58.5 18q-114 36 -190.5 73.5t-131 88t-79.5 115t-25 149.5q0 213 151.5 330.5t411.5 117.5q84 0 172.5 -19t154 -46 t119 -54t81.5 -46l28 -19l-176 -279q-105 72 -194.5 110t-184.5 38q-174 0 -174 -97q0 -17 8.5 -32t27.5 -28.5t37 -24t51 -23t55 -20t62.5 -20.5t61.5 -20q64 -21 108.5 -38.5t96.5 -41.5t86.5 -48.5t68.5 -58.5t54 -72.5t32.5 -89t12.5 -109.5q0 -114 -44.5 -199 t-126 -136t-187 -76t-234.5 -25q-106 0 -208 18t-172 44t-125 52t-81 44zM1153 156l186 290l22 -16.5t59.5 -37.5t94 -47t122 -37t145.5 -17q33 0 62.5 4.5t59 15t47 31.5t17.5 51q0 28 -26 54.5t-74.5 48.5t-85.5 36t-91 30t-59 18q-114 36 -190.5 73.5t-131 88t-79.5 115 t-25 149.5q0 213 151.5 330.5t411.5 117.5q84 0 172.5 -19t154 -46t119 -54t81.5 -46l28 -19l-176 -279q-105 72 -194.5 110t-184.5 38q-174 0 -174 -97q0 -17 8.5 -32t27.5 -28.5t37 -24t51 -23t55 -20t62.5 -20.5t61.5 -20q64 -21 108.5 -38.5t96.5 -41.5t86.5 -48.5 t68.5 -58.5t54 -72.5t32.5 -89t12.5 -109.5q0 -114 -44.5 -199t-126 -136t-187 -76t-234.5 -25q-106 0 -207.5 18t-171.5 44t-125 52t-81 44z" />
<glyph unicode="&#xe0;" d="M-31 0l422 1352l486 82l501 -1434h-407l-76 250h-453l-65 -250h-408zM274 1886h416l135 -315h-250zM524 553h279l-148 485z" />
<glyph unicode="&#xe1;" d="M-31 0l422 1352l486 82l501 -1434h-407l-76 250h-453l-65 -250h-408zM459 1571l135 315h416l-301 -315h-250zM524 553h279l-148 485z" />
<glyph unicode="&#xe2;" d="M-31 0l422 1352l486 82l501 -1434h-407l-76 250h-453l-65 -250h-408zM279 1571l176 315h436l176 -315h-260l-135 119l-133 -119h-260zM524 553h279l-148 485z" />
<glyph unicode="&#xe3;" d="M-31 0l422 1352l486 82l501 -1434h-407l-76 250h-453l-65 -250h-408zM270 1571q2 143 64.5 230t175.5 87q53 0 150 -40t137 -40q68 0 71 78h207q-2 -143 -64.5 -230t-174.5 -87q-63 0 -165.5 39t-127.5 39q-63 0 -66 -76h-207zM524 553h279l-148 485z" />
<glyph unicode="&#xe4;" d="M-31 0l422 1352l486 82l501 -1434h-407l-76 250h-453l-65 -250h-408zM328 1571v262l284 65v-327h-284zM524 553h279l-148 485zM735 1571v262l285 65v-327h-285z" />
<glyph unicode="&#xe5;" d="M-31 0l422 1352l486 82l501 -1434h-407l-76 250h-453l-65 -250h-408zM383 1792q0 121 84.5 203t206.5 82t206.5 -82t84.5 -203t-84.5 -202t-206.5 -81t-206.5 81t-84.5 202zM524 553h279l-148 485zM557 1792q0 -50 33.5 -83.5t83.5 -33.5t83.5 33.5t33.5 83.5t-34 84.5 t-83 34.5t-83 -34.5t-34 -84.5z" />
<glyph unicode="&#xe6;" horiz-adv-x="1910" d="M-31 0l826 1434h1065v-324h-547v-221h422l-74 -324h-348v-241h567v-324h-952v172h-441l-96 -172h-422zM659 475h269v475z" />
<glyph unicode="&#xe7;" horiz-adv-x="1273" d="M20 717q0 161 41.5 294.5t121 232.5t205 154.5t284.5 55.5q456 0 590 -414l-351 -137q-2 9 -6 23.5t-22 52t-42.5 66t-69 52t-99.5 23.5q-135 0 -196.5 -108t-61.5 -295q0 -63 5 -113t22.5 -107t47 -95t82.5 -63.5t125 -25.5q52 0 96.5 21t71.5 50.5t46 59.5t26 51l8 21 l320 -166q-2 -7 -7 -19t-25 -46.5t-44.5 -66.5t-68 -73t-93 -72t-122.5 -56t-154 -33l-41 -90q87 -3 142.5 -47t55.5 -119q0 -64 -35.5 -114t-90.5 -78t-113.5 -42t-112.5 -14q-62 0 -112 9t-69 19l-20 9l52 141q54 -20 124 -20q30 0 56.5 5.5t48.5 23t22 44.5q0 68 -127 68 l-69 -6l100 215q-257 36 -399 232t-142 497z" />
<glyph unicode="&#xe8;" horiz-adv-x="1044" d="M61 0v1434h932v-324h-547v-221h422l-73 -324h-349v-241h568v-324h-953zM164 1886h416l135 -315h-250z" />
<glyph unicode="&#xe9;" horiz-adv-x="1044" d="M61 0v1434h932v-324h-547v-221h422l-73 -324h-349v-241h568v-324h-953zM307 1571l135 315h416l-301 -315h-250z" />
<glyph unicode="&#xea;" horiz-adv-x="1044" d="M61 0v1434h932v-324h-547v-221h422l-73 -324h-349v-241h568v-324h-953zM127 1571l176 315h436l176 -315h-260l-135 119l-133 -119h-260z" />
<glyph unicode="&#xeb;" horiz-adv-x="1044" d="M61 0v1434h932v-324h-547v-221h422l-73 -324h-349v-241h568v-324h-953zM176 1571v262l285 65v-327h-285zM584 1571v262l284 65v-327h-284z" />
<glyph unicode="&#xec;" horiz-adv-x="503" d="M-104 1886h415l135 -315h-249zM61 0v1352l381 82v-1434h-381z" />
<glyph unicode="&#xed;" horiz-adv-x="503" d="M59 1571l136 315h415l-301 -315h-250zM61 0v1352l381 82v-1434h-381z" />
<glyph unicode="&#xee;" horiz-adv-x="503" d="M-141 1571l176 315h436l176 -315h-260l-135 119l-133 -119h-260zM61 0v1352l381 82v-1434h-381z" />
<glyph unicode="&#xef;" horiz-adv-x="503" d="M-94 1571v262l284 65v-327h-284zM61 0v1352l381 82v-1434h-381zM313 1571v262l285 65v-327h-285z" />
<glyph unicode="&#xf0;" horiz-adv-x="1351" d="M0 571v320h106v543h492q127 0 234 -23t200.5 -76t159 -134.5t102.5 -203t37 -276.5q0 -721 -733 -721h-492v571h-106zM492 324h94q193 0 272.5 87.5t79.5 309.5q0 196 -78.5 292.5t-261.5 96.5h-106v-219h186v-320h-186v-247z" />
<glyph unicode="&#xf1;" horiz-adv-x="1349" d="M61 0v1352l330 82l541 -762v762h356v-1434h-315l-555 815v-815h-357zM272 1571q2 143 64.5 230t175.5 87q53 0 150 -40t137 -40q68 0 71 78h207q-2 -143 -64.5 -230t-174.5 -87q-63 0 -165.5 39t-127.5 39q-63 0 -66 -76h-207z" />
<glyph unicode="&#xf2;" horiz-adv-x="1343" d="M20 715q0 350 178 544.5t474 194.5t473.5 -194.5t177.5 -544.5t-177.5 -542.5t-473.5 -192.5q-145 0 -264.5 48.5t-206 140t-134 231t-47.5 315.5zM293 1886h416l135 -315h-250zM414 715q0 -198 66.5 -300t191.5 -102t191.5 102t66.5 300q0 199 -66.5 302t-191.5 103 t-191.5 -103t-66.5 -302z" />
<glyph unicode="&#xf3;" horiz-adv-x="1343" d="M20 715q0 350 178 544.5t474 194.5t473.5 -194.5t177.5 -544.5t-177.5 -542.5t-473.5 -192.5q-145 0 -264.5 48.5t-206 140t-134 231t-47.5 315.5zM414 715q0 -198 66.5 -300t191.5 -102t191.5 102t66.5 300q0 199 -66.5 302t-191.5 103t-191.5 -103t-66.5 -302z M477 1571l135 315h416l-301 -315h-250z" />
<glyph unicode="&#xf4;" horiz-adv-x="1343" d="M20 715q0 350 178 544.5t474 194.5t473.5 -194.5t177.5 -544.5t-177.5 -542.5t-473.5 -192.5q-145 0 -264.5 48.5t-206 140t-134 231t-47.5 315.5zM276 1571l177 315h436l176 -315h-260l-135 119l-133 -119h-261zM414 715q0 -198 66.5 -300t191.5 -102t191.5 102 t66.5 300q0 199 -66.5 302t-191.5 103t-191.5 -103t-66.5 -302z" />
<glyph unicode="&#xf5;" horiz-adv-x="1343" d="M20 715q0 350 178 544.5t474 194.5t473.5 -194.5t177.5 -544.5t-177.5 -542.5t-473.5 -192.5q-145 0 -264.5 48.5t-206 140t-134 231t-47.5 315.5zM268 1571q2 143 64.5 230t175.5 87q53 0 150 -40t137 -40q68 0 71 78h207q-2 -143 -64.5 -230t-174.5 -87 q-63 0 -165.5 39t-127.5 39q-63 0 -66 -76h-207zM414 715q0 -198 66.5 -300t191.5 -102t191.5 102t66.5 300q0 199 -66.5 302t-191.5 103t-191.5 -103t-66.5 -302z" />
<glyph unicode="&#xf6;" horiz-adv-x="1343" d="M20 715q0 350 178 544.5t474 194.5t473.5 -194.5t177.5 -544.5t-177.5 -542.5t-473.5 -192.5q-145 0 -264.5 48.5t-206 140t-134 231t-47.5 315.5zM326 1571v262l284 65v-327h-284zM414 715q0 -198 66.5 -300t191.5 -102t191.5 102t66.5 300q0 199 -66.5 302t-191.5 103 t-191.5 -103t-66.5 -302zM733 1571v262l285 65v-327h-285z" />
<glyph unicode="&#xf8;" horiz-adv-x="1343" d="M20 715q0 350 178 544.5t474 194.5q84 0 176 -20l70 129l321 -172l-80 -150q164 -197 164 -526q0 -350 -177.5 -542.5t-473.5 -192.5q-88 0 -180 20l-70 -129l-322 176l80 146q-160 193 -160 522zM414 715q0 -198 66.5 -300t191.5 -102t191.5 102t66.5 300 q0 199 -66.5 302t-191.5 103t-191.5 -103t-66.5 -302z" />
<glyph unicode="&#xf9;" horiz-adv-x="1327" d="M51 604v748l381 82v-830q0 -291 232 -291q231 0 231 291v830h381v-830q0 -167 -45 -289.5t-129 -194.5t-192.5 -106t-245.5 -34t-246 34t-192.5 106t-129 194.5t-45.5 289.5zM326 1886h415l136 -315h-250z" />
<glyph unicode="&#xfa;" horiz-adv-x="1327" d="M51 604v748l381 82v-830q0 -291 232 -291q231 0 231 291v830h381v-830q0 -167 -45 -289.5t-129 -194.5t-192.5 -106t-245.5 -34t-246 34t-192.5 106t-129 194.5t-45.5 289.5zM449 1571l135 315h415l-301 -315h-249z" />
<glyph unicode="&#xfb;" horiz-adv-x="1327" d="M51 604v748l381 82v-830q0 -291 232 -291q231 0 231 291v830h381v-830q0 -167 -45 -289.5t-129 -194.5t-192.5 -106t-245.5 -34t-246 34t-192.5 106t-129 194.5t-45.5 289.5zM268 1571l176 315h437l176 -315h-260l-135 119l-134 -119h-260z" />
<glyph unicode="&#xfc;" horiz-adv-x="1327" d="M51 604v748l381 82v-830q0 -291 232 -291q231 0 231 291v830h381v-830q0 -167 -45 -289.5t-129 -194.5t-192.5 -106t-245.5 -34t-246 34t-192.5 106t-129 194.5t-45.5 289.5zM317 1571v262l285 65v-327h-285zM725 1571v262l285 65v-327h-285z" />
<glyph unicode="&#xfd;" d="M-31 1434h445l262 -568l264 568h438l-514 -910v-524h-385v524zM459 1571l135 315h416l-301 -315h-250z" />
<glyph unicode="&#xfe;" horiz-adv-x="1226" d="M61 0v1352l381 82v-226h205q101 0 186 -16.5t157 -53t121.5 -91t77.5 -133.5t28 -177q0 -104 -31.5 -187.5t-84.5 -139t-127 -92.5t-155 -53.5t-172 -16.5h-205v-248h-381zM442 561h193q188 0 188 166q0 76 -46 122t-142 46h-193v-334z" />
<glyph unicode="&#xff;" d="M-31 1434h445l262 -568l264 568h438l-514 -910v-524h-385v524zM328 1571v262l284 65v-327h-284zM735 1571v262l285 65v-327h-285z" />
<glyph unicode="&#x152;" horiz-adv-x="1923" d="M20 715q0 350 178 544.5t474 194.5q144 0 268 -51v31h932v-324h-547v-221h422l-74 -324h-348v-241h567v-324h-952v29q-126 -49 -268 -49q-145 0 -264.5 48.5t-206 140t-134 231t-47.5 315.5zM414 715q0 -198 66.5 -300t191.5 -102t191.5 102t66.5 300q0 199 -66.5 302 t-191.5 103t-191.5 -103t-66.5 -302z" />
<glyph unicode="&#x153;" horiz-adv-x="1923" d="M20 715q0 350 178 544.5t474 194.5q144 0 268 -51v31h932v-324h-547v-221h422l-74 -324h-348v-241h567v-324h-952v29q-126 -49 -268 -49q-145 0 -264.5 48.5t-206 140t-134 231t-47.5 315.5zM414 715q0 -198 66.5 -300t191.5 -102t191.5 102t66.5 300q0 199 -66.5 302 t-191.5 103t-191.5 -103t-66.5 -302z" />
<glyph unicode="&#x178;" d="M-31 1434h445l262 -568l264 568h438l-514 -910v-524h-385v524zM328 1571v262l284 65v-327h-284zM735 1571v262l285 65v-327h-285z" />
<glyph unicode="&#x2c6;" horiz-adv-x="819" d="M14 1571l176 315h437l176 -315h-260l-135 119l-134 -119h-260z" />
<glyph unicode="&#x2dc;" horiz-adv-x="819" d="M6 1571q2 143 64.5 230t175.5 87q53 0 149.5 -40t136.5 -40q33 0 51.5 20.5t20.5 57.5h207q-2 -143 -65 -230t-175 -87q-63 0 -165 39t-127 39q-63 0 -66 -76h-207z" />
<glyph unicode="&#x2000;" horiz-adv-x="1038" />
<glyph unicode="&#x2001;" horiz-adv-x="2077" />
<glyph unicode="&#x2002;" horiz-adv-x="1038" />
<glyph unicode="&#x2003;" horiz-adv-x="2077" />
<glyph unicode="&#x2004;" horiz-adv-x="692" />
<glyph unicode="&#x2005;" horiz-adv-x="519" />
<glyph unicode="&#x2006;" horiz-adv-x="346" />
<glyph unicode="&#x2007;" horiz-adv-x="346" />
<glyph unicode="&#x2008;" horiz-adv-x="259" />
<glyph unicode="&#x2009;" horiz-adv-x="415" />
<glyph unicode="&#x200a;" horiz-adv-x="115" />
<glyph unicode="&#x2010;" horiz-adv-x="710" d="M31 504v344h649v-344h-649z" />
<glyph unicode="&#x2011;" horiz-adv-x="710" d="M31 504v344h649v-344h-649z" />
<glyph unicode="&#x2012;" horiz-adv-x="710" d="M31 504v344h649v-344h-649z" />
<glyph unicode="&#x2013;" horiz-adv-x="1058" d="M41 524v303h977v-303h-977z" />
<glyph unicode="&#x2014;" horiz-adv-x="1529" d="M41 524v303h1448v-303h-1448z" />
<glyph unicode="&#x2018;" horiz-adv-x="462" d="M41 676v420q0 67 17 124.5t44.5 95.5t60.5 68.5t65.5 47.5t60 28t44.5 15l17 4l70 -127q-54 -15 -91.5 -37.5t-57 -43.5t-31 -53t-13.5 -52.5t-4 -55.5h199v-354z" />
<glyph unicode="&#x2019;" horiz-adv-x="462" d="M41 1044v355l381 80v-420q0 -67 -17 -124.5t-44.5 -95.5t-60 -68.5t-65.5 -47.5t-60.5 -28t-44.5 -15l-17 -4l-70 127q54 15 91.5 37.5t57 43.5t31 52.5t13.5 52t4 55.5h-199z" />
<glyph unicode="&#x201a;" horiz-adv-x="483" d="M51 0v354l381 80v-420q0 -67 -17 -124.5t-44.5 -95.5t-60 -68.5t-65.5 -47.5t-60.5 -28t-44.5 -15l-17 -4l-70 127q54 15 91.5 37.5t57 43.5t31 53t13.5 52.5t4 55.5h-199z" />
<glyph unicode="&#x201c;" horiz-adv-x="942" d="M41 676v420q0 67 17 124.5t44.5 95.5t60.5 68.5t65.5 47.5t60 28t44.5 15l17 4l70 -127q-54 -15 -91.5 -37.5t-57 -43.5t-31 -53t-13.5 -52.5t-4 -55.5h199v-354zM520 676v420q0 67 17 124.5t44.5 95.5t60 68.5t65.5 47.5t60.5 28t44.5 15l17 4l70 -127 q-54 -15 -91.5 -37.5t-57 -43.5t-31 -53t-13.5 -52.5t-4 -55.5h199v-354z" />
<glyph unicode="&#x201d;" horiz-adv-x="942" d="M41 1044v355l381 80v-420q0 -67 -17 -124.5t-44.5 -95.5t-60 -68.5t-65.5 -47.5t-60.5 -28t-44.5 -15l-17 -4l-70 127q54 15 91.5 37.5t57 43.5t31 52.5t13.5 52t4 55.5h-199zM520 1044v355l381 80v-420q0 -67 -17 -124.5t-44.5 -95.5t-60.5 -68.5t-65.5 -47.5t-60 -28 t-44.5 -15l-17 -4l-70 127q54 15 91.5 37.5t57 43.5t31 52.5t13.5 52t4 55.5h-199z" />
<glyph unicode="&#x201e;" horiz-adv-x="962" d="M51 0v354l381 80v-420q0 -67 -17 -124.5t-44.5 -95.5t-60 -68.5t-65.5 -47.5t-60.5 -28t-44.5 -15l-17 -4l-70 127q54 15 91.5 37.5t57 43.5t31 53t13.5 52.5t4 55.5h-199zM530 0v354l381 80v-420q0 -67 -17 -124.5t-44.5 -95.5t-60.5 -68.5t-65.5 -47.5t-60 -28 t-44.5 -15l-17 -4l-70 127q54 15 91.5 37.5t57 43.5t31 53t13.5 52.5t4 55.5h-199z" />
<glyph unicode="&#x2022;" horiz-adv-x="937" d="M143 717q0 135 95.5 230t230.5 95t230.5 -95t95.5 -230t-95.5 -230.5t-230.5 -95.5t-230.5 95.5t-95.5 230.5z" />
<glyph unicode="&#x2026;" horiz-adv-x="1490" d="M51 0v352l381 82v-434h-381zM555 0v352l381 82v-434h-381zM1059 0v352l381 82v-434h-381z" />
<glyph unicode="&#x202f;" horiz-adv-x="415" />
<glyph unicode="&#x2039;" horiz-adv-x="655" d="M10 516l197 424l428 92l-225 -516l225 -516h-385z" />
<glyph unicode="&#x203a;" horiz-adv-x="655" d="M20 0l226 516l-193 440l353 76l239 -516l-239 -516h-386z" />
<glyph unicode="&#x205f;" horiz-adv-x="519" />
<glyph unicode="&#x20ac;" horiz-adv-x="1349" d="M-10 485l37 185h69v88h-106l37 184h92q51 237 211.5 374.5t417.5 137.5q455 0 589 -414l-350 -137q-2 9 -6 23.5t-22 52t-42.5 66t-69 52t-99.5 23.5q-170 0 -230 -178h340l-37 -184h-332v-88h318l-37 -185h-250q61 -172 252 -172q52 0 96.5 21t71.5 50.5t46 59.5t26 51 l8 21l319 -166q-3 -8 -8.5 -21t-28 -51.5t-50.5 -73.5t-77.5 -78t-107 -73.5t-141.5 -51.5t-178 -21q-250 0 -411.5 134.5t-215.5 370.5h-131z" />
<glyph unicode="&#x2122;" horiz-adv-x="688" d="M20 1352v82h267v-82h-84v-242h-99v242h-84zM334 1110v305l88 21l78 -154l69 152h88v-324h-92v125l-67 -143l-72 145v-127h-92z" />
<glyph unicode="&#x25fc;" horiz-adv-x="1433" d="M0 0v1434h1434v-1434h-1434z" />
</font>
</defs>
</svg>
