<?xml version="1.0" standalone="no"?>
<!DOCTYPE svg PUBLIC "-//W3C//DTD SVG 1.1//EN" "http://www.w3.org/Graphics/SVG/1.1/DTD/svg11.dtd" >
<svg>
<metadata>
Created by FontForge 20110222 at Sat Oct 17 08:02:03 2015
 By www-data
.
</metadata>
<defs>
<font id="RideLife-PerformanceLT" horiz-adv-x="471" >
  <font-face 
    font-family="RideLife Performance LT"
    font-weight="400"
    font-style="italic"
    font-stretch="normal"
    units-per-em="1000"
    panose-1="0 0 5 0 0 0 0 0 0 0"
    ascent="800"
    descent="-200"
    x-height="555"
    cap-height="741"
    bbox="-118 -221 1241 946"
    underline-thickness="50"
    underline-position="-50"
    slope="-10"
    unicode-range="U+0020-FB02"
  />
<missing-glyph horiz-adv-x="180" 
 />
    <glyph glyph-name="f_f" unicode="ff" horiz-adv-x="597" 
d="M216 473l-111 -631h-94l111 631h-86l16 82h84l14 76c17 97 61 140 176 140h49l-15 -83h-38c-62 0 -73 -31 -82 -80l-10 -53h172l14 76c17 97 60 140 180 140c20 0 52 0 62 -1l-16 -82h-50c-66 0 -77 -31 -86 -80l-10 -53h124l-15 -82h-123l-111 -631h-94l111 631h-172z
" />
    <glyph glyph-name="f_f_i" unicode="ffi" horiz-adv-x="790" 
d="M216 473l-111 -631h-94l111 631h-86l16 82h84l14 76c17 97 61 140 176 140h49l-15 -83h-38c-62 0 -73 -31 -82 -80l-10 -53h172l14 76c17 97 61 140 175 140h50l-15 -83h-39c-61 0 -72 -31 -81 -80l-10 -53h108l-15 -82h-107l-111 -631h-94l111 631h-172zM795 736
l-21 -113h-94l20 113h95zM763 555l-99 -555h-94l98 555h95z" />
    <glyph glyph-name="f_f_l" unicode="ffl" horiz-adv-x="830" 
d="M216 473l-111 -631h-94l111 631h-86l16 82h84l14 76c17 97 61 140 176 140h49l-15 -83h-38c-62 0 -73 -31 -82 -80l-10 -53h172l14 76c17 97 61 140 175 140h50l-15 -83h-39c-61 0 -72 -31 -81 -80l-10 -53h108l-15 -82h-107l-111 -631h-94l111 631h-172zM699 -1
c-100 0 -123 40 -104 144l111 626h94l-111 -628c-8 -45 -8 -59 55 -59l-14 -82c-4 -1 -14 -1 -31 -1z" />
    <glyph glyph-name="fi" unicode="fi" horiz-adv-x="524" 
d="M136 555l14 76c17 97 61 140 176 140h49l-15 -83h-38c-62 0 -73 -31 -82 -80l-10 -53h108l-15 -82h-107l-111 -631h-94l111 631h-86l16 82h84zM529 736l-20 -113h-95l21 113h94zM497 555l-99 -555h-94l99 555h94z" />
    <glyph glyph-name="fl" unicode="fl" horiz-adv-x="564" 
d="M136 555l14 76c17 97 61 140 176 140h49l-15 -83h-38c-62 0 -73 -31 -82 -80l-10 -53h108l-15 -82h-107l-111 -631h-94l111 631h-86l16 82h84zM433 -1c-100 0 -123 40 -103 144l110 626h94l-111 -628c-8 -45 -8 -59 55 -59l-14 -82c-4 -1 -14 -1 -31 -1z" />
    <glyph glyph-name=".notdef" horiz-adv-x="180" 
 />
    <glyph glyph-name="A" unicode="A" horiz-adv-x="587" 
d="M405 746l95 -746h-99l-18 154h-258l-72 -154h-100l347 720zM333 596l-169 -354h210z" />
    <glyph glyph-name="Aacute" unicode="&#xc1;" horiz-adv-x="586" 
d="M543 945l-163 -162h-84l142 162h105zM405 746l95 -746h-99l-18 154h-258l-72 -154h-100l347 720zM333 596l-169 -354h210z" />
    <glyph glyph-name="Acircumflex" unicode="&#xc2;" horiz-adv-x="586" 
d="M437 945l82 -162h-75l-63 96l-95 -96h-78l140 162h89zM405 746l95 -746h-99l-18 154h-258l-72 -154h-100l348 720zM333 596l-169 -354h210z" />
    <glyph glyph-name="Adieresis" unicode="&#xc4;" horiz-adv-x="586" 
d="M336 888l-19 -105h-84l19 105h84zM514 888l-19 -105h-85l20 105h84zM405 746l95 -746h-99l-18 154h-258l-72 -154h-100l347 720zM333 596l-169 -354h210z" />
    <glyph glyph-name="Agrave" unicode="&#xc0;" horiz-adv-x="586" 
d="M342 945l83 -162h-79l-106 162h102zM405 746l95 -746h-99l-18 154h-258l-72 -154h-100l360 746h92zM333 596l-169 -354h210z" />
    <glyph glyph-name="Aring" unicode="&#xc5;" horiz-adv-x="586" 
d="M-47 0l342 709c-26 17 -36 45 -36 78c0 86 42 143 120 143c70 0 96 -41 96 -94c0 -61 -24 -108 -65 -129l90 -707h-99l-18 154h-258l-72 -154h-100zM311 792c0 -23 9 -42 35 -46h24c34 6 53 38 53 86c0 28 -12 48 -47 48c-41 0 -65 -35 -65 -88zM333 596l-169 -354h210z
" />
    <glyph glyph-name="Atilde" unicode="&#xc3;" horiz-adv-x="586" 
d="M254 779l-60 40c34 53 71 78 113 78c51 0 90 -39 123 -39c21 0 41 14 63 45l59 -39c-34 -57 -74 -83 -111 -83c-54 0 -91 40 -127 40c-23 0 -40 -13 -60 -42zM405 746l95 -746h-99l-18 154h-258l-72 -154h-100l360 746h92zM333 596l-169 -354h210z" />
    <glyph glyph-name="AE" unicode="&#xc6;" horiz-adv-x="862" 
d="M882 741l-17 -89h-300l-39 -226h284l-16 -87h-284l-45 -252h302l-14 -87h-397l27 158h-230l-104 -158h-101l488 741h446zM468 639l-262 -398h191z" />
    <glyph glyph-name="B" unicode="B" horiz-adv-x="559" 
d="M131 741h189c163 0 225 -49 225 -148c0 -18 -2 -35 -5 -52c-18 -101 -52 -137 -111 -159c50 -20 70 -59 70 -128c0 -20 -2 -42 -6 -63c-28 -149 -113 -191 -248 -191h-245zM170 425h150c61 0 106 16 120 107c2 15 4 28 4 40c0 63 -41 82 -133 82h-100zM111 83h147
c74 0 116 19 137 120c4 17 5 31 5 44c0 73 -41 92 -133 92h-111z" />
    <glyph glyph-name="C" unicode="C" horiz-adv-x="509" 
d="M250 -8c-172 0 -234 96 -234 240c0 49 7 103 17 161c40 226 116 356 317 356c84 0 145 -23 181 -49l-55 -83c-25 16 -66 38 -139 38c-118 0 -172 -77 -207 -274c-10 -55 -15 -103 -15 -144c0 -104 42 -158 147 -158c48 0 91 11 129 33l43 -74c-53 -31 -114 -46 -184 -46z
" />
    <glyph glyph-name="Ccedilla" unicode="&#xc7;" horiz-adv-x="509" 
d="M182 -221c-45 0 -85 10 -112 23l24 52c22 -10 52 -19 82 -19c38 0 58 12 58 52c0 28 -25 34 -69 32l-19 16l23 65c-111 27 -153 113 -153 232c0 49 7 103 17 161c40 226 116 356 317 356c84 0 145 -23 181 -49l-55 -83c-25 16 -66 38 -139 38c-118 0 -172 -77 -207 -274
c-10 -55 -15 -103 -15 -144c0 -104 42 -158 147 -158c48 0 91 11 129 33l43 -74c-53 -31 -114 -46 -184 -46c-10 0 -19 0 -27 1l-12 -36c53 1 86 -20 86 -70c0 -84 -43 -108 -115 -108z" />
    <glyph glyph-name="D" unicode="D" horiz-adv-x="588" 
d="M131 741h181c190 0 260 -80 260 -235c0 -48 -7 -103 -17 -161c-44 -251 -123 -345 -325 -345h-230zM112 85h130c131 0 180 74 215 270c10 52 16 99 16 140c0 105 -43 157 -166 157h-95z" />
    <glyph glyph-name="Eth" unicode="&#xd0;" horiz-adv-x="588" 
d="M74 421l57 320h181c190 0 260 -80 260 -235c0 -48 -7 -103 -17 -161c-44 -251 -123 -345 -325 -345h-230l60 341h-64l14 80h64zM112 85h130c131 0 180 74 215 270c10 52 16 99 16 140c0 105 -43 157 -166 157h-95l-41 -231h118l-15 -80h-117z" />
    <glyph glyph-name="E" unicode="E" horiz-adv-x="507" 
d="M527 741l-16 -89h-301l-39 -225h283l-16 -88h-284l-44 -252h302l-15 -87h-397l131 741h396z" />
    <glyph glyph-name="Eacute" unicode="&#xc9;" horiz-adv-x="507" 
d="M504 945l-163 -162h-84l142 162h105zM527 741l-16 -89h-301l-39 -225h283l-16 -88h-284l-44 -252h302l-15 -87h-397l131 741h396z" />
    <glyph glyph-name="Ecircumflex" unicode="&#xca;" horiz-adv-x="507" 
d="M398 945l82 -162h-75l-63 96l-95 -96h-78l140 162h89zM527 741l-16 -89h-301l-39 -225h283l-16 -88h-284l-44 -252h302l-15 -87h-397l131 741h396z" />
    <glyph glyph-name="Edieresis" unicode="&#xcb;" horiz-adv-x="507" 
d="M297 888l-19 -105h-84l19 105h84zM475 888l-19 -105h-85l20 105h84zM527 741l-16 -89h-301l-39 -225h283l-16 -88h-284l-44 -252h302l-15 -87h-397l131 741h396z" />
    <glyph glyph-name="Egrave" unicode="&#xc8;" horiz-adv-x="507" 
d="M303 945l83 -162h-79l-106 162h102zM527 741l-16 -89h-301l-39 -225h283l-16 -88h-284l-44 -252h302l-15 -87h-397l131 741h396z" />
    <glyph glyph-name="F" unicode="F" horiz-adv-x="487" 
d="M527 741l-16 -89h-300l-40 -231h282l-15 -88h-283l-58 -333h-97l131 741h396z" />
    <glyph glyph-name="G" unicode="G" horiz-adv-x="566" 
d="M247 -8c-170 0 -231 88 -231 241c0 46 6 100 17 160c48 274 145 356 317 356c109 0 165 -28 204 -57l-64 -78c-29 22 -71 42 -151 42c-106 0 -168 -56 -209 -276c-10 -57 -16 -110 -16 -147c0 -110 42 -158 144 -158c108 0 144 57 169 230l4 28h-166l15 85h263l-18 -105
c-44 -257 -104 -321 -278 -321z" />
    <glyph glyph-name="H" unicode="H" horiz-adv-x="618" 
d="M228 741l-55 -308h293l51 287l102 21l-131 -741h-98l59 338h-293l-59 -338h-97l127 720z" />
    <glyph glyph-name="I" unicode="I" horiz-adv-x="240" 
d="M234 741l-131 -741h-97l131 741h97z" />
    <glyph glyph-name="Iacute" unicode="&#xcd;" horiz-adv-x="240" 
d="M372 946l-140 -163h-83l117 163h106zM234 741l-131 -741h-97l131 741h97z" />
    <glyph glyph-name="Icircumflex" unicode="&#xce;" horiz-adv-x="240" 
d="M266 945l82 -162h-75l-63 96l-95 -96h-78l140 162h89zM234 741l-131 -741h-97l131 741h97z" />
    <glyph glyph-name="Idieresis" unicode="&#xcf;" horiz-adv-x="240" 
d="M165 888l-19 -105h-84l19 105h84zM343 888l-19 -105h-85l20 105h84zM234 741l-131 -741h-97l131 741h97z" />
    <glyph glyph-name="Igrave" unicode="&#xcc;" horiz-adv-x="240" 
d="M162 946l63 -163h-78l-87 163h102zM234 741l-131 -741h-97l131 741h97z" />
    <glyph glyph-name="J" unicode="J" horiz-adv-x="354" 
d="M-25 87h70c78 0 106 32 118 98l95 535l101 21l-102 -573c-23 -132 -93 -168 -202 -168h-96z" />
    <glyph glyph-name="K" unicode="K" horiz-adv-x="573" 
d="M228 741l-60 -340l320 340h117l-271 -284l150 -457h-102l-123 378l-119 -133l-43 -245h-97l131 741h97z" />
    <glyph glyph-name="L" unicode="L" horiz-adv-x="470" 
d="M228 741l-116 -654h290l-15 -87h-387l127 720z" />
    <glyph glyph-name="Lslash" unicode="&#x141;" horiz-adv-x="470" 
d="M73 417l58 324h97l-48 -271l133 67l-14 -80l-133 -67l-54 -303h290l-15 -87h-387l59 337l-70 -35l14 80z" />
    <glyph glyph-name="M" unicode="M" horiz-adv-x="729" 
d="M254 741l75 -571l277 571h123l-131 -741h-93l95 545l-265 -545h-74l-75 549l-95 -549h-91l127 720z" />
    <glyph glyph-name="N" unicode="N" horiz-adv-x="615" 
d="M235 741l191 -549l97 549h93l-131 -741h-90l-202 573l-102 -573h-91l127 720z" />
    <glyph glyph-name="Ntilde" unicode="&#xd1;" horiz-adv-x="615" 
d="M269 779l-60 40c34 53 71 78 113 78c51 0 90 -39 123 -39c21 0 41 14 63 45l59 -39c-34 -57 -74 -83 -111 -83c-54 0 -91 40 -127 40c-23 0 -40 -13 -60 -42zM235 741l191 -549l97 549h93l-131 -741h-90l-202 573l-102 -573h-91l127 720z" />
    <glyph glyph-name="O" unicode="O" horiz-adv-x="616" 
d="M262 -8c-192 0 -246 108 -246 244c0 51 7 103 17 157c35 205 104 356 317 356c196 0 250 -109 250 -247c0 -50 -7 -103 -16 -158c-37 -204 -103 -352 -322 -352zM267 79c148 0 189 107 219 273c9 51 16 99 16 142c0 95 -35 162 -152 162c-150 0 -191 -110 -220 -276
c-9 -51 -16 -100 -16 -141c0 -95 34 -160 153 -160z" />
    <glyph glyph-name="Oacute" unicode="&#xd3;" horiz-adv-x="616" 
d="M559 945l-163 -162h-84l142 162h105zM262 -8c-192 0 -246 108 -246 244c0 51 7 103 17 157c35 205 104 356 317 356c196 0 250 -109 250 -247c0 -50 -7 -103 -16 -158c-37 -204 -103 -352 -322 -352zM267 79c148 0 189 107 219 273c9 51 16 99 16 142
c0 95 -35 162 -152 162c-150 0 -191 -110 -220 -276c-9 -51 -16 -100 -16 -141c0 -95 34 -160 153 -160z" />
    <glyph glyph-name="Ocircumflex" unicode="&#xd4;" horiz-adv-x="616" 
d="M453 945l82 -162h-75l-63 96l-95 -96h-78l140 162h89zM262 -8c-192 0 -246 108 -246 244c0 51 7 103 17 157c35 205 104 356 317 356c196 0 250 -109 250 -247c0 -50 -7 -103 -16 -158c-37 -204 -103 -352 -322 -352zM267 79c148 0 189 107 219 273c9 51 16 99 16 142
c0 95 -35 162 -152 162c-150 0 -191 -110 -220 -276c-9 -51 -16 -100 -16 -141c0 -95 34 -160 153 -160z" />
    <glyph glyph-name="Odieresis" unicode="&#xd6;" horiz-adv-x="616" 
d="M352 888l-19 -105h-84l19 105h84zM530 888l-19 -105h-85l20 105h84zM262 -8c-192 0 -246 108 -246 244c0 51 7 103 17 157c35 205 104 356 317 356c196 0 250 -109 250 -247c0 -50 -7 -103 -16 -158c-37 -204 -103 -352 -322 -352zM267 79c148 0 189 107 219 273
c9 51 16 99 16 142c0 95 -35 162 -152 162c-150 0 -191 -110 -220 -276c-9 -51 -16 -100 -16 -141c0 -95 34 -160 153 -160z" />
    <glyph glyph-name="Ograve" unicode="&#xd2;" horiz-adv-x="616" 
d="M358 945l83 -162h-79l-106 162h102zM262 -8c-192 0 -246 108 -246 244c0 51 7 103 17 157c35 205 104 356 317 356c196 0 250 -109 250 -247c0 -50 -7 -103 -16 -158c-37 -204 -103 -352 -322 -352zM267 79c148 0 189 107 219 273c9 51 16 99 16 142
c0 95 -35 162 -152 162c-150 0 -191 -110 -220 -276c-9 -51 -16 -100 -16 -141c0 -95 34 -160 153 -160z" />
    <glyph glyph-name="Oslash" unicode="&#xd8;" horiz-adv-x="616" 
d="M262 -8c-49 0 -89 7 -121 19l-32 -52h-93l58 96c-43 44 -58 108 -58 181c0 51 7 103 17 157c35 205 104 356 317 356c50 0 92 -8 125 -21l34 55h93l-62 -97c44 -45 60 -111 60 -184c0 -50 -7 -103 -16 -158c-37 -204 -103 -352 -322 -352zM112 236c0 -37 5 -70 18 -97
l298 507c-21 9 -46 14 -78 14c-151 0 -193 -111 -222 -280c-9 -52 -16 -100 -16 -144zM266 74c151 0 192 108 222 277c9 52 15 102 15 145c0 39 -6 74 -21 101l-299 -508c22 -10 49 -15 83 -15z" />
    <glyph glyph-name="Otilde" unicode="&#xd5;" horiz-adv-x="616" 
d="M270 779l-60 40c34 53 71 78 113 78c51 0 90 -39 123 -39c21 0 41 14 63 45l59 -39c-34 -57 -74 -83 -111 -83c-54 0 -91 40 -127 40c-23 0 -40 -13 -60 -42zM262 -8c-192 0 -246 108 -246 244c0 51 7 103 17 157c35 205 104 356 317 356c196 0 250 -109 250 -247
c0 -50 -7 -103 -16 -158c-37 -204 -103 -352 -322 -352zM267 79c148 0 189 107 219 273c9 51 16 99 16 142c0 95 -35 162 -152 162c-150 0 -191 -110 -220 -276c-9 -51 -16 -100 -16 -141c0 -95 34 -160 153 -160z" />
    <glyph glyph-name="OE" unicode="&#x152;" horiz-adv-x="933" 
d="M252 -6c-181 0 -236 106 -236 243c0 50 7 102 17 156c36 205 103 354 318 354c99 0 159 -27 193 -74l12 68h386l-16 -89h-301l-39 -226h284l-16 -88h-284l-44 -250h303l-16 -88h-388l9 54c-45 -38 -105 -60 -182 -60zM266 79c150 0 190 107 219 273c9 51 16 99 16 141
c0 96 -33 163 -151 163c-149 0 -190 -110 -219 -276c-9 -51 -17 -100 -17 -141c0 -94 34 -160 152 -160z" />
    <glyph glyph-name="P" unicode="P" horiz-adv-x="559" 
d="M131 741h197c174 0 232 -69 232 -173c0 -21 -3 -46 -8 -71c-27 -140 -95 -216 -236 -216h-171l-49 -281h-96zM161 368h156c76 0 121 36 138 133c3 18 6 35 6 51c0 63 -35 100 -136 100h-114z" />
    <glyph glyph-name="Thorn" unicode="&#xde;" horiz-adv-x="546" 
d="M227 741l-23 -123h101c174 0 232 -59 232 -170c0 -23 -3 -48 -8 -74c-26 -152 -93 -210 -233 -210h-172l-28 -164h-96l131 741h96zM139 245h156c77 0 120 28 138 134c5 21 7 39 7 53c0 69 -39 101 -138 101h-112z" />
    <glyph glyph-name="Q" unicode="Q" horiz-adv-x="616" 
d="M350 749c196 0 250 -109 250 -247c0 -50 -7 -103 -16 -158c-28 -151 -71 -269 -180 -320l32 -68h-107l-20 43c-13 -1 -25 -2 -38 -2c-76 -1 -91 6 -91 6c-126 27 -164 119 -164 233c0 51 7 103 17 157c35 205 104 356 317 356zM486 352c9 51 16 99 16 142
c0 95 -35 162 -152 162c-150 0 -191 -110 -220 -276c-9 -51 -16 -100 -16 -141c0 -95 34 -160 153 -160h3l-45 94h108l34 -71c69 40 97 130 119 250z" />
    <glyph glyph-name="R" unicode="R" horiz-adv-x="568" 
d="M147 285l-51 -285h-96l131 741h199c175 0 226 -74 226 -175c0 -22 -2 -44 -6 -69c-19 -118 -76 -190 -180 -208l80 -289h-97l-78 285h-128zM162 373h154c76 0 121 33 138 128c3 17 4 35 4 49c0 63 -30 103 -131 103h-116z" />
    <glyph glyph-name="S" unicode="S" horiz-adv-x="528" 
d="M220 -8c-116 0 -198 33 -248 68l54 75c33 -23 100 -60 195 -60c90 0 143 45 143 132c0 66 -44 95 -134 141c-92 47 -148 97 -148 184c0 149 102 217 235 217c95 0 159 -22 200 -46l-47 -82c-32 19 -86 38 -157 38c-86 0 -134 -44 -134 -118c0 -54 31 -78 110 -120
c111 -59 172 -103 172 -202c0 -156 -100 -227 -241 -227z" />
    <glyph glyph-name="Scaron" unicode="&#x160;" horiz-adv-x="527" 
d="M285 945l61 -97l96 97h78l-141 -162h-87l-83 162h76zM220 -8c-116 0 -198 33 -248 68l54 75c33 -23 100 -60 195 -60c90 0 143 45 143 132c0 66 -44 95 -134 141c-92 47 -148 97 -148 184c0 149 102 217 235 217c95 0 159 -22 200 -46l-47 -82c-32 19 -86 38 -157 38
c-86 0 -134 -44 -134 -118c0 -54 31 -78 110 -120c111 -59 172 -103 172 -202c0 -156 -100 -227 -241 -227z" />
    <glyph glyph-name="T" unicode="T" horiz-adv-x="536" 
d="M67 652l15 89h502l-15 -89h-202l-116 -652h-97l115 652h-202z" />
    <glyph glyph-name="U" unicode="U" horiz-adv-x="614" 
d="M272 -10c-176 0 -238 71 -238 187c0 26 3 54 8 83l85 481h98l-86 -480c-4 -25 -6 -46 -6 -67c0 -71 32 -115 142 -115c107 0 143 56 163 172l88 490h94l-89 -505c-28 -166 -96 -246 -259 -246z" />
    <glyph glyph-name="Uacute" unicode="&#xda;" horiz-adv-x="613" 
d="M557 945l-163 -162h-84l142 162h105zM272 -10c-176 0 -238 71 -238 187c0 26 3 54 8 83l85 481h98l-86 -480c-4 -25 -6 -46 -6 -67c0 -71 32 -115 142 -115c107 0 143 56 163 172l88 490h94l-89 -505c-28 -166 -96 -246 -259 -246z" />
    <glyph glyph-name="Ucircumflex" unicode="&#xdb;" horiz-adv-x="613" 
d="M451 945l82 -162h-75l-63 96l-95 -96h-78l140 162h89zM272 -10c-176 0 -238 71 -238 187c0 26 3 54 8 83l85 481h98l-86 -480c-4 -25 -6 -46 -6 -67c0 -71 32 -115 142 -115c107 0 143 56 163 172l88 490h94l-89 -505c-28 -166 -96 -246 -259 -246z" />
    <glyph glyph-name="Udieresis" unicode="&#xdc;" horiz-adv-x="613" 
d="M350 888l-19 -105h-84l19 105h84zM528 888l-19 -105h-85l20 105h84zM272 -10c-176 0 -238 71 -238 187c0 26 3 54 8 83l85 481h98l-86 -480c-4 -25 -6 -46 -6 -67c0 -71 32 -115 142 -115c107 0 143 56 163 172l88 490h94l-89 -505c-28 -166 -96 -246 -259 -246z" />
    <glyph glyph-name="Ugrave" unicode="&#xd9;" horiz-adv-x="613" 
d="M356 945l83 -162h-79l-106 162h102zM272 -10c-176 0 -238 71 -238 187c0 26 3 54 8 83l85 481h98l-86 -480c-4 -25 -6 -46 -6 -67c0 -71 32 -115 142 -115c107 0 143 56 163 172l88 490h94l-89 -505c-28 -166 -96 -246 -259 -246z" />
    <glyph glyph-name="V" unicode="V" horiz-adv-x="582" 
d="M185 741l68 -588l273 588h102l-357 -746h-93l-93 746h100z" />
    <glyph glyph-name="W" unicode="W" horiz-adv-x="849" 
d="M193 741l25 -542l219 521l101 21l34 -543l220 543h97l-307 -746h-88l-37 559l-233 -559h-90l-41 746h100z" />
    <glyph glyph-name="X" unicode="X" horiz-adv-x="572" 
d="M64 0h-105l277 395l-125 346h101l95 -264l180 264h106l-252 -359l139 -382h-100l-110 301z" />
    <glyph glyph-name="Y" unicode="Y" horiz-adv-x="558" 
d="M74 741h102l103 -364l233 364h103l-306 -471l-47 -270h-97l48 271z" />
    <glyph glyph-name="Yacute" unicode="&#xdd;" horiz-adv-x="558" 
d="M530 945l-163 -162h-84l142 162h105zM74 741h102l103 -364l233 364h103l-306 -471l-47 -270h-97l48 271z" />
    <glyph glyph-name="Ydieresis" unicode="&#x178;" horiz-adv-x="558" 
d="M323 888l-19 -105h-84l19 105h84zM501 888l-19 -105h-85l20 105h84zM74 741h102l103 -364l233 364h103l-306 -471l-47 -270h-97l48 271z" />
    <glyph glyph-name="Z" unicode="Z" horiz-adv-x="520" 
d="M409 652h-314l16 89h432l-14 -80l-429 -574h336l-15 -87h-455l12 75z" />
    <glyph glyph-name="Zcaron" unicode="&#x17d;" horiz-adv-x="520" 
d="M281 945l61 -97l96 97h78l-141 -162h-87l-83 162h76zM409 652h-314l16 89h432l-14 -80l-429 -574h336l-15 -87h-455l12 75z" />
    <glyph glyph-name="a" unicode="a" horiz-adv-x="498" 
d="M148 -6c-110 0 -156 47 -156 135c0 188 97 242 265 242h72c11 65 8 109 -84 109c-43 0 -90 -6 -123 -20l-28 78c47 20 107 28 164 28c172 0 184 -77 159 -212l-37 -218c-7 -43 -7 -54 34 -54l-14 -82c-10 -1 -21 -1 -30 -1c-52 0 -71 16 -72 49c-35 -38 -95 -54 -150 -54
zM173 73c52 0 107 22 126 123l16 97h-54c-121 0 -177 -25 -177 -145c0 -54 30 -75 89 -75z" />
    <glyph glyph-name="aacute" unicode="&#xe1;" horiz-adv-x="498" 
d="M469 775l-163 -162h-84l142 162h105zM148 -6c-110 0 -156 47 -156 135c0 188 97 242 265 242h72c11 65 8 109 -84 109c-43 0 -90 -6 -123 -20l-28 78c47 20 107 28 164 28c172 0 184 -77 159 -212l-37 -218c-7 -43 -7 -54 34 -54l-14 -82c-10 -1 -21 -1 -30 -1
c-52 0 -71 16 -72 49c-35 -38 -95 -54 -150 -54zM173 73c52 0 107 22 126 123l16 97h-54c-121 0 -177 -25 -177 -145c0 -54 30 -75 89 -75z" />
    <glyph glyph-name="acircumflex" unicode="&#xe2;" horiz-adv-x="498" 
d="M363 775l82 -162h-75l-63 96l-95 -96h-78l140 162h89zM148 -6c-110 0 -156 47 -156 135c0 188 97 242 265 242h72c11 65 8 109 -84 109c-43 0 -90 -6 -123 -20l-28 78c47 20 107 28 164 28c172 0 184 -77 159 -212l-37 -218c-7 -43 -7 -54 34 -54l-14 -82
c-10 -1 -21 -1 -30 -1c-52 0 -71 16 -72 49c-35 -38 -95 -54 -150 -54zM173 73c52 0 107 22 126 123l16 97h-54c-121 0 -177 -25 -177 -145c0 -54 30 -75 89 -75z" />
    <glyph glyph-name="adieresis" unicode="&#xe4;" horiz-adv-x="498" 
d="M262 718l-19 -105h-84l19 105h84zM440 718l-19 -105h-85l20 105h84zM148 -6c-110 0 -156 47 -156 135c0 188 97 242 265 242h72c11 65 8 109 -84 109c-43 0 -90 -6 -123 -20l-28 78c47 20 107 28 164 28c172 0 184 -77 159 -212l-37 -218c-7 -43 -7 -54 34 -54l-14 -82
c-10 -1 -21 -1 -30 -1c-52 0 -71 16 -72 49c-35 -38 -95 -54 -150 -54zM173 73c52 0 107 22 126 123l16 97h-54c-121 0 -177 -25 -177 -145c0 -54 30 -75 89 -75z" />
    <glyph glyph-name="agrave" unicode="&#xe0;" horiz-adv-x="498" 
d="M268 775l83 -162h-79l-106 162h102zM148 -6c-110 0 -156 47 -156 135c0 188 97 242 265 242h72c11 65 8 109 -84 109c-43 0 -90 -6 -123 -20l-28 78c47 20 107 28 164 28c172 0 184 -77 159 -212l-37 -218c-7 -43 -7 -54 34 -54l-14 -82c-10 -1 -21 -1 -30 -1
c-52 0 -71 16 -72 49c-35 -38 -95 -54 -150 -54zM173 73c52 0 107 22 126 123l16 97h-54c-121 0 -177 -25 -177 -145c0 -54 30 -75 89 -75z" />
    <glyph glyph-name="aring" unicode="&#xe5;" horiz-adv-x="498" 
d="M298 606c-71 0 -96 41 -96 92c0 86 42 143 120 143c70 0 96 -41 96 -94c0 -84 -45 -141 -120 -141zM301 656c42 0 65 34 65 87c0 28 -12 48 -47 48c-41 0 -65 -35 -65 -88c0 -26 13 -47 47 -47zM148 -6c-110 0 -156 47 -156 135c0 188 97 242 265 242h72
c11 65 8 109 -84 109c-43 0 -90 -6 -123 -20l-28 78c47 20 107 28 164 28c172 0 184 -77 159 -212l-37 -218c-7 -43 -7 -54 34 -54l-14 -82c-10 -1 -21 -1 -30 -1c-52 0 -71 16 -72 49c-35 -38 -95 -54 -150 -54zM173 73c52 0 107 22 126 123l16 97h-54
c-121 0 -177 -25 -177 -145c0 -54 30 -75 89 -75z" />
    <glyph glyph-name="atilde" unicode="&#xe3;" horiz-adv-x="498" 
d="M180 609l-60 40c34 53 71 78 113 78c51 0 90 -39 123 -39c21 0 41 14 63 45l59 -39c-34 -57 -74 -83 -111 -83c-54 0 -91 40 -127 40c-23 0 -40 -13 -60 -42zM148 -6c-110 0 -156 47 -156 135c0 188 97 242 265 242h72c11 65 8 109 -84 109c-43 0 -90 -6 -123 -20l-28 78
c47 20 107 28 164 28c172 0 184 -77 159 -212l-37 -218c-7 -43 -7 -54 34 -54l-14 -82c-10 -1 -21 -1 -30 -1c-52 0 -71 16 -72 49c-35 -38 -95 -54 -150 -54zM173 73c52 0 107 22 126 123l16 97h-54c-121 0 -177 -25 -177 -145c0 -54 30 -75 89 -75z" />
    <glyph glyph-name="ae" unicode="&#xe6;" horiz-adv-x="762" 
d="M497 -7c-97 0 -147 29 -170 79c-49 -60 -101 -78 -179 -78c-110 0 -156 47 -156 135c0 188 99 242 264 242h73c11 65 8 109 -84 109c-43 0 -90 -6 -123 -20l-28 78c47 20 107 28 164 28c86 0 129 -20 148 -56c35 36 82 55 147 55c137 0 174 -59 174 -148
c0 -48 -12 -119 -24 -181h-309c-2 -20 -3 -39 -3 -54c0 -67 26 -107 116 -107c52 0 88 9 124 24l27 -74c-47 -23 -102 -32 -161 -32zM547 482c-89 0 -118 -61 -139 -163h223c6 32 10 60 10 84c0 48 -19 79 -94 79zM173 73c52 0 107 22 126 123l16 97h-54
c-120 0 -177 -25 -177 -145c0 -54 30 -75 89 -75z" />
    <glyph glyph-name="b" unicode="b" horiz-adv-x="516" 
d="M122 741l98 28l-44 -254c31 32 76 50 145 50c124 0 158 -75 158 -173c0 -41 -6 -88 -14 -132c-26 -149 -71 -267 -212 -267c-104 0 -147 26 -165 64l-28 -61l-69 7zM235 75c89 0 114 71 135 190c8 39 12 75 12 106c0 63 -22 106 -95 106c-108 0 -132 -73 -153 -190
c-7 -35 -11 -69 -11 -100c0 -67 23 -112 112 -112z" />
    <glyph glyph-name="c" unicode="c" horiz-adv-x="408" 
d="M196 -8c-143 0 -190 74 -190 186c0 36 5 75 13 120c30 175 89 267 241 267c74 0 116 -16 147 -34l-53 -77c-21 14 -50 23 -95 23c-89 0 -122 -63 -146 -192c-6 -37 -10 -71 -10 -99c0 -71 27 -112 108 -112c31 0 58 5 91 18l25 -75c-48 -20 -90 -25 -131 -25z" />
    <glyph glyph-name="ccedilla" unicode="&#xe7;" horiz-adv-x="408" 
d="M134 -221c-45 0 -85 10 -112 23l24 52c22 -10 52 -19 82 -19c38 0 58 12 58 52c0 28 -25 34 -69 32l-19 16l23 65c-85 23 -115 88 -115 178c0 36 5 75 13 120c30 175 89 267 241 267c74 0 116 -16 147 -34l-53 -77c-21 14 -50 23 -95 23c-89 0 -122 -63 -146 -192
c-6 -37 -10 -71 -10 -99c0 -71 27 -112 108 -112c31 0 58 5 91 18l25 -75c-48 -20 -90 -25 -131 -25c-8 0 -14 0 -21 1l-12 -36c53 1 86 -20 86 -70c0 -84 -43 -108 -115 -108z" />
    <glyph glyph-name="d" unicode="d" horiz-adv-x="516" 
d="M163 -8c-124 0 -158 76 -158 175c0 41 6 87 14 132c26 149 71 266 213 266c96 0 139 -26 158 -64l47 268h94l-135 -765l-76 -7l4 50c-34 -35 -85 -55 -161 -55zM198 75c106 0 131 74 152 191c6 36 11 69 11 100c0 66 -24 112 -112 112c-89 0 -114 -71 -135 -189
c-7 -40 -12 -76 -12 -107c0 -63 22 -107 96 -107z" />
    <glyph glyph-name="eth" unicode="&#xf0;" horiz-adv-x="503" 
d="M265 665l67 16c-12 19 -25 37 -40 51l77 45c20 -20 38 -45 53 -74l112 28l-13 -71l-73 -19c16 -51 25 -111 25 -176c0 -57 -7 -122 -20 -192c-30 -172 -77 -281 -243 -281c-153 0 -204 79 -204 190c0 36 5 74 10 111c26 146 85 249 227 249c83 0 121 -23 138 -53
c0 44 -7 89 -21 130l-108 -27zM213 74c99 0 124 79 142 184c6 32 11 64 11 92c0 65 -23 111 -109 111c-102 0 -127 -79 -146 -184c-5 -32 -9 -63 -9 -91c0 -65 23 -112 111 -112z" />
    <glyph glyph-name="e" unicode="e" horiz-adv-x="468" 
d="M204 -7c-152 0 -197 73 -197 183c0 37 4 78 12 122c30 172 94 267 239 267c139 0 176 -59 176 -148c0 -48 -13 -120 -25 -181h-308c-2 -20 -3 -38 -3 -53c0 -68 25 -108 115 -108c50 0 88 10 125 23l25 -76c-49 -20 -101 -29 -159 -29zM253 481c-88 0 -117 -59 -138 -161
h218c6 31 11 59 11 83c0 48 -16 78 -91 78z" />
    <glyph glyph-name="eacute" unicode="&#xe9;" horiz-adv-x="467" 
d="M455 775l-163 -162h-84l142 162h105zM204 -7c-152 0 -197 73 -197 183c0 37 4 78 12 122c30 172 94 267 239 267c139 0 176 -59 176 -148c0 -48 -13 -120 -25 -181h-308c-2 -20 -3 -38 -3 -53c0 -68 25 -108 115 -108c50 0 88 10 125 23l25 -76
c-49 -20 -101 -29 -159 -29zM253 481c-88 0 -117 -59 -138 -161h218c6 31 11 59 11 83c0 48 -16 78 -91 78z" />
    <glyph glyph-name="ecircumflex" unicode="&#xea;" horiz-adv-x="467" 
d="M349 775l82 -162h-75l-63 96l-95 -96h-78l140 162h89zM204 -7c-152 0 -197 73 -197 183c0 37 4 78 12 122c30 172 94 267 239 267c139 0 176 -59 176 -148c0 -48 -13 -120 -25 -181h-308c-2 -20 -3 -38 -3 -53c0 -68 25 -108 115 -108c50 0 88 10 125 23l25 -76
c-49 -20 -101 -29 -159 -29zM253 481c-88 0 -117 -59 -138 -161h218c6 31 11 59 11 83c0 48 -16 78 -91 78z" />
    <glyph glyph-name="edieresis" unicode="&#xeb;" horiz-adv-x="467" 
d="M248 718l-19 -105h-84l19 105h84zM426 718l-19 -105h-85l20 105h84zM204 -7c-152 0 -197 73 -197 183c0 37 4 78 12 122c30 172 94 267 239 267c139 0 176 -59 176 -148c0 -48 -13 -120 -25 -181h-308c-2 -20 -3 -38 -3 -53c0 -68 25 -108 115 -108c50 0 88 10 125 23
l25 -76c-49 -20 -101 -29 -159 -29zM253 481c-88 0 -117 -59 -138 -161h218c6 31 11 59 11 83c0 48 -16 78 -91 78z" />
    <glyph glyph-name="egrave" unicode="&#xe8;" horiz-adv-x="467" 
d="M254 775l83 -162h-79l-106 162h102zM204 -7c-152 0 -197 73 -197 183c0 37 4 78 12 122c30 172 94 267 239 267c139 0 176 -59 176 -148c0 -48 -13 -120 -25 -181h-308c-2 -20 -3 -38 -3 -53c0 -68 25 -108 115 -108c50 0 88 10 125 23l25 -76c-49 -20 -101 -29 -159 -29
zM253 481c-88 0 -117 -59 -138 -161h218c6 31 11 59 11 83c0 48 -16 78 -91 78z" />
    <glyph glyph-name="f" unicode="f" horiz-adv-x="331" 
d="M136 555l14 76c17 97 60 140 181 140c19 0 51 0 61 -1l-16 -82h-50c-66 0 -77 -31 -86 -80l-10 -53h125l-16 -82h-123l-111 -631h-94l111 631h-86l16 82h84z" />
    <glyph glyph-name="g" unicode="g" horiz-adv-x="486" 
d="M225 199c-32 0 -60 3 -84 9c-9 -11 -14 -23 -14 -36c0 -23 13 -34 59 -35c164 -3 211 -34 211 -128c0 -133 -90 -176 -234 -176c-156 0 -221 40 -221 117c0 79 51 132 130 148c-19 14 -28 33 -28 62c0 28 14 56 38 79c-27 23 -41 57 -41 104c0 179 105 222 205 222
c19 0 37 -1 54 -2l188 35l-13 -83h-93c31 -21 48 -58 48 -108c0 -174 -108 -208 -205 -208zM224 276c60 0 113 24 113 129c0 48 -25 78 -89 78c-58 0 -115 -25 -115 -132c0 -49 29 -75 91 -75zM169 -94c97 0 130 27 130 95c0 49 -36 63 -134 63c-99 0 -126 -45 -126 -94
c0 -41 32 -64 130 -64z" />
    <glyph glyph-name="h" unicode="h" horiz-adv-x="508" 
d="M219 769l-46 -257c28 29 74 53 140 53c161 0 157 -103 137 -214l-62 -351h-93l59 339c16 89 17 137 -82 137c-89 0 -115 -60 -136 -175l-52 -301h-94l131 741z" />
    <glyph glyph-name="i" unicode="i" horiz-adv-x="213" 
d="M219 736l-21 -113h-94l19 103zM187 555l-99 -555h-93l98 555h94z" />
    <glyph glyph-name="dotlessi" unicode="&#x131;" horiz-adv-x="213" 
d="M187 555l-99 -555h-93l98 555h94z" />
    <glyph glyph-name="iacute" unicode="&#xed;" horiz-adv-x="213" 
d="M320 775l-133 -162h-82l109 162h106zM187 555l-99 -555h-93l98 555h94z" />
    <glyph glyph-name="icircumflex" unicode="&#xee;" horiz-adv-x="213" 
d="M222 775l67 -162h-70l-52 96l-86 -96h-74l127 162h88zM187 555l-99 -555h-93l98 555h94z" />
    <glyph glyph-name="idieresis" unicode="&#xef;" horiz-adv-x="213" 
d="M124 718l-19 -105h-76l19 105h76zM287 718l-18 -105h-76l19 105h75zM187 555l-99 -555h-93l98 555h94z" />
    <glyph glyph-name="igrave" unicode="&#xec;" horiz-adv-x="213" 
d="M135 775l45 -162h-79l-68 162h102zM187 555l-99 -555h-93l98 555h94z" />
    <glyph glyph-name="j" unicode="j" horiz-adv-x="213" 
d="M219 736l-21 -113h-94l19 103zM-77 -81h9c43 0 51 14 59 64l102 572h94l-104 -585c-18 -102 -50 -128 -155 -128h-18z" />
    <glyph glyph-name="k" unicode="k" horiz-adv-x="452" 
d="M220 769l-82 -464l215 250h106l-201 -235l119 -320h-97l-93 248l-75 -87l-28 -161h-93l136 769h93z" />
    <glyph glyph-name="l" unicode="l" horiz-adv-x="254" 
d="M168 82l-15 -82c-3 -1 -12 -1 -30 -1c-100 0 -123 40 -104 144l107 598l98 28l-111 -628c-8 -45 -9 -59 55 -59z" />
    <glyph glyph-name="lslash" unicode="&#x142;" horiz-adv-x="314" 
d="M126 518l45 251h93l-35 -197l97 51l-14 -83l-98 -51l-61 -348c-8 -45 -9 -59 55 -59l-15 -82c-3 -1 -12 -1 -30 -1c-100 0 -123 37 -106 135l54 301l-87 -45l14 82z" />
    <glyph glyph-name="m" unicode="m" horiz-adv-x="783" 
d="M163 556l-3 -47c28 32 77 56 149 56c76 0 112 -17 127 -63c31 38 86 63 167 63c157 0 152 -103 132 -214l-61 -351h-94l60 339c16 89 19 137 -77 137c-86 0 -112 -60 -132 -175l-52 -301h-94l60 339c16 89 19 137 -77 137c-86 0 -111 -60 -131 -175l-53 -301h-93l96 550z
" />
    <glyph glyph-name="n" unicode="n" horiz-adv-x="508" 
d="M163 556l-3 -47c28 32 80 56 154 56c160 0 157 -103 137 -214l-62 -351h-94l60 339c16 89 17 137 -82 137c-89 0 -116 -60 -136 -175l-53 -301h-93l96 550z" />
    <glyph glyph-name="ntilde" unicode="&#xf1;" horiz-adv-x="508" 
d="M185 609l-60 40c34 53 71 78 113 78c51 0 90 -39 123 -39c21 0 41 14 63 45l59 -39c-34 -57 -74 -83 -111 -83c-54 0 -91 40 -127 40c-23 0 -40 -13 -60 -42zM163 556l-3 -47c28 32 80 56 154 56c160 0 157 -103 137 -214l-62 -351h-94l60 339c16 89 17 137 -82 137
c-89 0 -116 -60 -136 -175l-53 -301h-93l96 550z" />
    <glyph glyph-name="o" unicode="o" horiz-adv-x="502" 
d="M201 -8c-147 0 -194 81 -194 193c0 34 5 72 12 112c28 163 89 268 251 268c148 0 193 -79 193 -190c0 -37 -5 -76 -12 -116c-29 -167 -84 -267 -250 -267zM208 74c102 0 128 76 148 193c7 38 12 71 12 101c0 64 -23 109 -105 109c-104 0 -131 -82 -150 -191
c-7 -36 -10 -70 -10 -98c0 -66 23 -114 105 -114z" />
    <glyph glyph-name="oacute" unicode="&#xf3;" horiz-adv-x="502" 
d="M470 775l-163 -162h-84l142 162h105zM201 -8c-147 0 -194 81 -194 193c0 34 5 72 12 112c28 163 89 268 251 268c148 0 193 -79 193 -190c0 -37 -5 -76 -12 -116c-29 -167 -84 -267 -250 -267zM208 74c102 0 128 76 148 193c7 38 12 71 12 101c0 64 -23 109 -105 109
c-104 0 -131 -82 -150 -191c-7 -36 -10 -70 -10 -98c0 -66 23 -114 105 -114z" />
    <glyph glyph-name="ocircumflex" unicode="&#xf4;" horiz-adv-x="502" 
d="M364 775l82 -162h-75l-63 96l-95 -96h-78l140 162h89zM201 -8c-147 0 -194 81 -194 193c0 34 5 72 12 112c28 163 89 268 251 268c148 0 193 -79 193 -190c0 -37 -5 -76 -12 -116c-29 -167 -84 -267 -250 -267zM208 74c102 0 128 76 148 193c7 38 12 71 12 101
c0 64 -23 109 -105 109c-104 0 -131 -82 -150 -191c-7 -36 -10 -70 -10 -98c0 -66 23 -114 105 -114z" />
    <glyph glyph-name="odieresis" unicode="&#xf6;" horiz-adv-x="502" 
d="M263 718l-19 -105h-84l19 105h84zM441 718l-19 -105h-85l20 105h84zM201 -8c-147 0 -194 81 -194 193c0 34 5 72 12 112c28 163 89 268 251 268c148 0 193 -79 193 -190c0 -37 -5 -76 -12 -116c-29 -167 -84 -267 -250 -267zM208 74c102 0 128 76 148 193
c7 38 12 71 12 101c0 64 -23 109 -105 109c-104 0 -131 -82 -150 -191c-7 -36 -10 -70 -10 -98c0 -66 23 -114 105 -114z" />
    <glyph glyph-name="ograve" unicode="&#xf2;" horiz-adv-x="502" 
d="M269 775l83 -162h-79l-106 162h102zM201 -8c-147 0 -194 81 -194 193c0 34 5 72 12 112c28 163 89 268 251 268c148 0 193 -79 193 -190c0 -37 -5 -76 -12 -116c-29 -167 -84 -267 -250 -267zM208 74c102 0 128 76 148 193c7 38 12 71 12 101c0 64 -23 109 -105 109
c-104 0 -131 -82 -150 -191c-7 -36 -10 -70 -10 -98c0 -66 23 -114 105 -114z" />
    <glyph glyph-name="oslash" unicode="&#xf8;" horiz-adv-x="502" 
d="M201 -8c-41 0 -73 7 -100 17l-34 -52h-85l63 93c-27 34 -38 81 -38 135c0 34 5 72 12 112c28 163 89 268 251 268c40 0 73 -6 99 -17l34 50h86l-62 -92c26 -33 36 -79 36 -131c0 -37 -5 -76 -12 -116c-29 -167 -84 -267 -250 -267zM101 187c0 -19 1 -36 6 -51l215 333
c-15 7 -35 11 -59 11c-104 0 -132 -83 -152 -194c-5 -37 -10 -71 -10 -99zM208 72c104 0 129 77 150 195c8 38 13 72 13 103c0 17 -2 34 -6 48l-217 -334c15 -8 35 -12 60 -12z" />
    <glyph glyph-name="otilde" unicode="&#xf5;" horiz-adv-x="502" 
d="M181 609l-60 40c34 53 71 78 113 78c51 0 90 -39 123 -39c21 0 41 14 63 45l59 -39c-34 -57 -74 -83 -111 -83c-54 0 -91 40 -127 40c-23 0 -40 -13 -60 -42zM201 -8c-147 0 -194 81 -194 193c0 34 5 72 12 112c28 163 89 268 251 268c148 0 193 -79 193 -190
c0 -37 -5 -76 -12 -116c-29 -167 -84 -267 -250 -267zM208 74c102 0 128 76 148 193c7 38 12 71 12 101c0 64 -23 109 -105 109c-104 0 -131 -82 -150 -191c-7 -36 -10 -70 -10 -98c0 -66 23 -114 105 -114z" />
    <glyph glyph-name="oe" unicode="&#x153;" horiz-adv-x="806" 
d="M542 -7c-95 0 -144 28 -168 76c-34 -50 -87 -77 -173 -77c-147 0 -194 81 -194 193c0 34 5 72 12 112c28 163 89 268 251 268c91 0 138 -30 161 -79c36 52 88 79 166 79c138 0 176 -59 176 -148c0 -48 -13 -119 -24 -181h-310c-2 -20 -3 -39 -3 -54
c0 -67 27 -108 117 -108c51 0 87 9 123 24l26 -73c-47 -23 -101 -32 -160 -32zM592 482c-89 0 -118 -61 -139 -163h222c5 32 10 60 10 84c0 48 -18 79 -93 79zM208 74c102 0 128 76 148 193c7 38 12 71 12 101c0 64 -23 109 -105 109c-104 0 -131 -82 -150 -191
c-7 -36 -10 -70 -10 -98c0 -66 23 -114 105 -114z" />
    <glyph glyph-name="p" unicode="p" horiz-adv-x="516" 
d="M163 556l-2 -45c34 35 84 54 160 54c124 0 158 -75 158 -173c0 -41 -6 -88 -14 -132c-26 -149 -71 -267 -212 -267c-98 0 -140 26 -159 64l-37 -215h-93l123 708zM235 75c89 0 114 71 135 190c7 39 12 75 12 106c0 63 -22 106 -95 106c-108 0 -131 -73 -153 -190
c-7 -35 -11 -69 -11 -100c0 -67 23 -112 112 -112z" />
    <glyph glyph-name="thorn" unicode="&#xfe;" horiz-adv-x="516" 
d="M220 769l-44 -254c31 30 70 50 145 50c124 0 158 -75 158 -173c0 -41 -6 -88 -14 -132c-26 -149 -71 -267 -212 -267c-98 0 -140 26 -159 64l-37 -215h-93l163 927h93zM235 75c89 0 114 71 135 190c8 39 12 75 12 106c0 63 -22 106 -95 106c-108 0 -132 -73 -153 -190
c-7 -35 -11 -69 -11 -100c0 -67 23 -112 112 -112z" />
    <glyph glyph-name="q" unicode="q" horiz-adv-x="516" 
d="M274 -158l35 201c-35 -33 -76 -51 -146 -51c-124 0 -158 76 -158 175c0 41 6 87 14 132c26 149 71 266 213 266c104 0 143 -25 164 -64l28 61l69 -6l-126 -714h-93zM198 75c106 0 132 74 152 191c6 36 11 69 11 100c0 66 -24 112 -112 112c-89 0 -114 -71 -135 -189
c-7 -40 -12 -76 -12 -107c0 -63 22 -107 96 -107z" />
    <glyph glyph-name="r" unicode="r" horiz-adv-x="298" 
d="M163 556l-4 -55c28 34 77 59 162 59l-15 -88c-134 0 -153 -82 -169 -178l-53 -294h-93l96 550z" />
    <glyph glyph-name="s" unicode="s" horiz-adv-x="393" 
d="M153 -7c-94 0 -151 24 -195 50l49 72c32 -21 77 -44 148 -44c47 0 87 20 87 83c0 42 -24 60 -90 98c-70 40 -115 79 -115 147c0 124 90 166 182 166c76 0 126 -17 160 -37l-48 -74c-26 15 -62 29 -119 29c-53 0 -83 -26 -83 -79c0 -36 36 -59 87 -89
c74 -42 116 -82 116 -156c0 -128 -91 -166 -179 -166z" />
    <glyph glyph-name="scaron" unicode="&#x161;" horiz-adv-x="393" 
d="M190 775l61 -97l96 97h78l-141 -162h-87l-83 162h76zM153 -7c-94 0 -151 24 -195 50l49 72c32 -21 77 -44 148 -44c47 0 87 20 87 83c0 42 -24 60 -90 98c-70 40 -115 79 -115 147c0 124 90 166 182 166c76 0 126 -17 160 -37l-48 -74c-26 15 -62 29 -119 29
c-53 0 -83 -26 -83 -79c0 -36 36 -59 87 -89c74 -42 116 -82 116 -156c0 -128 -91 -166 -179 -166z" />
    <glyph glyph-name="germandbls" unicode="&#xdf;" horiz-adv-x="520" 
d="M-36 -158l130 746c21 125 87 187 213 187c134 0 186 -53 186 -150c0 -19 -3 -40 -6 -61c-18 -99 -37 -145 -90 -164c55 -20 70 -64 70 -137c0 -23 -2 -47 -6 -73c-27 -151 -90 -190 -231 -190h-78l15 85h61c91 -1 124 31 142 126c3 18 5 34 5 48c0 64 -33 95 -123 95h-13
l14 80h32c59 0 92 24 108 115c3 19 5 36 5 50c0 60 -28 86 -97 86c-66 0 -103 -33 -117 -115l-128 -728h-92z" />
    <glyph glyph-name="t" unicode="t" horiz-adv-x="360" 
d="M138 555l27 147l93 17l-29 -164h126l-15 -82h-126l-55 -316c-9 -49 -6 -75 56 -75h57l-15 -82c-14 -2 -54 -3 -65 -3c-125 0 -145 54 -125 163l53 313h-84l16 82h86z" />
    <glyph glyph-name="u" unicode="u" horiz-adv-x="496" 
d="M201 -8c-182 0 -200 85 -175 230l59 333h94l-59 -334c-14 -84 -20 -145 85 -145c86 0 101 38 117 128l61 351h93l-63 -359c-26 -146 -67 -204 -212 -204z" />
    <glyph glyph-name="uacute" unicode="&#xfa;" horiz-adv-x="496" 
d="M468 775l-163 -162h-84l142 162h105zM201 -8c-182 0 -200 85 -175 230l59 333h94l-59 -334c-14 -84 -20 -145 85 -145c86 0 101 38 117 128l61 351h93l-63 -359c-26 -146 -67 -204 -212 -204z" />
    <glyph glyph-name="ucircumflex" unicode="&#xfb;" horiz-adv-x="496" 
d="M362 775l82 -162h-75l-63 96l-95 -96h-78l140 162h89zM201 -8c-182 0 -200 85 -175 230l59 333h94l-59 -334c-14 -84 -20 -145 85 -145c86 0 101 38 117 128l61 351h93l-63 -359c-26 -146 -67 -204 -212 -204z" />
    <glyph glyph-name="udieresis" unicode="&#xfc;" horiz-adv-x="496" 
d="M261 718l-19 -105h-84l19 105h84zM439 718l-19 -105h-85l20 105h84zM201 -8c-182 0 -200 85 -175 230l59 333h94l-59 -334c-14 -84 -20 -145 85 -145c86 0 101 38 117 128l61 351h93l-63 -359c-26 -146 -67 -204 -212 -204z" />
    <glyph glyph-name="ugrave" unicode="&#xf9;" horiz-adv-x="496" 
d="M267 775l83 -162h-79l-106 162h102zM201 -8c-182 0 -200 85 -175 230l59 333h94l-59 -334c-14 -84 -20 -145 85 -145c86 0 101 38 117 128l61 351h93l-63 -359c-26 -146 -67 -204 -212 -204z" />
    <glyph glyph-name="v" unicode="v" horiz-adv-x="450" 
d="M137 555l46 -419l194 419h97l-266 -559h-100l-67 559h96z" />
    <glyph glyph-name="w" unicode="w" horiz-adv-x="702" 
d="M143 555l28 -395l163 371l99 24l31 -387l166 387h93l-242 -559h-93l-32 383l-168 -383h-100l-43 559h98z" />
    <glyph glyph-name="x" unicode="x" horiz-adv-x="444" 
d="M46 0h-101l212 295l-98 260h97l69 -183l128 183h99l-194 -271l108 -284h-97l-78 207z" />
    <glyph glyph-name="y" unicode="y" horiz-adv-x="436" 
d="M-15 -81h44c32 0 43 9 56 36l22 47l-67 553h98l42 -411l185 411h95l-297 -623c-37 -77 -73 -90 -134 -90h-57z" />
    <glyph glyph-name="yacute" unicode="&#xfd;" horiz-adv-x="436" 
d="M440 775l-163 -162h-84l142 162h105zM-15 -81h44c32 0 43 9 56 36l22 47l-67 553h98l42 -411l185 411h95l-297 -623c-37 -77 -73 -90 -134 -90h-57z" />
    <glyph glyph-name="ydieresis" unicode="&#xff;" horiz-adv-x="436" 
d="M233 718l-19 -105h-84l19 105h84zM411 718l-19 -105h-85l20 105h84zM-15 -81h44c32 0 43 9 56 36l22 47l-67 553h98l42 -411l185 411h95l-297 -623c-37 -77 -73 -90 -134 -90h-57z" />
    <glyph glyph-name="z" unicode="z" horiz-adv-x="398" 
d="M271 473h-218l15 82h334l-11 -65l-308 -413h243l-14 -77h-357l11 65z" />
    <glyph glyph-name="zcaron" unicode="&#x17e;" horiz-adv-x="398" 
d="M192 775l61 -97l96 97h78l-141 -162h-87l-83 162h76zM271 473h-218l15 82h334l-11 -65l-308 -413h243l-14 -77h-357l11 65z" />
    <glyph glyph-name="uni0066006A" horiz-adv-x="524" 
d="M136 555l14 76c17 97 61 140 176 140h49l-15 -83h-38c-62 0 -73 -31 -82 -80l-10 -53h108l-15 -82h-107l-111 -631h-94l111 631h-86l16 82h84zM529 736l-20 -113h-95l21 113h94zM233 -81h8c43 0 52 14 61 64l101 572h94l-104 -585c-18 -102 -49 -128 -155 -128h-18z" />
    <glyph glyph-name="ordfeminine" unicode="&#xaa;" horiz-adv-x="440" 
d="M175 286c-84 0 -122 36 -122 108c0 153 80 191 214 191h57c9 57 11 93 -63 93c-36 0 -74 -5 -101 -17l-25 66c40 16 88 22 134 22c139 0 150 -62 130 -172l-31 -176c-6 -35 -5 -42 28 -42l-12 -69c-8 0 -15 -1 -23 -1c-49 0 -64 16 -66 49c-28 -40 -72 -52 -120 -52z
M201 351c41 0 85 16 98 98l14 76h-40c-99 0 -142 -19 -142 -116c0 -43 22 -58 70 -58zM343 213l-11 -70h-310l12 70h309z" />
    <glyph glyph-name="ordmasculine" unicode="&#xba;" horiz-adv-x="440" 
d="M217 284c-119 0 -156 64 -156 156c0 28 3 58 8 91c25 133 73 218 204 218c121 0 157 -65 157 -154c0 -30 -3 -62 -10 -95c-23 -134 -68 -216 -203 -216zM223 353c82 0 102 62 117 154c7 31 10 58 10 82c0 50 -17 86 -83 86c-78 0 -103 -61 -119 -154
c-5 -29 -8 -56 -8 -78c0 -52 18 -90 83 -90zM352 213l-12 -70h-321l13 70h320z" />
    <glyph glyph-name="Delta" unicode="&#x394;" horiz-adv-x="524" 
d="M136 555l14 76c17 97 61 140 176 140h49l-15 -83h-38c-62 0 -73 -31 -82 -80l-10 -53h108l-15 -82h-107l-111 -631h-94l111 631h-86l16 82h84zM529 736l-20 -113h-95l21 113h94zM233 -81h8c43 0 52 14 61 64l101 572h94l-104 -585c-18 -102 -49 -128 -155 -128h-18z" />
    <glyph glyph-name="Omega" unicode="&#x3a9;" horiz-adv-x="832" 
d="M416 749c-94 0 -179 -36 -244 -95l-7 8c67 61 155 97 251 97s185 -37 252 -97l-7 -8c-65 59 -151 95 -245 95zM617 605l-7 -8c-51 47 -119 75 -194 75c-74 0 -142 -28 -194 -74l-7 7c54 48 124 77 201 77s147 -29 201 -77zM698 615l8 7c56 -67 90 -155 90 -251
c0 -95 -34 -183 -90 -251l-8 7c55 66 88 151 88 244s-33 178 -88 244zM133 615c-54 -66 -87 -151 -87 -244s33 -178 88 -244l-8 -7c-56 67 -90 155 -90 251c0 95 34 183 90 250c0 0 3 -2 7 -6zM263 553l-7 7c43 38 99 61 160 61c62 0 118 -23 161 -61c-2 -3 -5 -6 -7 -8
c-41 37 -95 59 -154 59s-112 -22 -153 -58zM544 523c1 0 -6 -7 -6 -7c-33 29 -76 46 -122 46s-89 -17 -121 -46l-7 8c34 30 79 48 128 48s94 -18 128 -49zM182 571l8 -7c-43 -52 -69 -120 -69 -193c0 -74 26 -142 69 -194l-7 -7c-45 55 -72 124 -72 201c0 76 27 146 71 200z
M721 371c0 -76 -27 -146 -72 -200l-7 6c43 53 69 120 69 194s-26 141 -70 193l8 7c45 -54 72 -124 72 -200zM320 487l-7 8c28 24 64 38 103 38s75 -15 102 -39l-6 -7c-26 23 -59 36 -96 36c-36 0 -70 -14 -96 -36zM235 218c-2 -3 -5 -5 -7 -7c-35 43 -57 99 -57 160
s21 116 56 160c3 -2 5 -5 8 -7c-33 -41 -54 -95 -54 -153s20 -112 54 -153zM596 524l8 7c36 -43 57 -99 57 -160s-21 -117 -57 -160c0 0 -3 2 -8 7c35 42 55 95 55 153s-20 112 -55 153zM498 472l-7 -8c-20 17 -46 28 -75 28c-28 0 -54 -10 -75 -28l-7 7c22 19 51 31 82 31
s60 -11 82 -30zM219 371c0 48 17 93 45 128c3 -2 5 -5 8 -7c-27 -33 -43 -75 -43 -121s16 -88 43 -121c-3 -2 -5 -5 -8 -7c-28 35 -45 79 -45 128zM560 492l8 7c28 -35 45 -79 45 -128s-17 -93 -45 -128c-2 2 -5 5 -8 7c27 33 43 75 43 121s-16 88 -43 121zM416 477
c25 0 48 -9 66 -24l-8 -8c-16 14 -36 22 -58 22s-42 -8 -58 -22c-4 3 -7 7 -8 8c18 15 41 24 66 24zM292 269c-22 28 -35 64 -35 102c0 39 13 74 36 102l7 -7c-20 -26 -33 -59 -33 -95s13 -69 33 -95c-2 -2 -5 -5 -8 -7zM531 466l8 7c23 -28 36 -63 36 -102
s-13 -74 -35 -102c-3 2 -5 5 -8 7c20 26 33 59 33 95s-13 69 -34 95zM468 438c-4 -4 -7 -8 -7 -8c-12 11 -28 17 -45 17s-33 -6 -45 -17l-7 8c14 12 33 19 52 19c20 0 38 -7 52 -19zM544 371c0 -31 -10 -59 -28 -81l-7 7c15 20 25 46 25 74s-10 54 -26 75l8 7
c18 -23 28 -51 28 -82zM316 289c-18 23 -28 51 -28 82s10 59 28 81c2 -2 5 -4 7 -7c-15 -20 -25 -46 -25 -74s10 -54 26 -75c-3 -2 -5 -5 -8 -7zM384 416l-7 7c11 9 24 14 39 14c14 0 27 -5 38 -14c-2 -2 -4 -4 -6 -7c-9 8 -20 12 -32 12s-23 -5 -32 -12zM313 371
c0 24 8 47 21 65c3 -2 6 -5 8 -7c-12 -16 -19 -36 -19 -58c0 -21 7 -41 19 -57l-8 -8c-13 18 -21 40 -21 65zM519 371c0 -24 -8 -46 -21 -65c-3 2 -6 5 -8 7c12 16 19 36 19 58s-7 42 -19 58l7 7c14 -18 22 -41 22 -65zM333 371c0 19 6 37 16 51c3 -2 5 -5 8 -7
c-9 -13 -14 -28 -14 -44s5 -31 14 -44c-3 -2 -5 -4 -8 -7c-10 14 -16 32 -16 51zM475 415l7 7c11 -14 17 -32 17 -51s-6 -37 -17 -52c-2 3 -4 5 -7 7c9 13 14 29 14 45c0 17 -5 32 -14 44zM416 410c-8 0 -15 -2 -21 -7l-5 6c7 6 16 9 26 9s19 -3 26 -9c-3 -3 -5 -6 -5 -6
c-6 4 -13 7 -21 7zM352 371c0 14 4 27 12 38c2 -3 5 -5 7 -7c-5 -9 -9 -20 -9 -31s4 -22 9 -31l-7 -7c-8 11 -12 24 -12 38zM480 371c0 -14 -4 -27 -12 -38c-3 3 -5 5 -8 7c6 9 10 20 10 31s-4 22 -10 31l8 7c8 -11 12 -24 12 -38zM378 396l6 -5c-3 -6 -5 -13 -5 -20
s2 -14 5 -20l-6 -5c-4 7 -7 16 -7 25s3 18 7 25zM448 391l6 5c4 -7 7 -16 7 -25s-3 -18 -7 -25l-6 5c3 6 5 13 5 20s-2 14 -5 20zM416 324c-10 0 -19 3 -27 9c2 1 6 6 6 6c6 -4 13 -7 21 -7s15 2 21 7l5 -6c-7 -6 -16 -9 -26 -9zM448 326l7 -7c-11 -9 -25 -14 -39 -14
c-15 0 -28 5 -40 14l7 7c10 -7 21 -12 33 -12s23 5 32 12zM461 312l7 -8c-14 -12 -32 -19 -52 -19s-38 7 -53 19l7 8c13 -10 29 -17 46 -17s32 6 45 17zM481 289c-18 -15 -40 -24 -65 -24s-48 9 -66 24l7 8c16 -14 37 -22 59 -22s42 8 58 22c2 -3 5 -5 7 -8zM491 278l7 -7
c-22 -19 -50 -31 -82 -31s-61 11 -83 30l7 8c21 -17 48 -28 76 -28c29 0 55 11 75 28zM518 247c-27 -23 -63 -38 -102 -38s-75 15 -103 38l7 8c26 -22 60 -36 96 -36s70 14 96 36c2 -2 4 -5 6 -8zM287 219l7 7c33 -29 75 -46 122 -46c46 0 89 17 121 46c2 -3 5 -5 7 -8
c-34 -30 -79 -48 -128 -48s-94 19 -129 49zM576 182c-42 -38 -98 -61 -160 -61s-118 23 -161 61l7 8c41 -37 95 -59 154 -59s113 22 153 59c2 -3 5 -5 7 -8zM616 136c-53 -47 -123 -76 -200 -76c-78 0 -148 29 -201 77c0 0 7 8 7 7c52 -46 120 -74 194 -74s142 28 193 74
c2 -3 5 -5 7 -8zM660 87c0 1 7 -7 7 -7c-67 -61 -155 -97 -251 -97s-185 37 -252 97l7 8c65 -59 151 -95 245 -95s179 36 244 94z" />
    <glyph glyph-name="mu" unicode="&#x3bc;" horiz-adv-x="499" 
d="M183 555l-59 -334c-15 -84 -21 -145 84 -145c87 0 101 38 117 128l62 351h92l-63 -359c-26 -146 -66 -204 -211 -204c-61 0 -97 17 -114 46l-34 -196h-93l124 713h95z" />
    <glyph glyph-name="pi" unicode="&#x3c0;" horiz-adv-x="667" 
d="M335 -10c-232 0 -294 158 -294 380c0 223 62 382 294 382c231 0 294 -159 294 -382c0 -222 -63 -380 -294 -380zM335 30c200 0 253 141 253 340c0 201 -53 342 -253 342s-251 -141 -251 -342c0 -199 51 -340 251 -340zM201 615h166c110 0 146 -47 146 -150
c0 -101 -36 -151 -147 -151h-102v-195h-63v496zM264 366h101c62 0 86 26 86 96c0 72 -24 97 -86 97h-101v-193z" />
    <glyph glyph-name="zero" unicode="0" horiz-adv-x="578" 
d="M245 -8c-157 0 -210 74 -210 210c0 53 9 116 22 188c45 254 102 359 278 359c156 0 206 -77 206 -211c0 -53 -8 -116 -21 -189c-45 -258 -102 -357 -275 -357zM251 79c98 0 135 68 173 281c13 68 19 124 19 167c0 91 -30 131 -112 131c-106 0 -141 -70 -177 -278
c-11 -62 -20 -127 -20 -168c0 -91 32 -133 117 -133z" />
    <glyph glyph-name="one" unicode="1" horiz-adv-x="311" 
d="M73 655l15 86h202l-131 -741h-93l115 655h-108z" />
    <glyph glyph-name="two" unicode="2" horiz-adv-x="482" 
d="M-18 76l200 203c160 163 184 207 184 298c0 53 -26 83 -108 83c-38 0 -85 -9 -126 -27l-36 80c50 23 110 36 181 36c138 0 185 -57 185 -165c0 -121 -66 -209 -214 -358l-142 -143h275l-15 -83h-396z" />
    <glyph glyph-name="three" unicode="3" horiz-adv-x="482" 
d="M179 -8c-97 0 -156 26 -204 56l51 76c40 -24 85 -46 156 -46c75 0 115 27 133 138c3 19 5 36 5 51c0 56 -27 87 -130 87h-67l15 83h100c79 0 103 31 116 105c4 15 4 29 4 41c0 59 -31 77 -103 77c-39 0 -82 -8 -126 -28l-37 77c49 24 117 40 184 40
c121 0 181 -36 181 -138c0 -18 -2 -38 -6 -57c-15 -86 -34 -140 -102 -160c53 -21 65 -60 65 -124c0 -23 -4 -46 -8 -72c-30 -165 -107 -206 -227 -206z" />
    <glyph glyph-name="four" unicode="4" horiz-adv-x="533" 
d="M361 741h98l-345 -494h186l59 228h69l-41 -228h100l-15 -79h-99l-29 -168h-87l28 168h-286l14 75z" />
    <glyph glyph-name="five" unicode="5" horiz-adv-x="501" 
d="M204 -8c-119 0 -180 28 -225 56l51 76c38 -23 83 -46 172 -46c76 0 120 21 142 154c4 26 7 49 7 68c0 78 -37 101 -117 101c-38 0 -73 -12 -102 -31l-70 21l81 350h349l-17 -86h-265l-43 -187c25 11 54 18 107 18c119 0 173 -47 173 -172c0 -27 -3 -56 -8 -90
c-36 -209 -122 -232 -235 -232z" />
    <glyph glyph-name="six" unicode="6" horiz-adv-x="546" 
d="M246 -8c-170 0 -219 73 -219 188c0 43 6 91 15 144c52 296 91 417 373 417h71l-16 -86h-58c-184 0 -214 -59 -252 -205c38 40 94 49 157 49c139 0 176 -66 176 -159c0 -30 -4 -62 -10 -98c-31 -176 -92 -250 -237 -250zM242 75c94 0 126 55 147 176c6 27 8 51 8 71
c0 62 -28 97 -106 97c-80 0 -139 -31 -159 -144c-6 -33 -9 -63 -9 -89c0 -72 29 -111 119 -111z" />
    <glyph glyph-name="seven" unicode="7" horiz-adv-x="430" 
d="M70 655l15 86h396l-14 -74l-331 -667h-105l332 655h-293z" />
    <glyph glyph-name="eight" unicode="8" horiz-adv-x="549" 
d="M235 -8c-178 0 -221 74 -221 165c0 116 30 222 146 256c-47 24 -58 69 -58 119c0 121 48 217 215 217c160 0 200 -69 200 -147c0 -98 -29 -171 -112 -199c61 -24 75 -78 75 -139c0 -153 -57 -272 -245 -272zM298 442c88 0 123 53 123 144c0 50 -24 83 -105 83
c-88 0 -123 -54 -123 -145c0 -49 24 -82 105 -82zM237 71c108 0 148 79 148 193c0 60 -26 98 -121 98c-117 0 -152 -82 -152 -188c0 -60 27 -103 125 -103z" />
    <glyph glyph-name="nine" unicode="9" horiz-adv-x="546" 
d="M75 83h58c184 0 216 62 252 206c-39 -40 -95 -49 -157 -49c-138 0 -175 68 -176 161c0 30 3 62 10 98c30 176 92 250 238 250c170 0 219 -73 219 -188c0 -43 -6 -91 -16 -144c-51 -296 -91 -417 -373 -417h-70zM255 319c80 0 138 31 158 144c6 33 9 63 9 89
c0 72 -28 111 -118 111c-95 0 -126 -54 -148 -175c-4 -26 -7 -51 -7 -72c0 -63 27 -97 106 -97z" />
    <glyph glyph-name="fraction" unicode="&#x2044;" horiz-adv-x="417" 
d="M479 741l-456 -741h-85l456 741h85z" />
    <glyph glyph-name="onehalf" unicode="&#xbd;" horiz-adv-x="808" 
d="M634 741l-456 -741h-85l455 741h86zM106 672l13 69h145l-81 -460h-78l68 391h-67zM430 59l125 123c101 101 113 121 113 172c0 30 -20 41 -66 41c-23 0 -57 -5 -83 -16l-21 63c34 15 78 23 122 23c91 0 126 -35 126 -93c0 -77 -14 -107 -137 -229l-81 -80h169l-12 -63
h-265z" />
    <glyph glyph-name="onequarter" unicode="&#xbc;" horiz-adv-x="759" 
d="M634 741l-456 -741h-85l455 741h86zM106 672l13 69h145l-81 -460h-78l68 391h-67zM589 460h78l-214 -305h103l36 123h56l-23 -123h62l-11 -62h-62l-16 -93h-69l16 93h-183l11 59z" />
    <glyph glyph-name="threequarters" unicode="&#xbe;" horiz-adv-x="833" 
d="M182 276c-70 0 -112 17 -142 37l42 59c23 -16 51 -30 98 -30c63 0 85 36 85 101c0 39 -16 50 -78 50h-52l11 67h62c63 -1 80 25 80 76c0 34 -18 42 -65 42c-23 0 -55 -3 -84 -14l-22 61c34 15 85 21 124 21c81 0 124 -21 124 -89c0 -54 -16 -113 -66 -129
c29 -12 41 -34 41 -79c0 -105 -44 -173 -158 -173zM707 741l-457 -741h-85l457 741h85zM662 460h79l-214 -305h103l35 123h57l-23 -123h62l-11 -62h-62l-16 -93h-71l17 93h-182l12 59z" />
    <glyph glyph-name="onesuperior" unicode="&#xb9;" horiz-adv-x="274" 
d="M99 672l13 69h145l-81 -460h-78l68 391h-67z" />
    <glyph glyph-name="twosuperior" unicode="&#xb2;" horiz-adv-x="378" 
d="M49 340l124 124c101 101 114 120 114 171c0 30 -20 42 -67 42c-23 0 -56 -5 -82 -16l-21 62c34 15 77 23 121 23c92 0 127 -35 127 -93c0 -77 -15 -106 -138 -229l-80 -80h169l-12 -63h-265z" />
    <glyph glyph-name="threesuperior" unicode="&#xb3;" horiz-adv-x="376" 
d="M180 276c-70 0 -112 17 -142 37l42 59c23 -16 51 -30 98 -30c63 0 85 36 85 101c0 39 -16 50 -78 50h-52l11 67h62c63 -1 80 25 80 76c0 34 -18 42 -65 42c-23 0 -55 -3 -84 -14l-22 61c34 15 85 21 124 21c81 0 124 -21 124 -89c0 -54 -16 -113 -66 -129
c29 -12 41 -34 41 -79c0 -105 -44 -173 -158 -173z" />
    <glyph glyph-name="asterisk" unicode="*" horiz-adv-x="481" 
d="M221 470l-137 -63l-28 74l147 50l-122 99l52 59l109 -107l19 163l75 -14l-36 -160l139 65l29 -73l-151 -52l124 -99l-51 -59l-110 108l-20 -163l-76 13z" />
    <glyph glyph-name="backslash" unicode="\" horiz-adv-x="426" 
d="M158 741l201 -741h-91l-201 741h91z" />
    <glyph glyph-name="bullet" unicode="&#x2022;" horiz-adv-x="297" 
d="M223 392l-31 -176h-142l28 166z" />
    <glyph glyph-name="colon" unicode=":" horiz-adv-x="232" 
d="M205 555l-22 -123h-113l22 123h113zM129 124l-22 -124h-113l22 124h113z" />
    <glyph glyph-name="comma" unicode="," horiz-adv-x="216" 
d="M-10 -119l-18 49c51 26 59 33 66 70h-52l22 126h113l-20 -118c-13 -65 -28 -94 -111 -127z" />
    <glyph glyph-name="ellipsis" unicode="&#x2026;" horiz-adv-x="617" 
d="M121 126l-21 -126h-114l22 126h113zM322 126l-22 -126h-113l22 126h113zM522 126l-23 -126h-112l23 126h112z" />
    <glyph glyph-name="exclam" unicode="!" horiz-adv-x="306" 
d="M271 741l-104 -530h-84l85 530h103zM166 125l-22 -125h-112l21 125h113z" />
    <glyph glyph-name="exclamdown" unicode="&#xa1;" horiz-adv-x="307" 
d="M276 741l-22 -125h-113l22 125h113zM224 531l-84 -531h-104l103 531h85z" />
    <glyph glyph-name="numbersign" unicode="#" horiz-adv-x="593" 
d="M31 219l15 87h93l20 118h-94l16 86h93l42 231h90l-41 -231h106l41 231h91l-42 -231h102l-15 -86h-102l-21 -118h103l-16 -87h-102l-38 -219h-91l39 219h-106l-39 -219h-90l39 219h-93zM366 432h-123l-23 -133h122z" />
    <glyph glyph-name="period" unicode="." horiz-adv-x="216" 
d="M121 126l-21 -126h-114l20 116z" />
    <glyph glyph-name="periodcentered" unicode="&#xb7;" horiz-adv-x="216" 
d="M171 407l-22 -128h-114l23 128h113z" />
    <glyph glyph-name="question" unicode="?" horiz-adv-x="518" 
d="M255 204h-91c14 108 22 148 137 230c68 47 100 81 100 153c0 42 -23 75 -108 75c-45 0 -101 -15 -136 -31l-39 78c45 23 127 40 193 40c146 0 189 -62 189 -140c0 -112 -55 -167 -129 -219c-101 -74 -101 -90 -116 -186zM250 114l-20 -114h-114l21 114h113z" />
    <glyph glyph-name="questiondown" unicode="&#xbf;" horiz-adv-x="535" 
d="M419 741l-21 -114h-112l20 114h113zM225 -8c-146 0 -190 62 -190 140c0 112 55 167 129 219c101 74 102 90 117 186h91c-14 -108 -22 -148 -137 -230c-69 -47 -101 -81 -101 -152c0 -43 24 -76 109 -76c45 0 101 15 136 31l39 -78c-46 -23 -128 -40 -193 -40z" />
    <glyph glyph-name="quotedbl" unicode="&#x22;" horiz-adv-x="425" 
d="M237 741l-60 -302h-86l49 302h97zM416 741l-58 -302h-87l50 302h95z" />
    <glyph glyph-name="quotesingle" unicode="'" horiz-adv-x="245" 
d="M237 741l-59 -302h-87l49 302h97z" />
    <glyph glyph-name="semicolon" unicode=";" horiz-adv-x="232" 
d="M205 555l-22 -123h-113l22 123h113zM-2 -119l-18 49c51 26 59 33 66 70h-52l20 114l115 10l-20 -116c-13 -65 -28 -94 -111 -127z" />
    <glyph glyph-name="slash" unicode="/" horiz-adv-x="426" 
d="M494 741l-463 -741h-99l464 741h98z" />
    <glyph glyph-name="underscore" unicode="_" horiz-adv-x="362" 
d="M317 -53l-12 -72h-423l13 72h422z" />
    <glyph glyph-name="braceleft" unicode="{" horiz-adv-x="423" 
d="M257 -158h-63c-105 0 -147 33 -147 96c0 87 90 241 90 292c0 30 -25 36 -94 36l14 79c96 0 112 10 112 99c0 39 -4 97 -4 143c0 135 51 182 177 182h79l-16 -81h-49c-71 0 -98 -24 -98 -121c0 -38 4 -86 4 -126c0 -76 -11 -116 -65 -135c26 -12 37 -29 37 -55
c0 -69 -85 -218 -85 -279c0 -38 25 -52 72 -52h50z" />
    <glyph glyph-name="braceright" unicode="}" horiz-adv-x="423" 
d="M-5 -80h50c69 0 97 25 97 122c0 37 -4 88 -4 128c0 76 12 116 66 135c-26 12 -38 29 -38 55c0 69 86 215 86 276c0 38 -26 52 -73 52h-50l14 81h64c105 0 147 -33 147 -96c0 -87 -91 -241 -91 -292c0 -30 26 -36 94 -36l-14 -79c-96 0 -112 -10 -112 -99
c0 -39 4 -97 4 -143c0 -135 -50 -182 -176 -182h-80z" />
    <glyph glyph-name="bracketleft" unicode="[" horiz-adv-x="394" 
d="M388 769l-14 -81h-129l-136 -768h132l-14 -78h-226l164 927h223z" />
    <glyph glyph-name="bracketright" unicode="]" horiz-adv-x="394" 
d="M128 -80l135 768h-130l14 81h226l-164 -927h-226l14 78h131z" />
    <glyph glyph-name="parenleft" unicode="(" horiz-adv-x="399" 
d="M236 -130l-76 -43c-47 66 -98 181 -98 343c0 246 124 493 266 610l62 -46c-125 -110 -233 -338 -233 -568c0 -144 41 -240 79 -296z" />
    <glyph glyph-name="parenright" unicode=")" horiz-adv-x="399" 
d="M47 -173l-61 46c125 109 232 338 232 568c0 142 -41 239 -78 296l76 43c47 -68 98 -181 98 -343c0 -246 -124 -493 -267 -610z" />
    <glyph glyph-name="emdash" unicode="&#x2014;" horiz-adv-x="736" 
d="M696 358l-14 -86h-662l15 86h661z" />
    <glyph glyph-name="endash" unicode="&#x2013;" horiz-adv-x="561" 
d="M522 358l-15 -86h-487l15 86h487z" />
    <glyph glyph-name="hyphen" unicode="-" horiz-adv-x="353" 
d="M313 358l-16 -87h-277l15 87h278z" />
    <glyph glyph-name="guillemotleft" unicode="&#xab;" horiz-adv-x="575" 
d="M222 555h82l-163 -278l65 -277h-83l-72 277zM437 555h83l-164 -278l66 -277h-83l-71 277z" />
    <glyph glyph-name="guillemotright" unicode="&#xbb;" horiz-adv-x="575" 
d="M120 555h84l71 -277l-169 -278h-85l165 278zM336 555h83l71 -277l-169 -278h-83l164 278z" />
    <glyph glyph-name="guilsinglleft" unicode="&#x2039;" horiz-adv-x="361" 
d="M222 555h85l-163 -278l65 -277h-86l-72 277z" />
    <glyph glyph-name="guilsinglright" unicode="&#x203a;" horiz-adv-x="361" 
d="M120 555h86l72 -277l-170 -278h-87l164 278z" />
    <glyph glyph-name="quotedblbase" unicode="&#x201e;" horiz-adv-x="384" 
d="M25 -120l-19 47c46 25 56 39 59 75h-51l16 129h110l-14 -116c-7 -75 -25 -104 -101 -135zM196 -120l-19 47c47 25 56 39 59 75h-51l16 129h111l-14 -116c-8 -75 -26 -104 -102 -135z" />
    <glyph glyph-name="quotedblleft" unicode="&#x201c;" horiz-adv-x="385" 
d="M73 493l20 116c13 74 34 103 111 134l17 -47c-47 -25 -59 -38 -66 -75h51l-22 -128h-111zM244 493l21 116c13 74 32 103 110 134l17 -47c-47 -25 -60 -38 -66 -75h51l-22 -128h-111z" />
    <glyph glyph-name="quotedblright" unicode="&#x201d;" horiz-adv-x="384" 
d="M96 491l-18 47c49 24 61 38 67 73h-51l23 130h110l-21 -116c-12 -75 -32 -103 -110 -134zM268 491l-17 47c48 24 59 38 65 73h-51l23 130h111l-21 -116c-12 -75 -33 -103 -110 -134z" />
    <glyph glyph-name="quoteleft" unicode="&#x2018;" horiz-adv-x="216" 
d="M72 488l21 117c13 74 34 106 112 138l18 -49c-48 -25 -60 -38 -66 -75h52l-24 -131h-113z" />
    <glyph glyph-name="quoteright" unicode="&#x2019;" horiz-adv-x="216" 
d="M96 486l-18 49c49 25 62 38 67 75h-51l23 131h114l-22 -116c-13 -75 -33 -107 -113 -139z" />
    <glyph glyph-name="quotesinglbase" unicode="&#x201a;" horiz-adv-x="216" 
d="M-10 -124l-19 49c49 25 60 38 67 75h-52l23 131h113l-20 -116c-14 -76 -34 -107 -112 -139z" />
    <glyph glyph-name="space" unicode=" " horiz-adv-x="180" 
 />
    <glyph glyph-name="florin" unicode="&#x192;" horiz-adv-x="447" 
d="M166 453l24 133c15 90 34 155 151 155l59 -1l-15 -82h-36c-53 0 -59 -37 -67 -84l-22 -121h138l-15 -83h-137l-94 -528h-93l93 528h-93l16 83h91z" />
    <glyph glyph-name="cent" unicode="&#xa2;" horiz-adv-x="424" 
d="M118 -96l17 98c-90 20 -121 84 -121 176c0 36 4 75 12 120c29 160 81 248 206 262l16 83h90l-15 -84c41 -5 68 -16 91 -29l-52 -76c-15 10 -34 17 -59 21l-71 -401c26 2 50 8 77 20l25 -71c-39 -18 -76 -25 -110 -27l-16 -92h-90zM110 186c0 -47 12 -81 44 -99l68 383
c-56 -20 -82 -81 -100 -185c-7 -37 -12 -71 -12 -99z" />
    <glyph glyph-name="currency" unicode="&#xa4;" horiz-adv-x="546" 
d="M49 487h88c46 187 114 262 254 262c88 0 139 -24 180 -51l-55 -76c-30 20 -69 36 -128 36c-86 0 -125 -51 -155 -171h202l-14 -77h-204c-2 -10 -3 -20 -5 -30c-3 -14 -6 -28 -8 -41h205l-14 -78h-200c-2 -17 -2 -32 -2 -46c0 -90 30 -136 116 -136c40 0 76 11 111 27
l35 -74c-50 -26 -104 -40 -159 -40c-144 0 -198 71 -198 210c0 19 1 38 2 59h-91l14 78h86c2 16 5 33 8 50c1 7 2 14 4 21h-86z" />
    <glyph glyph-name="dollar" unicode="$" horiz-adv-x="526" 
d="M140 -92l16 94c-78 9 -133 34 -167 63l56 69c22 -19 65 -44 130 -53l49 275c-74 40 -127 78 -127 167c0 134 72 208 190 218l15 84h89l-15 -87c55 -8 95 -24 127 -42l-50 -76c-22 13 -53 27 -96 33l-44 -245c77 -41 138 -82 138 -181c0 -143 -77 -219 -207 -227l-15 -92
h-89zM191 532c0 -35 17 -58 49 -82l36 203c-57 -11 -85 -54 -85 -121zM357 214c0 45 -21 73 -60 100l-42 -234c67 11 102 59 102 134z" />
    <glyph glyph-name="Euro" unicode="&#x20ac;" horiz-adv-x="546" 
d="M49 487h88c46 187 114 262 254 262c88 0 139 -24 180 -51l-55 -76c-30 20 -69 36 -128 36c-86 0 -125 -51 -155 -171h202l-14 -77h-204c-2 -10 -3 -20 -5 -30c-3 -14 -6 -28 -8 -41h205l-14 -78h-200c-2 -17 -2 -32 -2 -46c0 -90 30 -136 116 -136c40 0 76 11 111 27
l35 -74c-50 -26 -104 -40 -159 -40c-144 0 -198 71 -198 210c0 19 1 38 2 59h-91l14 78h86c2 16 5 33 8 50c1 7 2 14 4 21h-86z" />
    <glyph glyph-name="sterling" unicode="&#xa3;" horiz-adv-x="489" 
d="M293 -5c-71 0 -126 18 -165 42c-38 -29 -94 -39 -175 -37l16 83c122 0 137 20 137 167c0 26 -1 56 -3 87h-90l14 78h73c-1 17 -1 35 -1 52c0 195 63 282 204 282c93 0 153 -19 199 -47l-51 -73c-36 21 -87 33 -147 33c-98 0 -113 -73 -113 -203v-44h163l-14 -78h-148
c1 -29 1 -58 1 -91c0 -59 -6 -106 -19 -142c28 -16 63 -28 109 -28c42 0 53 24 61 76l9 56h84l-12 -70c-18 -105 -51 -143 -132 -143z" />
    <glyph glyph-name="yen" unicode="&#xa5;" horiz-adv-x="509" 
d="M196 302l2 10l-119 429h99l82 -336l201 336h101l-273 -432l-1 -7h154l-14 -78h-154l-13 -71h154l-12 -78h-155l-13 -75h-91l13 75h-154l12 78h155l13 71h-154l13 78h154z" />
    <glyph glyph-name="approxequal" unicode="&#x2248;" horiz-adv-x="567" 
d="M139 388l-60 39c34 55 73 79 118 79c62 0 143 -40 190 -40c22 0 45 15 68 46l59 -40c-35 -57 -76 -83 -117 -83c-64 0 -144 41 -191 41c-26 0 -46 -13 -67 -42zM104 189l-59 38c33 55 73 81 118 81c61 0 141 -41 188 -41c24 0 46 15 68 46l60 -39
c-34 -57 -75 -83 -117 -83c-64 0 -143 40 -191 40c-26 0 -46 -13 -67 -42z" />
    <glyph glyph-name="asciitilde" unicode="~" 
d="M168 403l-60 40c34 53 71 78 113 78c51 0 90 -39 123 -39c21 0 41 14 63 45l59 -39c-34 -57 -74 -83 -111 -83c-54 0 -91 40 -127 40c-23 0 -40 -13 -60 -42z" />
    <glyph glyph-name="divide" unicode="&#xf7;" horiz-adv-x="566" 
d="M369 579l-16 -98h-99l16 98h99zM490 396l-16 -87h-403l14 87h405zM307 223l-18 -98h-99l18 98h99z" />
    <glyph glyph-name="equal" unicode="=" horiz-adv-x="567" 
d="M503 488l-16 -86h-397l16 86h397zM468 290l-16 -87h-396l15 87h397z" />
    <glyph glyph-name="greater" unicode="&#x3e;" horiz-adv-x="566" 
d="M379 346l-240 149l16 91l326 -206l-11 -68l-399 -206l14 92z" />
    <glyph glyph-name="greaterequal" unicode="&#x2265;" horiz-adv-x="566" 
d="M382 352l-240 144l14 90l328 -202l-11 -67l-399 -203l16 93zM433 96l-14 -83h-363l15 83h362z" />
    <glyph glyph-name="infinity" unicode="&#x221e;" horiz-adv-x="790" 
d="M216 473l-111 -631h-94l111 631h-86l16 82h84l14 76c17 97 61 140 176 140h49l-15 -83h-38c-62 0 -73 -31 -82 -80l-10 -53h172l14 76c17 97 61 140 175 140h50l-15 -83h-39c-61 0 -72 -31 -81 -80l-10 -53h108l-15 -82h-107l-111 -631h-94l111 631h-172zM795 736
l-21 -113h-94l20 113h95zM763 555l-99 -555h-94l98 555h95z" />
    <glyph glyph-name="integral" unicode="&#x222b;" horiz-adv-x="832" 
d="M416 749c-94 0 -179 -36 -244 -95l-7 8c67 61 155 97 251 97s185 -37 252 -97l-7 -8c-65 59 -151 95 -245 95zM617 605l-7 -8c-51 47 -119 75 -194 75c-74 0 -142 -28 -194 -74l-7 7c54 48 124 77 201 77s147 -29 201 -77zM698 615l8 7c56 -67 90 -155 90 -251
c0 -95 -34 -183 -90 -251l-8 7c55 66 88 151 88 244s-33 178 -88 244zM133 615c-54 -66 -87 -151 -87 -244s33 -178 88 -244l-8 -7c-56 67 -90 155 -90 251c0 95 34 183 90 250c0 0 3 -2 7 -6zM263 553l-7 7c43 38 99 61 160 61c62 0 118 -23 161 -61c-2 -3 -5 -6 -7 -8
c-41 37 -95 59 -154 59s-112 -22 -153 -58zM544 523c1 0 -6 -7 -6 -7c-33 29 -76 46 -122 46s-89 -17 -121 -46l-7 8c34 30 79 48 128 48s94 -18 128 -49zM182 571l8 -7c-43 -52 -69 -120 -69 -193c0 -74 26 -142 69 -194l-7 -7c-45 55 -72 124 -72 201c0 76 27 146 71 200z
M721 371c0 -76 -27 -146 -72 -200l-7 6c43 53 69 120 69 194s-26 141 -70 193l8 7c45 -54 72 -124 72 -200zM320 487l-7 8c28 24 64 38 103 38s75 -15 102 -39l-6 -7c-26 23 -59 36 -96 36c-36 0 -70 -14 -96 -36zM235 218c-2 -3 -5 -5 -7 -7c-35 43 -57 99 -57 160
s21 116 56 160c3 -2 5 -5 8 -7c-33 -41 -54 -95 -54 -153s20 -112 54 -153zM596 524l8 7c36 -43 57 -99 57 -160s-21 -117 -57 -160c0 0 -3 2 -8 7c35 42 55 95 55 153s-20 112 -55 153zM498 472l-7 -8c-20 17 -46 28 -75 28c-28 0 -54 -10 -75 -28l-7 7c22 19 51 31 82 31
s60 -11 82 -30zM219 371c0 48 17 93 45 128c3 -2 5 -5 8 -7c-27 -33 -43 -75 -43 -121s16 -88 43 -121c-3 -2 -5 -5 -8 -7c-28 35 -45 79 -45 128zM560 492l8 7c28 -35 45 -79 45 -128s-17 -93 -45 -128c-2 2 -5 5 -8 7c27 33 43 75 43 121s-16 88 -43 121zM416 477
c25 0 48 -9 66 -24l-8 -8c-16 14 -36 22 -58 22s-42 -8 -58 -22c-4 3 -7 7 -8 8c18 15 41 24 66 24zM292 269c-22 28 -35 64 -35 102c0 39 13 74 36 102l7 -7c-20 -26 -33 -59 -33 -95s13 -69 33 -95c-2 -2 -5 -5 -8 -7zM531 466l8 7c23 -28 36 -63 36 -102
s-13 -74 -35 -102c-3 2 -5 5 -8 7c20 26 33 59 33 95s-13 69 -34 95zM468 438c-4 -4 -7 -8 -7 -8c-12 11 -28 17 -45 17s-33 -6 -45 -17l-7 8c14 12 33 19 52 19c20 0 38 -7 52 -19zM544 371c0 -31 -10 -59 -28 -81l-7 7c15 20 25 46 25 74s-10 54 -26 75l8 7
c18 -23 28 -51 28 -82zM316 289c-18 23 -28 51 -28 82s10 59 28 81c2 -2 5 -4 7 -7c-15 -20 -25 -46 -25 -74s10 -54 26 -75c-3 -2 -5 -5 -8 -7zM384 416l-7 7c11 9 24 14 39 14c14 0 27 -5 38 -14c-2 -2 -4 -4 -6 -7c-9 8 -20 12 -32 12s-23 -5 -32 -12zM313 371
c0 24 8 47 21 65c3 -2 6 -5 8 -7c-12 -16 -19 -36 -19 -58c0 -21 7 -41 19 -57l-8 -8c-13 18 -21 40 -21 65zM519 371c0 -24 -8 -46 -21 -65c-3 2 -6 5 -8 7c12 16 19 36 19 58s-7 42 -19 58l7 7c14 -18 22 -41 22 -65zM333 371c0 19 6 37 16 51c3 -2 5 -5 8 -7
c-9 -13 -14 -28 -14 -44s5 -31 14 -44c-3 -2 -5 -4 -8 -7c-10 14 -16 32 -16 51zM475 415l7 7c11 -14 17 -32 17 -51s-6 -37 -17 -52c-2 3 -4 5 -7 7c9 13 14 29 14 45c0 17 -5 32 -14 44zM416 410c-8 0 -15 -2 -21 -7l-5 6c7 6 16 9 26 9s19 -3 26 -9c-3 -3 -5 -6 -5 -6
c-6 4 -13 7 -21 7zM352 371c0 14 4 27 12 38c2 -3 5 -5 7 -7c-5 -9 -9 -20 -9 -31s4 -22 9 -31l-7 -7c-8 11 -12 24 -12 38zM480 371c0 -14 -4 -27 -12 -38c-3 3 -5 5 -8 7c6 9 10 20 10 31s-4 22 -10 31l8 7c8 -11 12 -24 12 -38zM378 396l6 -5c-3 -6 -5 -13 -5 -20
s2 -14 5 -20l-6 -5c-4 7 -7 16 -7 25s3 18 7 25zM448 391l6 5c4 -7 7 -16 7 -25s-3 -18 -7 -25l-6 5c3 6 5 13 5 20s-2 14 -5 20zM416 324c-10 0 -19 3 -27 9c2 1 6 6 6 6c6 -4 13 -7 21 -7s15 2 21 7l5 -6c-7 -6 -16 -9 -26 -9zM448 326l7 -7c-11 -9 -25 -14 -39 -14
c-15 0 -28 5 -40 14l7 7c10 -7 21 -12 33 -12s23 5 32 12zM461 312l7 -8c-14 -12 -32 -19 -52 -19s-38 7 -53 19l7 8c13 -10 29 -17 46 -17s32 6 45 17zM481 289c-18 -15 -40 -24 -65 -24s-48 9 -66 24l7 8c16 -14 37 -22 59 -22s42 8 58 22c2 -3 5 -5 7 -8zM491 278l7 -7
c-22 -19 -50 -31 -82 -31s-61 11 -83 30l7 8c21 -17 48 -28 76 -28c29 0 55 11 75 28zM518 247c-27 -23 -63 -38 -102 -38s-75 15 -103 38l7 8c26 -22 60 -36 96 -36s70 14 96 36c2 -2 4 -5 6 -8zM287 219l7 7c33 -29 75 -46 122 -46c46 0 89 17 121 46c2 -3 5 -5 7 -8
c-34 -30 -79 -48 -128 -48s-94 19 -129 49zM576 182c-42 -38 -98 -61 -160 -61s-118 23 -161 61l7 8c41 -37 95 -59 154 -59s113 22 153 59c2 -3 5 -5 7 -8zM616 136c-53 -47 -123 -76 -200 -76c-78 0 -148 29 -201 77c0 0 7 8 7 7c52 -46 120 -74 194 -74s142 28 193 74
c2 -3 5 -5 7 -8zM660 87c0 1 7 -7 7 -7c-67 -61 -155 -97 -251 -97s-185 37 -252 97l7 8c65 -59 151 -95 245 -95s179 36 244 94z" />
    <glyph glyph-name="less" unicode="&#x3c;" horiz-adv-x="565" 
d="M86 380l399 206l-14 -91l-295 -149l241 -149l-16 -91l-326 206z" />
    <glyph glyph-name="lessequal" unicode="&#x2264;" horiz-adv-x="566" 
d="M87 384l398 202l-14 -91l-294 -145l241 -144l-15 -92l-328 203zM399 96l-14 -83h-363l14 83h363z" />
    <glyph glyph-name="logicalnot" unicode="&#xac;" horiz-adv-x="832" 
d="M416 749c-94 0 -179 -36 -244 -95l-7 8c67 61 155 97 251 97s185 -37 252 -97l-7 -8c-65 59 -151 95 -245 95zM617 605l-7 -8c-51 47 -119 75 -194 75c-74 0 -142 -28 -194 -74l-7 7c54 48 124 77 201 77s147 -29 201 -77zM698 615l8 7c56 -67 90 -155 90 -251
c0 -95 -34 -183 -90 -251l-8 7c55 66 88 151 88 244s-33 178 -88 244zM133 615c-54 -66 -87 -151 -87 -244s33 -178 88 -244l-8 -7c-56 67 -90 155 -90 251c0 95 34 183 90 250c0 0 3 -2 7 -6zM263 553l-7 7c43 38 99 61 160 61c62 0 118 -23 161 -61c-2 -3 -5 -6 -7 -8
c-41 37 -95 59 -154 59s-112 -22 -153 -58zM544 523c1 0 -6 -7 -6 -7c-33 29 -76 46 -122 46s-89 -17 -121 -46l-7 8c34 30 79 48 128 48s94 -18 128 -49zM182 571l8 -7c-43 -52 -69 -120 -69 -193c0 -74 26 -142 69 -194l-7 -7c-45 55 -72 124 -72 201c0 76 27 146 71 200z
M721 371c0 -76 -27 -146 -72 -200l-7 6c43 53 69 120 69 194s-26 141 -70 193l8 7c45 -54 72 -124 72 -200zM320 487l-7 8c28 24 64 38 103 38s75 -15 102 -39l-6 -7c-26 23 -59 36 -96 36c-36 0 -70 -14 -96 -36zM235 218c-2 -3 -5 -5 -7 -7c-35 43 -57 99 -57 160
s21 116 56 160c3 -2 5 -5 8 -7c-33 -41 -54 -95 -54 -153s20 -112 54 -153zM596 524l8 7c36 -43 57 -99 57 -160s-21 -117 -57 -160c0 0 -3 2 -8 7c35 42 55 95 55 153s-20 112 -55 153zM498 472l-7 -8c-20 17 -46 28 -75 28c-28 0 -54 -10 -75 -28l-7 7c22 19 51 31 82 31
s60 -11 82 -30zM219 371c0 48 17 93 45 128c3 -2 5 -5 8 -7c-27 -33 -43 -75 -43 -121s16 -88 43 -121c-3 -2 -5 -5 -8 -7c-28 35 -45 79 -45 128zM560 492l8 7c28 -35 45 -79 45 -128s-17 -93 -45 -128c-2 2 -5 5 -8 7c27 33 43 75 43 121s-16 88 -43 121zM416 477
c25 0 48 -9 66 -24l-8 -8c-16 14 -36 22 -58 22s-42 -8 -58 -22c-4 3 -7 7 -8 8c18 15 41 24 66 24zM292 269c-22 28 -35 64 -35 102c0 39 13 74 36 102l7 -7c-20 -26 -33 -59 -33 -95s13 -69 33 -95c-2 -2 -5 -5 -8 -7zM531 466l8 7c23 -28 36 -63 36 -102
s-13 -74 -35 -102c-3 2 -5 5 -8 7c20 26 33 59 33 95s-13 69 -34 95zM468 438c-4 -4 -7 -8 -7 -8c-12 11 -28 17 -45 17s-33 -6 -45 -17l-7 8c14 12 33 19 52 19c20 0 38 -7 52 -19zM544 371c0 -31 -10 -59 -28 -81l-7 7c15 20 25 46 25 74s-10 54 -26 75l8 7
c18 -23 28 -51 28 -82zM316 289c-18 23 -28 51 -28 82s10 59 28 81c2 -2 5 -4 7 -7c-15 -20 -25 -46 -25 -74s10 -54 26 -75c-3 -2 -5 -5 -8 -7zM384 416l-7 7c11 9 24 14 39 14c14 0 27 -5 38 -14c-2 -2 -4 -4 -6 -7c-9 8 -20 12 -32 12s-23 -5 -32 -12zM313 371
c0 24 8 47 21 65c3 -2 6 -5 8 -7c-12 -16 -19 -36 -19 -58c0 -21 7 -41 19 -57l-8 -8c-13 18 -21 40 -21 65zM519 371c0 -24 -8 -46 -21 -65c-3 2 -6 5 -8 7c12 16 19 36 19 58s-7 42 -19 58l7 7c14 -18 22 -41 22 -65zM333 371c0 19 6 37 16 51c3 -2 5 -5 8 -7
c-9 -13 -14 -28 -14 -44s5 -31 14 -44c-3 -2 -5 -4 -8 -7c-10 14 -16 32 -16 51zM475 415l7 7c11 -14 17 -32 17 -51s-6 -37 -17 -52c-2 3 -4 5 -7 7c9 13 14 29 14 45c0 17 -5 32 -14 44zM416 410c-8 0 -15 -2 -21 -7l-5 6c7 6 16 9 26 9s19 -3 26 -9c-3 -3 -5 -6 -5 -6
c-6 4 -13 7 -21 7zM352 371c0 14 4 27 12 38c2 -3 5 -5 7 -7c-5 -9 -9 -20 -9 -31s4 -22 9 -31l-7 -7c-8 11 -12 24 -12 38zM480 371c0 -14 -4 -27 -12 -38c-3 3 -5 5 -8 7c6 9 10 20 10 31s-4 22 -10 31l8 7c8 -11 12 -24 12 -38zM378 396l6 -5c-3 -6 -5 -13 -5 -20
s2 -14 5 -20l-6 -5c-4 7 -7 16 -7 25s3 18 7 25zM448 391l6 5c4 -7 7 -16 7 -25s-3 -18 -7 -25l-6 5c3 6 5 13 5 20s-2 14 -5 20zM416 324c-10 0 -19 3 -27 9c2 1 6 6 6 6c6 -4 13 -7 21 -7s15 2 21 7l5 -6c-7 -6 -16 -9 -26 -9zM448 326l7 -7c-11 -9 -25 -14 -39 -14
c-15 0 -28 5 -40 14l7 7c10 -7 21 -12 33 -12s23 5 32 12zM461 312l7 -8c-14 -12 -32 -19 -52 -19s-38 7 -53 19l7 8c13 -10 29 -17 46 -17s32 6 45 17zM481 289c-18 -15 -40 -24 -65 -24s-48 9 -66 24l7 8c16 -14 37 -22 59 -22s42 8 58 22c2 -3 5 -5 7 -8zM491 278l7 -7
c-22 -19 -50 -31 -82 -31s-61 11 -83 30l7 8c21 -17 48 -28 76 -28c29 0 55 11 75 28zM518 247c-27 -23 -63 -38 -102 -38s-75 15 -103 38l7 8c26 -22 60 -36 96 -36s70 14 96 36c2 -2 4 -5 6 -8zM287 219l7 7c33 -29 75 -46 122 -46c46 0 89 17 121 46c2 -3 5 -5 7 -8
c-34 -30 -79 -48 -128 -48s-94 19 -129 49zM576 182c-42 -38 -98 -61 -160 -61s-118 23 -161 61l7 8c41 -37 95 -59 154 -59s113 22 153 59c2 -3 5 -5 7 -8zM616 136c-53 -47 -123 -76 -200 -76c-78 0 -148 29 -201 77c0 0 7 8 7 7c52 -46 120 -74 194 -74s142 28 193 74
c2 -3 5 -5 7 -8zM660 87c0 1 7 -7 7 -7c-67 -61 -155 -97 -251 -97s-185 37 -252 97l7 8c65 -59 151 -95 245 -95s179 36 244 94z" />
    <glyph glyph-name="minus" unicode="&#x2212;" horiz-adv-x="566" 
d="M487 393l-14 -82h-400l14 82h400z" />
    <glyph glyph-name="multiply" unicode="&#xd7;" horiz-adv-x="566" 
d="M222 352l-103 124l67 59l103 -125l146 125l49 -59l-147 -124l103 -124l-65 -59l-104 124l-147 -125l-49 59z" />
    <glyph glyph-name="notequal" unicode="&#x2260;" horiz-adv-x="597" 
d="M216 473l-111 -631h-94l111 631h-86l16 82h84l14 76c17 97 61 140 176 140h49l-15 -83h-38c-62 0 -73 -31 -82 -80l-10 -53h172l14 76c17 97 60 140 180 140c20 0 52 0 62 -1l-16 -82h-50c-66 0 -77 -31 -86 -80l-10 -53h124l-15 -82h-123l-111 -631h-94l111 631h-172z
" />
    <glyph glyph-name="partialdiff" unicode="&#x2202;" horiz-adv-x="832" 
d="M416 749c-94 0 -179 -36 -244 -95l-7 8c67 61 155 97 251 97s185 -37 252 -97l-7 -8c-65 59 -151 95 -245 95zM617 605l-7 -8c-51 47 -119 75 -194 75c-74 0 -142 -28 -194 -74l-7 7c54 48 124 77 201 77s147 -29 201 -77zM698 615l8 7c56 -67 90 -155 90 -251
c0 -95 -34 -183 -90 -251l-8 7c55 66 88 151 88 244s-33 178 -88 244zM133 615c-54 -66 -87 -151 -87 -244s33 -178 88 -244l-8 -7c-56 67 -90 155 -90 251c0 95 34 183 90 250c0 0 3 -2 7 -6zM263 553l-7 7c43 38 99 61 160 61c62 0 118 -23 161 -61c-2 -3 -5 -6 -7 -8
c-41 37 -95 59 -154 59s-112 -22 -153 -58zM544 523c1 0 -6 -7 -6 -7c-33 29 -76 46 -122 46s-89 -17 -121 -46l-7 8c34 30 79 48 128 48s94 -18 128 -49zM182 571l8 -7c-43 -52 -69 -120 -69 -193c0 -74 26 -142 69 -194l-7 -7c-45 55 -72 124 -72 201c0 76 27 146 71 200z
M721 371c0 -76 -27 -146 -72 -200l-7 6c43 53 69 120 69 194s-26 141 -70 193l8 7c45 -54 72 -124 72 -200zM320 487l-7 8c28 24 64 38 103 38s75 -15 102 -39l-6 -7c-26 23 -59 36 -96 36c-36 0 -70 -14 -96 -36zM235 218c-2 -3 -5 -5 -7 -7c-35 43 -57 99 -57 160
s21 116 56 160c3 -2 5 -5 8 -7c-33 -41 -54 -95 -54 -153s20 -112 54 -153zM596 524l8 7c36 -43 57 -99 57 -160s-21 -117 -57 -160c0 0 -3 2 -8 7c35 42 55 95 55 153s-20 112 -55 153zM498 472l-7 -8c-20 17 -46 28 -75 28c-28 0 -54 -10 -75 -28l-7 7c22 19 51 31 82 31
s60 -11 82 -30zM219 371c0 48 17 93 45 128c3 -2 5 -5 8 -7c-27 -33 -43 -75 -43 -121s16 -88 43 -121c-3 -2 -5 -5 -8 -7c-28 35 -45 79 -45 128zM560 492l8 7c28 -35 45 -79 45 -128s-17 -93 -45 -128c-2 2 -5 5 -8 7c27 33 43 75 43 121s-16 88 -43 121zM416 477
c25 0 48 -9 66 -24l-8 -8c-16 14 -36 22 -58 22s-42 -8 -58 -22c-4 3 -7 7 -8 8c18 15 41 24 66 24zM292 269c-22 28 -35 64 -35 102c0 39 13 74 36 102l7 -7c-20 -26 -33 -59 -33 -95s13 -69 33 -95c-2 -2 -5 -5 -8 -7zM531 466l8 7c23 -28 36 -63 36 -102
s-13 -74 -35 -102c-3 2 -5 5 -8 7c20 26 33 59 33 95s-13 69 -34 95zM468 438c-4 -4 -7 -8 -7 -8c-12 11 -28 17 -45 17s-33 -6 -45 -17l-7 8c14 12 33 19 52 19c20 0 38 -7 52 -19zM544 371c0 -31 -10 -59 -28 -81l-7 7c15 20 25 46 25 74s-10 54 -26 75l8 7
c18 -23 28 -51 28 -82zM316 289c-18 23 -28 51 -28 82s10 59 28 81c2 -2 5 -4 7 -7c-15 -20 -25 -46 -25 -74s10 -54 26 -75c-3 -2 -5 -5 -8 -7zM384 416l-7 7c11 9 24 14 39 14c14 0 27 -5 38 -14c-2 -2 -4 -4 -6 -7c-9 8 -20 12 -32 12s-23 -5 -32 -12zM313 371
c0 24 8 47 21 65c3 -2 6 -5 8 -7c-12 -16 -19 -36 -19 -58c0 -21 7 -41 19 -57l-8 -8c-13 18 -21 40 -21 65zM519 371c0 -24 -8 -46 -21 -65c-3 2 -6 5 -8 7c12 16 19 36 19 58s-7 42 -19 58l7 7c14 -18 22 -41 22 -65zM333 371c0 19 6 37 16 51c3 -2 5 -5 8 -7
c-9 -13 -14 -28 -14 -44s5 -31 14 -44c-3 -2 -5 -4 -8 -7c-10 14 -16 32 -16 51zM475 415l7 7c11 -14 17 -32 17 -51s-6 -37 -17 -52c-2 3 -4 5 -7 7c9 13 14 29 14 45c0 17 -5 32 -14 44zM416 410c-8 0 -15 -2 -21 -7l-5 6c7 6 16 9 26 9s19 -3 26 -9c-3 -3 -5 -6 -5 -6
c-6 4 -13 7 -21 7zM352 371c0 14 4 27 12 38c2 -3 5 -5 7 -7c-5 -9 -9 -20 -9 -31s4 -22 9 -31l-7 -7c-8 11 -12 24 -12 38zM480 371c0 -14 -4 -27 -12 -38c-3 3 -5 5 -8 7c6 9 10 20 10 31s-4 22 -10 31l8 7c8 -11 12 -24 12 -38zM378 396l6 -5c-3 -6 -5 -13 -5 -20
s2 -14 5 -20l-6 -5c-4 7 -7 16 -7 25s3 18 7 25zM448 391l6 5c4 -7 7 -16 7 -25s-3 -18 -7 -25l-6 5c3 6 5 13 5 20s-2 14 -5 20zM416 324c-10 0 -19 3 -27 9c2 1 6 6 6 6c6 -4 13 -7 21 -7s15 2 21 7l5 -6c-7 -6 -16 -9 -26 -9zM448 326l7 -7c-11 -9 -25 -14 -39 -14
c-15 0 -28 5 -40 14l7 7c10 -7 21 -12 33 -12s23 5 32 12zM461 312l7 -8c-14 -12 -32 -19 -52 -19s-38 7 -53 19l7 8c13 -10 29 -17 46 -17s32 6 45 17zM481 289c-18 -15 -40 -24 -65 -24s-48 9 -66 24l7 8c16 -14 37 -22 59 -22s42 8 58 22c2 -3 5 -5 7 -8zM491 278l7 -7
c-22 -19 -50 -31 -82 -31s-61 11 -83 30l7 8c21 -17 48 -28 76 -28c29 0 55 11 75 28zM518 247c-27 -23 -63 -38 -102 -38s-75 15 -103 38l7 8c26 -22 60 -36 96 -36s70 14 96 36c2 -2 4 -5 6 -8zM287 219l7 7c33 -29 75 -46 122 -46c46 0 89 17 121 46c2 -3 5 -5 7 -8
c-34 -30 -79 -48 -128 -48s-94 19 -129 49zM576 182c-42 -38 -98 -61 -160 -61s-118 23 -161 61l7 8c41 -37 95 -59 154 -59s113 22 153 59c2 -3 5 -5 7 -8zM616 136c-53 -47 -123 -76 -200 -76c-78 0 -148 29 -201 77c0 0 7 8 7 7c52 -46 120 -74 194 -74s142 28 193 74
c2 -3 5 -5 7 -8zM660 87c0 1 7 -7 7 -7c-67 -61 -155 -97 -251 -97s-185 37 -252 97l7 8c65 -59 151 -95 245 -95s179 36 244 94z" />
    <glyph glyph-name="percent" unicode="%" horiz-adv-x="911" 
d="M195 276c-99 0 -148 47 -148 152c0 28 4 60 10 98c31 174 95 222 192 222c99 0 148 -48 148 -153c0 -29 -4 -62 -10 -99c-31 -174 -96 -220 -192 -220zM729 741l-458 -741h-87l457 741h88zM195 348c57 0 85 32 107 155c7 36 10 65 10 88c0 57 -20 81 -67 81
c-56 0 -82 -39 -104 -157c-6 -35 -9 -66 -9 -87c0 -56 19 -80 63 -80zM662 -8c-99 0 -147 47 -147 153c0 27 4 60 11 97c30 174 95 223 191 223c99 0 148 -48 148 -154c0 -28 -3 -60 -11 -98c-30 -174 -95 -221 -192 -221zM662 64c58 0 87 33 108 156c7 35 10 64 10 87
c0 58 -21 81 -66 81c-57 0 -83 -38 -104 -157c-6 -35 -10 -65 -10 -86c0 -56 20 -81 62 -81z" />
    <glyph glyph-name="perthousand" unicode="&#x2030;" horiz-adv-x="1287" 
d="M195 276c-99 0 -148 47 -148 152c0 28 4 60 10 98c31 174 95 222 192 222c99 0 148 -48 148 -153c0 -29 -4 -62 -10 -99c-31 -174 -96 -220 -192 -220zM729 741l-458 -741h-87l457 741h88zM195 348c57 0 85 32 107 155c7 36 10 65 10 88c0 57 -20 81 -67 81
c-56 0 -82 -39 -104 -157c-6 -35 -9 -66 -9 -87c0 -56 19 -80 63 -80zM662 -8c-99 0 -147 47 -147 153c0 27 4 60 11 97c30 174 95 223 191 223c99 0 148 -48 148 -154c0 -28 -3 -60 -11 -98c-30 -174 -95 -221 -192 -221zM1038 -8c-99 0 -147 47 -147 153c0 27 4 60 11 97
c30 174 95 223 191 223c99 0 148 -48 148 -154c0 -28 -4 -60 -11 -98c-30 -174 -95 -221 -192 -221zM662 64c58 0 87 33 108 156c7 35 10 64 10 87c0 58 -21 81 -66 81c-57 0 -83 -38 -104 -157c-6 -35 -10 -65 -10 -86c0 -56 20 -81 62 -81zM1038 64c58 0 86 33 108 156
c7 35 10 64 10 87c0 58 -21 81 -66 81c-58 0 -83 -38 -104 -157c-7 -35 -11 -65 -11 -86c0 -56 21 -81 63 -81z" />
    <glyph glyph-name="plus" unicode="+" horiz-adv-x="566" 
d="M73 311l14 82h155l33 186h90l-33 -186h155l-14 -82h-156l-33 -187h-89l33 187h-155z" />
    <glyph glyph-name="plusminus" unicode="&#xb1;" horiz-adv-x="830" 
d="M216 473l-111 -631h-94l111 631h-86l16 82h84l14 76c17 97 61 140 176 140h49l-15 -83h-38c-62 0 -73 -31 -82 -80l-10 -53h172l14 76c17 97 61 140 175 140h50l-15 -83h-39c-61 0 -72 -31 -81 -80l-10 -53h108l-15 -82h-107l-111 -631h-94l111 631h-172zM699 -1
c-100 0 -123 40 -104 144l111 626h94l-111 -628c-8 -45 -8 -59 55 -59l-14 -82c-4 -1 -14 -1 -31 -1z" />
    <glyph glyph-name="product" unicode="&#x220f;" horiz-adv-x="832" 
d="M416 749c-94 0 -179 -36 -244 -95l-7 8c67 61 155 97 251 97s185 -37 252 -97l-7 -8c-65 59 -151 95 -245 95zM617 605l-7 -8c-51 47 -119 75 -194 75c-74 0 -142 -28 -194 -74l-7 7c54 48 124 77 201 77s147 -29 201 -77zM698 615l8 7c56 -67 90 -155 90 -251
c0 -95 -34 -183 -90 -251l-8 7c55 66 88 151 88 244s-33 178 -88 244zM133 615c-54 -66 -87 -151 -87 -244s33 -178 88 -244l-8 -7c-56 67 -90 155 -90 251c0 95 34 183 90 250c0 0 3 -2 7 -6zM263 553l-7 7c43 38 99 61 160 61c62 0 118 -23 161 -61c-2 -3 -5 -6 -7 -8
c-41 37 -95 59 -154 59s-112 -22 -153 -58zM544 523c1 0 -6 -7 -6 -7c-33 29 -76 46 -122 46s-89 -17 -121 -46l-7 8c34 30 79 48 128 48s94 -18 128 -49zM182 571l8 -7c-43 -52 -69 -120 -69 -193c0 -74 26 -142 69 -194l-7 -7c-45 55 -72 124 -72 201c0 76 27 146 71 200z
M721 371c0 -76 -27 -146 -72 -200l-7 6c43 53 69 120 69 194s-26 141 -70 193l8 7c45 -54 72 -124 72 -200zM320 487l-7 8c28 24 64 38 103 38s75 -15 102 -39l-6 -7c-26 23 -59 36 -96 36c-36 0 -70 -14 -96 -36zM235 218c-2 -3 -5 -5 -7 -7c-35 43 -57 99 -57 160
s21 116 56 160c3 -2 5 -5 8 -7c-33 -41 -54 -95 -54 -153s20 -112 54 -153zM596 524l8 7c36 -43 57 -99 57 -160s-21 -117 -57 -160c0 0 -3 2 -8 7c35 42 55 95 55 153s-20 112 -55 153zM498 472l-7 -8c-20 17 -46 28 -75 28c-28 0 -54 -10 -75 -28l-7 7c22 19 51 31 82 31
s60 -11 82 -30zM219 371c0 48 17 93 45 128c3 -2 5 -5 8 -7c-27 -33 -43 -75 -43 -121s16 -88 43 -121c-3 -2 -5 -5 -8 -7c-28 35 -45 79 -45 128zM560 492l8 7c28 -35 45 -79 45 -128s-17 -93 -45 -128c-2 2 -5 5 -8 7c27 33 43 75 43 121s-16 88 -43 121zM416 477
c25 0 48 -9 66 -24l-8 -8c-16 14 -36 22 -58 22s-42 -8 -58 -22c-4 3 -7 7 -8 8c18 15 41 24 66 24zM292 269c-22 28 -35 64 -35 102c0 39 13 74 36 102l7 -7c-20 -26 -33 -59 -33 -95s13 -69 33 -95c-2 -2 -5 -5 -8 -7zM531 466l8 7c23 -28 36 -63 36 -102
s-13 -74 -35 -102c-3 2 -5 5 -8 7c20 26 33 59 33 95s-13 69 -34 95zM468 438c-4 -4 -7 -8 -7 -8c-12 11 -28 17 -45 17s-33 -6 -45 -17l-7 8c14 12 33 19 52 19c20 0 38 -7 52 -19zM544 371c0 -31 -10 -59 -28 -81l-7 7c15 20 25 46 25 74s-10 54 -26 75l8 7
c18 -23 28 -51 28 -82zM316 289c-18 23 -28 51 -28 82s10 59 28 81c2 -2 5 -4 7 -7c-15 -20 -25 -46 -25 -74s10 -54 26 -75c-3 -2 -5 -5 -8 -7zM384 416l-7 7c11 9 24 14 39 14c14 0 27 -5 38 -14c-2 -2 -4 -4 -6 -7c-9 8 -20 12 -32 12s-23 -5 -32 -12zM313 371
c0 24 8 47 21 65c3 -2 6 -5 8 -7c-12 -16 -19 -36 -19 -58c0 -21 7 -41 19 -57l-8 -8c-13 18 -21 40 -21 65zM519 371c0 -24 -8 -46 -21 -65c-3 2 -6 5 -8 7c12 16 19 36 19 58s-7 42 -19 58l7 7c14 -18 22 -41 22 -65zM333 371c0 19 6 37 16 51c3 -2 5 -5 8 -7
c-9 -13 -14 -28 -14 -44s5 -31 14 -44c-3 -2 -5 -4 -8 -7c-10 14 -16 32 -16 51zM475 415l7 7c11 -14 17 -32 17 -51s-6 -37 -17 -52c-2 3 -4 5 -7 7c9 13 14 29 14 45c0 17 -5 32 -14 44zM416 410c-8 0 -15 -2 -21 -7l-5 6c7 6 16 9 26 9s19 -3 26 -9c-3 -3 -5 -6 -5 -6
c-6 4 -13 7 -21 7zM352 371c0 14 4 27 12 38c2 -3 5 -5 7 -7c-5 -9 -9 -20 -9 -31s4 -22 9 -31l-7 -7c-8 11 -12 24 -12 38zM480 371c0 -14 -4 -27 -12 -38c-3 3 -5 5 -8 7c6 9 10 20 10 31s-4 22 -10 31l8 7c8 -11 12 -24 12 -38zM378 396l6 -5c-3 -6 -5 -13 -5 -20
s2 -14 5 -20l-6 -5c-4 7 -7 16 -7 25s3 18 7 25zM448 391l6 5c4 -7 7 -16 7 -25s-3 -18 -7 -25l-6 5c3 6 5 13 5 20s-2 14 -5 20zM416 324c-10 0 -19 3 -27 9c2 1 6 6 6 6c6 -4 13 -7 21 -7s15 2 21 7l5 -6c-7 -6 -16 -9 -26 -9zM448 326l7 -7c-11 -9 -25 -14 -39 -14
c-15 0 -28 5 -40 14l7 7c10 -7 21 -12 33 -12s23 5 32 12zM461 312l7 -8c-14 -12 -32 -19 -52 -19s-38 7 -53 19l7 8c13 -10 29 -17 46 -17s32 6 45 17zM481 289c-18 -15 -40 -24 -65 -24s-48 9 -66 24l7 8c16 -14 37 -22 59 -22s42 8 58 22c2 -3 5 -5 7 -8zM491 278l7 -7
c-22 -19 -50 -31 -82 -31s-61 11 -83 30l7 8c21 -17 48 -28 76 -28c29 0 55 11 75 28zM518 247c-27 -23 -63 -38 -102 -38s-75 15 -103 38l7 8c26 -22 60 -36 96 -36s70 14 96 36c2 -2 4 -5 6 -8zM287 219l7 7c33 -29 75 -46 122 -46c46 0 89 17 121 46c2 -3 5 -5 7 -8
c-34 -30 -79 -48 -128 -48s-94 19 -129 49zM576 182c-42 -38 -98 -61 -160 -61s-118 23 -161 61l7 8c41 -37 95 -59 154 -59s113 22 153 59c2 -3 5 -5 7 -8zM616 136c-53 -47 -123 -76 -200 -76c-78 0 -148 29 -201 77c0 0 7 8 7 7c52 -46 120 -74 194 -74s142 28 193 74
c2 -3 5 -5 7 -8zM660 87c0 1 7 -7 7 -7c-67 -61 -155 -97 -251 -97s-185 37 -252 97l7 8c65 -59 151 -95 245 -95s179 36 244 94z" />
    <glyph glyph-name="radical" unicode="&#x221a;" horiz-adv-x="538" 
d="M146 419l34 -295l292 617h94l-360 -745h-98l-58 423h96z" />
    <glyph glyph-name="summation" unicode="&#x2211;" horiz-adv-x="832" 
d="M416 749c-94 0 -179 -36 -244 -95l-7 8c67 61 155 97 251 97s185 -37 252 -97l-7 -8c-65 59 -151 95 -245 95zM617 605l-7 -8c-51 47 -119 75 -194 75c-74 0 -142 -28 -194 -74l-7 7c54 48 124 77 201 77s147 -29 201 -77zM698 615l8 7c56 -67 90 -155 90 -251
c0 -95 -34 -183 -90 -251l-8 7c55 66 88 151 88 244s-33 178 -88 244zM133 615c-54 -66 -87 -151 -87 -244s33 -178 88 -244l-8 -7c-56 67 -90 155 -90 251c0 95 34 183 90 250c0 0 3 -2 7 -6zM263 553l-7 7c43 38 99 61 160 61c62 0 118 -23 161 -61c-2 -3 -5 -6 -7 -8
c-41 37 -95 59 -154 59s-112 -22 -153 -58zM544 523c1 0 -6 -7 -6 -7c-33 29 -76 46 -122 46s-89 -17 -121 -46l-7 8c34 30 79 48 128 48s94 -18 128 -49zM182 571l8 -7c-43 -52 -69 -120 -69 -193c0 -74 26 -142 69 -194l-7 -7c-45 55 -72 124 -72 201c0 76 27 146 71 200z
M721 371c0 -76 -27 -146 -72 -200l-7 6c43 53 69 120 69 194s-26 141 -70 193l8 7c45 -54 72 -124 72 -200zM320 487l-7 8c28 24 64 38 103 38s75 -15 102 -39l-6 -7c-26 23 -59 36 -96 36c-36 0 -70 -14 -96 -36zM235 218c-2 -3 -5 -5 -7 -7c-35 43 -57 99 -57 160
s21 116 56 160c3 -2 5 -5 8 -7c-33 -41 -54 -95 -54 -153s20 -112 54 -153zM596 524l8 7c36 -43 57 -99 57 -160s-21 -117 -57 -160c0 0 -3 2 -8 7c35 42 55 95 55 153s-20 112 -55 153zM498 472l-7 -8c-20 17 -46 28 -75 28c-28 0 -54 -10 -75 -28l-7 7c22 19 51 31 82 31
s60 -11 82 -30zM219 371c0 48 17 93 45 128c3 -2 5 -5 8 -7c-27 -33 -43 -75 -43 -121s16 -88 43 -121c-3 -2 -5 -5 -8 -7c-28 35 -45 79 -45 128zM560 492l8 7c28 -35 45 -79 45 -128s-17 -93 -45 -128c-2 2 -5 5 -8 7c27 33 43 75 43 121s-16 88 -43 121zM416 477
c25 0 48 -9 66 -24l-8 -8c-16 14 -36 22 -58 22s-42 -8 -58 -22c-4 3 -7 7 -8 8c18 15 41 24 66 24zM292 269c-22 28 -35 64 -35 102c0 39 13 74 36 102l7 -7c-20 -26 -33 -59 -33 -95s13 -69 33 -95c-2 -2 -5 -5 -8 -7zM531 466l8 7c23 -28 36 -63 36 -102
s-13 -74 -35 -102c-3 2 -5 5 -8 7c20 26 33 59 33 95s-13 69 -34 95zM468 438c-4 -4 -7 -8 -7 -8c-12 11 -28 17 -45 17s-33 -6 -45 -17l-7 8c14 12 33 19 52 19c20 0 38 -7 52 -19zM544 371c0 -31 -10 -59 -28 -81l-7 7c15 20 25 46 25 74s-10 54 -26 75l8 7
c18 -23 28 -51 28 -82zM316 289c-18 23 -28 51 -28 82s10 59 28 81c2 -2 5 -4 7 -7c-15 -20 -25 -46 -25 -74s10 -54 26 -75c-3 -2 -5 -5 -8 -7zM384 416l-7 7c11 9 24 14 39 14c14 0 27 -5 38 -14c-2 -2 -4 -4 -6 -7c-9 8 -20 12 -32 12s-23 -5 -32 -12zM313 371
c0 24 8 47 21 65c3 -2 6 -5 8 -7c-12 -16 -19 -36 -19 -58c0 -21 7 -41 19 -57l-8 -8c-13 18 -21 40 -21 65zM519 371c0 -24 -8 -46 -21 -65c-3 2 -6 5 -8 7c12 16 19 36 19 58s-7 42 -19 58l7 7c14 -18 22 -41 22 -65zM333 371c0 19 6 37 16 51c3 -2 5 -5 8 -7
c-9 -13 -14 -28 -14 -44s5 -31 14 -44c-3 -2 -5 -4 -8 -7c-10 14 -16 32 -16 51zM475 415l7 7c11 -14 17 -32 17 -51s-6 -37 -17 -52c-2 3 -4 5 -7 7c9 13 14 29 14 45c0 17 -5 32 -14 44zM416 410c-8 0 -15 -2 -21 -7l-5 6c7 6 16 9 26 9s19 -3 26 -9c-3 -3 -5 -6 -5 -6
c-6 4 -13 7 -21 7zM352 371c0 14 4 27 12 38c2 -3 5 -5 7 -7c-5 -9 -9 -20 -9 -31s4 -22 9 -31l-7 -7c-8 11 -12 24 -12 38zM480 371c0 -14 -4 -27 -12 -38c-3 3 -5 5 -8 7c6 9 10 20 10 31s-4 22 -10 31l8 7c8 -11 12 -24 12 -38zM378 396l6 -5c-3 -6 -5 -13 -5 -20
s2 -14 5 -20l-6 -5c-4 7 -7 16 -7 25s3 18 7 25zM448 391l6 5c4 -7 7 -16 7 -25s-3 -18 -7 -25l-6 5c3 6 5 13 5 20s-2 14 -5 20zM416 324c-10 0 -19 3 -27 9c2 1 6 6 6 6c6 -4 13 -7 21 -7s15 2 21 7l5 -6c-7 -6 -16 -9 -26 -9zM448 326l7 -7c-11 -9 -25 -14 -39 -14
c-15 0 -28 5 -40 14l7 7c10 -7 21 -12 33 -12s23 5 32 12zM461 312l7 -8c-14 -12 -32 -19 -52 -19s-38 7 -53 19l7 8c13 -10 29 -17 46 -17s32 6 45 17zM481 289c-18 -15 -40 -24 -65 -24s-48 9 -66 24l7 8c16 -14 37 -22 59 -22s42 8 58 22c2 -3 5 -5 7 -8zM491 278l7 -7
c-22 -19 -50 -31 -82 -31s-61 11 -83 30l7 8c21 -17 48 -28 76 -28c29 0 55 11 75 28zM518 247c-27 -23 -63 -38 -102 -38s-75 15 -103 38l7 8c26 -22 60 -36 96 -36s70 14 96 36c2 -2 4 -5 6 -8zM287 219l7 7c33 -29 75 -46 122 -46c46 0 89 17 121 46c2 -3 5 -5 7 -8
c-34 -30 -79 -48 -128 -48s-94 19 -129 49zM576 182c-42 -38 -98 -61 -160 -61s-118 23 -161 61l7 8c41 -37 95 -59 154 -59s113 22 153 59c2 -3 5 -5 7 -8zM616 136c-53 -47 -123 -76 -200 -76c-78 0 -148 29 -201 77c0 0 7 8 7 7c52 -46 120 -74 194 -74s142 28 193 74
c2 -3 5 -5 7 -8zM660 87c0 1 7 -7 7 -7c-67 -61 -155 -97 -251 -97s-185 37 -252 97l7 8c65 -59 151 -95 245 -95s179 36 244 94z" />
    <glyph glyph-name="ampersand" unicode="&#x26;" horiz-adv-x="660" 
d="M227 -7c-163 0 -224 67 -224 169c0 144 75 206 179 265c-18 42 -28 83 -28 128c0 135 75 199 168 199c106 0 153 -51 153 -131c0 -126 -80 -183 -169 -234c13 -21 28 -43 44 -67l79 -117c39 69 65 159 91 257l84 -12c-33 -133 -70 -243 -123 -322l86 -128h-116l-37 55
c-49 -40 -110 -62 -187 -62zM246 557c0 -34 8 -66 23 -100c69 41 116 83 116 157c0 33 -15 57 -63 57c-51 0 -76 -41 -76 -114zM229 73c57 0 102 19 139 52l-99 151c-19 28 -36 54 -51 80c-79 -50 -120 -94 -120 -183c0 -52 24 -100 131 -100z" />
    <glyph glyph-name="uniF8FF" unicode="&#xf8ff;" horiz-adv-x="832" 
d="M416 749c-94 0 -179 -36 -244 -95l-7 8c67 61 155 97 251 97s185 -37 252 -97l-7 -8c-65 59 -151 95 -245 95zM617 605l-7 -8c-51 47 -119 75 -194 75c-74 0 -142 -28 -194 -74l-7 7c54 48 124 77 201 77s147 -29 201 -77zM698 615l8 7c56 -67 90 -155 90 -251
c0 -95 -34 -183 -90 -251l-8 7c55 66 88 151 88 244s-33 178 -88 244zM133 615c-54 -66 -87 -151 -87 -244s33 -178 88 -244l-8 -7c-56 67 -90 155 -90 251c0 95 34 183 90 250c0 0 3 -2 7 -6zM263 553l-7 7c43 38 99 61 160 61c62 0 118 -23 161 -61c-2 -3 -5 -6 -7 -8
c-41 37 -95 59 -154 59s-112 -22 -153 -58zM544 523c1 0 -6 -7 -6 -7c-33 29 -76 46 -122 46s-89 -17 -121 -46l-7 8c34 30 79 48 128 48s94 -18 128 -49zM182 571l8 -7c-43 -52 -69 -120 -69 -193c0 -74 26 -142 69 -194l-7 -7c-45 55 -72 124 -72 201c0 76 27 146 71 200z
M721 371c0 -76 -27 -146 -72 -200l-7 6c43 53 69 120 69 194s-26 141 -70 193l8 7c45 -54 72 -124 72 -200zM320 487l-7 8c28 24 64 38 103 38s75 -15 102 -39l-6 -7c-26 23 -59 36 -96 36c-36 0 -70 -14 -96 -36zM235 218c-2 -3 -5 -5 -7 -7c-35 43 -57 99 -57 160
s21 116 56 160c3 -2 5 -5 8 -7c-33 -41 -54 -95 -54 -153s20 -112 54 -153zM596 524l8 7c36 -43 57 -99 57 -160s-21 -117 -57 -160c0 0 -3 2 -8 7c35 42 55 95 55 153s-20 112 -55 153zM498 472l-7 -8c-20 17 -46 28 -75 28c-28 0 -54 -10 -75 -28l-7 7c22 19 51 31 82 31
s60 -11 82 -30zM219 371c0 48 17 93 45 128c3 -2 5 -5 8 -7c-27 -33 -43 -75 -43 -121s16 -88 43 -121c-3 -2 -5 -5 -8 -7c-28 35 -45 79 -45 128zM560 492l8 7c28 -35 45 -79 45 -128s-17 -93 -45 -128c-2 2 -5 5 -8 7c27 33 43 75 43 121s-16 88 -43 121zM416 477
c25 0 48 -9 66 -24l-8 -8c-16 14 -36 22 -58 22s-42 -8 -58 -22c-4 3 -7 7 -8 8c18 15 41 24 66 24zM292 269c-22 28 -35 64 -35 102c0 39 13 74 36 102l7 -7c-20 -26 -33 -59 -33 -95s13 -69 33 -95c-2 -2 -5 -5 -8 -7zM531 466l8 7c23 -28 36 -63 36 -102
s-13 -74 -35 -102c-3 2 -5 5 -8 7c20 26 33 59 33 95s-13 69 -34 95zM468 438c-4 -4 -7 -8 -7 -8c-12 11 -28 17 -45 17s-33 -6 -45 -17l-7 8c14 12 33 19 52 19c20 0 38 -7 52 -19zM544 371c0 -31 -10 -59 -28 -81l-7 7c15 20 25 46 25 74s-10 54 -26 75l8 7
c18 -23 28 -51 28 -82zM316 289c-18 23 -28 51 -28 82s10 59 28 81c2 -2 5 -4 7 -7c-15 -20 -25 -46 -25 -74s10 -54 26 -75c-3 -2 -5 -5 -8 -7zM384 416l-7 7c11 9 24 14 39 14c14 0 27 -5 38 -14c-2 -2 -4 -4 -6 -7c-9 8 -20 12 -32 12s-23 -5 -32 -12zM313 371
c0 24 8 47 21 65c3 -2 6 -5 8 -7c-12 -16 -19 -36 -19 -58c0 -21 7 -41 19 -57l-8 -8c-13 18 -21 40 -21 65zM519 371c0 -24 -8 -46 -21 -65c-3 2 -6 5 -8 7c12 16 19 36 19 58s-7 42 -19 58l7 7c14 -18 22 -41 22 -65zM333 371c0 19 6 37 16 51c3 -2 5 -5 8 -7
c-9 -13 -14 -28 -14 -44s5 -31 14 -44c-3 -2 -5 -4 -8 -7c-10 14 -16 32 -16 51zM475 415l7 7c11 -14 17 -32 17 -51s-6 -37 -17 -52c-2 3 -4 5 -7 7c9 13 14 29 14 45c0 17 -5 32 -14 44zM416 410c-8 0 -15 -2 -21 -7l-5 6c7 6 16 9 26 9s19 -3 26 -9c-3 -3 -5 -6 -5 -6
c-6 4 -13 7 -21 7zM352 371c0 14 4 27 12 38c2 -3 5 -5 7 -7c-5 -9 -9 -20 -9 -31s4 -22 9 -31l-7 -7c-8 11 -12 24 -12 38zM480 371c0 -14 -4 -27 -12 -38c-3 3 -5 5 -8 7c6 9 10 20 10 31s-4 22 -10 31l8 7c8 -11 12 -24 12 -38zM378 396l6 -5c-3 -6 -5 -13 -5 -20
s2 -14 5 -20l-6 -5c-4 7 -7 16 -7 25s3 18 7 25zM448 391l6 5c4 -7 7 -16 7 -25s-3 -18 -7 -25l-6 5c3 6 5 13 5 20s-2 14 -5 20zM416 324c-10 0 -19 3 -27 9c2 1 6 6 6 6c6 -4 13 -7 21 -7s15 2 21 7l5 -6c-7 -6 -16 -9 -26 -9zM448 326l7 -7c-11 -9 -25 -14 -39 -14
c-15 0 -28 5 -40 14l7 7c10 -7 21 -12 33 -12s23 5 32 12zM461 312l7 -8c-14 -12 -32 -19 -52 -19s-38 7 -53 19l7 8c13 -10 29 -17 46 -17s32 6 45 17zM481 289c-18 -15 -40 -24 -65 -24s-48 9 -66 24l7 8c16 -14 37 -22 59 -22s42 8 58 22c2 -3 5 -5 7 -8zM491 278l7 -7
c-22 -19 -50 -31 -82 -31s-61 11 -83 30l7 8c21 -17 48 -28 76 -28c29 0 55 11 75 28zM518 247c-27 -23 -63 -38 -102 -38s-75 15 -103 38l7 8c26 -22 60 -36 96 -36s70 14 96 36c2 -2 4 -5 6 -8zM287 219l7 7c33 -29 75 -46 122 -46c46 0 89 17 121 46c2 -3 5 -5 7 -8
c-34 -30 -79 -48 -128 -48s-94 19 -129 49zM576 182c-42 -38 -98 -61 -160 -61s-118 23 -161 61l7 8c41 -37 95 -59 154 -59s113 22 153 59c2 -3 5 -5 7 -8zM616 136c-53 -47 -123 -76 -200 -76c-78 0 -148 29 -201 77c0 0 7 8 7 7c52 -46 120 -74 194 -74s142 28 193 74
c2 -3 5 -5 7 -8zM660 87c0 1 7 -7 7 -7c-67 -61 -155 -97 -251 -97s-185 37 -252 97l7 8c65 -59 151 -95 245 -95s179 36 244 94z" />
    <glyph glyph-name="asciicircum" unicode="^" 
d="M351 758l82 -162h-75l-63 96l-95 -96h-78l140 162h89z" />
    <glyph glyph-name="at" unicode="@" horiz-adv-x="844" 
d="M368 -165c-237 0 -345 98 -345 317c0 50 6 108 17 171c59 338 197 425 401 425c245 0 354 -98 354 -316c0 -51 -6 -107 -17 -172c-33 -189 -73 -227 -159 -227c-81 0 -110 26 -117 59c-35 -36 -75 -58 -161 -58c-121 0 -150 68 -150 158c0 36 5 79 12 118
c25 134 62 240 191 240c87 0 124 -19 145 -54l24 48l63 -6l-61 -340c-14 -77 5 -105 56 -105c50 0 69 21 97 175c11 61 16 118 16 163c0 190 -93 261 -293 261c-176 0 -287 -76 -340 -377c-11 -58 -16 -114 -16 -159c0 -188 90 -265 274 -265c82 0 159 16 220 36l17 -55
c-62 -22 -149 -37 -228 -37zM363 109c97 0 115 67 134 172c5 33 10 63 10 89c0 62 -18 101 -99 101c-79 0 -100 -63 -119 -169c-6 -36 -11 -69 -11 -97c0 -58 18 -96 85 -96z" />
    <glyph glyph-name="bar" unicode="|" horiz-adv-x="282" 
d="M188 769v-927h-95v927h95z" />
    <glyph glyph-name="brokenbar" unicode="&#xa6;" horiz-adv-x="282" 
d="M187 769v-384h-95v384h95zM187 226v-384h-95v384h95z" />
    <glyph glyph-name="copyright" unicode="&#xa9;" horiz-adv-x="667" 
d="M335 -10c-232 0 -294 158 -294 380c0 223 62 382 294 382c231 0 294 -159 294 -382c0 -222 -63 -380 -294 -380zM335 30c200 0 253 141 253 340c0 201 -53 342 -253 342s-251 -141 -251 -342c0 -199 51 -340 251 -340zM340 123c-145 0 -177 97 -177 252
c0 150 29 250 182 250c53 0 93 -13 120 -30l-35 -53c-18 12 -47 23 -86 23c-94 0 -117 -62 -117 -192c0 -129 22 -192 117 -192c42 0 67 9 95 27l32 -51c-36 -22 -68 -34 -131 -34z" />
    <glyph glyph-name="dagger" unicode="&#x2020;" horiz-adv-x="458" 
d="M59 458l15 87h139l40 224h93l-39 -224h139l-15 -87h-141l-108 -616h-93l109 616h-139z" />
    <glyph glyph-name="daggerdbl" unicode="&#x2021;" horiz-adv-x="458" 
d="M-8 77l15 87h139l53 296h-140l15 88h139l40 221h93l-39 -221h139l-15 -88h-140l-52 -296h140l-15 -87h-140l-42 -235h-93l42 235h-139z" />
    <glyph glyph-name="degree" unicode="&#xb0;" horiz-adv-x="450" 
d="M224 277c-125 0 -161 67 -161 155c0 30 4 62 10 94c23 132 69 223 206 223c123 0 160 -70 160 -158c0 -30 -3 -62 -9 -96c-24 -130 -71 -218 -206 -218zM229 350c83 0 105 59 123 153c5 27 7 54 7 76c0 54 -19 92 -86 92c-85 0 -106 -61 -123 -154c-5 -29 -9 -55 -9 -78
c0 -53 20 -89 88 -89z" />
    <glyph glyph-name="paragraph" unicode="&#xb6;" horiz-adv-x="517" 
d="M129 0l53 301c-95 22 -128 78 -127 161c0 22 3 45 7 71c26 152 95 208 242 208h216l-131 -741h-92l51 291h-76l-51 -291h-92zM414 656h-116c-78 0 -124 -30 -143 -137c-3 -19 -5 -37 -5 -51c0 -68 39 -100 137 -100h75z" />
    <glyph glyph-name="registered" unicode="&#xae;" horiz-adv-x="667" 
d="M335 -10c-232 0 -294 158 -294 380c0 223 62 382 294 382c231 0 294 -159 294 -382c0 -222 -63 -380 -294 -380zM335 30c200 0 253 141 253 340c0 201 -53 342 -253 342s-251 -141 -251 -342c0 -199 51 -340 251 -340zM256 324v-194h-61v485h160c108 0 144 -46 144 -143
c0 -82 -25 -130 -96 -144l91 -198h-64l-88 194h-86zM256 375h97c61 0 84 25 84 93s-23 93 -84 93h-97v-186z" />
    <glyph glyph-name="section" unicode="&#xa7;" horiz-adv-x="454" 
d="M54 -8c-18 0 -43 0 -50 2l13 74h38c66 0 77 34 87 84l14 76c-78 14 -110 53 -110 115c0 127 66 172 160 177l14 77c18 95 51 151 177 151c16 0 42 -1 49 -1l-14 -78h-39c-65 0 -77 -33 -86 -84l-13 -69c80 -14 114 -56 114 -119c0 -135 -71 -171 -165 -174l-14 -80
c-17 -95 -51 -151 -175 -151zM227 284c53 0 103 20 103 101c0 45 -33 69 -105 69c-52 0 -101 -22 -101 -103c0 -44 32 -67 103 -67z" />
    <glyph glyph-name="trademark" unicode="&#x2122;" horiz-adv-x="862" 
d="M91 676l11 65h321l-12 -65h-125l-69 -398h-73l71 398h-124zM531 741l49 -347l171 347h81l-82 -463h-70l57 320l-156 -320h-46l-43 320l-56 -320h-66l82 463h79z" />
    <glyph glyph-name="lozenge" unicode="&#x25ca;" horiz-adv-x="623" 
d="M455 -3c-124 0 -145 54 -125 163l54 313h-168l-111 -631h-94l111 631h-86l16 82h84l14 76c17 97 61 140 176 140h44l-16 -83h-32c-62 0 -73 -31 -82 -80l-10 -53h171l42 147l77 17l-29 -164h127l-15 -82h-126l-55 -316c-9 -49 -6 -75 56 -75h57l-15 -82
c-14 -2 -54 -3 -65 -3z" />
    <glyph glyph-name="acute" unicode="&#xb4;" 
d="M457 775l-163 -162h-84l142 162h105z" />
    <glyph glyph-name="breve" unicode="&#x2d8;" 
d="M298 608c-131 0 -150 58 -153 142l71 10c2 -50 18 -79 84 -79c55 0 80 32 93 81l69 -11c-23 -87 -70 -143 -164 -143z" />
    <glyph glyph-name="caron" unicode="&#x2c7;" 
d="M228 775l61 -97l96 97h78l-141 -162h-87l-83 162h76z" />
    <glyph glyph-name="cedilla" unicode="&#xb8;" 
d="M165 -221c-45 0 -85 10 -112 23l24 52c22 -10 52 -19 82 -19c38 0 58 12 58 52c0 28 -25 34 -69 32l-19 16l26 72h56l-17 -50c53 1 86 -20 86 -70c0 -84 -43 -108 -115 -108z" />
    <glyph glyph-name="circumflex" unicode="&#x2c6;" 
d="M351 775l82 -162h-75l-63 96l-95 -96h-78l140 162h89z" />
    <glyph glyph-name="dieresis" unicode="&#xa8;" 
d="M250 718l-19 -105h-84l19 105h84zM428 718l-19 -105h-85l20 105h84z" />
    <glyph glyph-name="dotaccent" unicode="&#x2d9;" 
d="M346 725l-20 -112h-95l20 112h95z" />
    <glyph glyph-name="grave" unicode="`" 
d="M256 775l83 -162h-79l-106 162h102z" />
    <glyph glyph-name="hungarumlaut" unicode="&#x2dd;" 
d="M365 775l-161 -162h-75l138 162h98zM548 775l-160 -162h-75l137 162h98z" />
    <glyph glyph-name="macron" unicode="&#xaf;" 
d="M445 691l-13 -78h-308l14 78h307z" />
    <glyph glyph-name="ogonek" unicode="&#x2db;" horiz-adv-x="472" 
d="M186 -216h-22c-78 0 -116 26 -116 75c0 79 73 134 117 156h70c-59 -38 -114 -88 -114 -137c0 -20 15 -34 54 -34h23z" />
    <glyph glyph-name="ring" unicode="&#x2da;" 
d="M286 606c-71 0 -96 41 -96 92c0 86 42 143 120 143c70 0 96 -41 96 -94c0 -84 -45 -141 -120 -141zM289 656c42 0 65 34 65 87c0 28 -12 48 -47 48c-41 0 -65 -35 -65 -88c0 -26 13 -47 47 -47z" />
    <glyph glyph-name="tilde" unicode="&#x2dc;" 
d="M168 609l-60 40c34 53 71 78 113 78c51 0 90 -39 123 -39c21 0 41 14 63 45l59 -39c-34 -57 -74 -83 -111 -83c-54 0 -91 40 -127 40c-23 0 -40 -13 -60 -42z" />
    </font>
</defs>
</svg>
